<svg width="1335" height="717" xmlns="http://www.w3.org/2000/svg"><defs><pattern id="pat_3001_1" patternUnits="userSpaceOnUse" width="2" height="2"><path d="M0,0h1v1h-1zM1,1h1v1h-1z" style="fill: black;"></path></pattern><pattern id="pat_3002_1" patternUnits="userSpaceOnUse" width="4" height="2"><path d="M1,0h1v1h-1zM3,1h1v1h-1z" style="fill: black;"></path></pattern><pattern id="pat_3003_1" patternUnits="userSpaceOnUse" width="4" height="4"><path d="M2,1h1v1h-1zM0,3h1v1h-1z" style="fill: black;"></path></pattern><pattern id="pat_3004_1" patternUnits="userSpaceOnUse" width="8" height="8"><path d="M8,0L0,8" style="stroke: black; stroke-width: 1;"></path></pattern><pattern id="pat_3005_1" patternUnits="userSpaceOnUse" width="8" height="8"><path d="M0,0L8,8" style="stroke: black; stroke-width: 1;"></path></pattern><pattern id="pat_3006_1" patternUnits="userSpaceOnUse" width="4" height="4"><path d="M1,0v4" style="stroke: black; stroke-width: 1;"></path></pattern><pattern id="pat_3007_1" patternUnits="userSpaceOnUse" width="4" height="4"><path d="M0,1h4" style="stroke: black; stroke-width: 1;"></path></pattern><pattern id="pat_3010_1" patternUnits="userSpaceOnUse" width="10" height="10"><path d="M0,2h10M0,7h10M2,0v2M7,2v5M2,7v3" style="stroke: black; stroke-width: 1;"></path></pattern><pattern id="pat_3021_1" patternUnits="userSpaceOnUse" width="8" height="8"><path d="M8,2h-2v4h-4v2M2,0v2h-2" style="stroke: black; stroke-width: 1; fill: none;"></path></pattern><pattern id="pat_3022_1" patternUnits="userSpaceOnUse" width="8" height="8"><path d="M0,2h2v4h4v2M6,0v2h2" style="stroke: black; stroke-width: 1; fill: none;"></path></pattern></defs><title>ROOT canvas</title><path d="M0,0H1335V717H0Z" style="pointer-events: visiblefill; fill: rgb(243, 243, 243);"></path><g><g transform="translate(134,72)" x="134" y="72" width="1068" height="574"><title></title><path d="M0,0H1068V574H0Z" pointer-events="visibleFill" style="fill: rgb(243, 243, 243); stroke: black; stroke-width: 1;"></path><svg x="0" y="0" overflow="hidden" width="1068" height="574" viewBox="0 0 1068 574" style="pointer-events: visiblefill;"><g><path fill="rgb(38,62,168)" d="M21,218h4v-6h-4zm53,58h4v-6h-4zm0,-18h4v-5h-4zm0,-28h4v-6h-4zm0,-69h4v-6h-4zm4,86h3v-6h-3zm0,-69h3v-6h-3zm3,80h4v-5h-4zm7,213h4v-6h-4zM88,333h4v-6h-4zM88,201h4v-6h-4zm4,109h3v-6h-3zM92,80h3v-5h-3zM95,69h4v-6h-4zm4,264h4v-6h-4zm0,-40h4v-6h-4zm4,57h3v-6h-3zm0,-138h3v-5h-3zM103,98h3v-6h-3zm3,465h4v-6h-4zm0,-213h4v-6h-4zm0,-212h4v-6h-4zm0,-23h4v-6h-4zm4,436h3v-6h-3zm0,-275h3v-6h-3zm0,-127h3v-5h-3zm7,195h3v-5h-3zm0,-28h3v-6h-3zm0,-63h3v-6h-3zm3,321h4v-6h-4zm0,-155h4v-6h-4zm0,-75h4v-5h-4zm0,-11h4v-6h-4zm0,-75h4v-5h-4zm0,-17h4v-6h-4zm0,-97h4v-6h-4zm0,-58h4v-6h-4zm4,92h3v-6h-3zm3,396h4v-6h-4zm0,-11h4v-6h-4zm0,-184h4v-6h-4zM127,29h4v-6h-4zm4,545h3v-6h-3zm0,-115h3v-6h-3zm0,-51h3v-6h-3zm0,-29h3v-6h-3zm0,-75h3v-6h-3zm0,-74h3v-6h-3zm0,-23h3v-6h-3zm0,-46h3v-6h-3zm3,247h4v-6h-4zm0,-69h4v-6h-4zm0,-35h4v-6h-4zm0,-166h4v-6h-4zm0,-17h4v-6h-4zm0,-41h4v-5h-4zm0,-23h4v-5h-4zm4,483h3v-6h-3zm0,-46h3v-6h-3zm0,-259h3v-5h-3zm0,-11h3v-6h-3zm0,-23h3v-6h-3zM138,86h3v-6h-3zm3,190h4v-12h-4zm0,-29h4v-6h-4zm0,-12h4v-5h-4zm0,-120h4v-6h-4zm0,-86h4v-6h-4zm4,545h4v-6h-4zm0,-109h4v-6h-4zm0,-69h4v-6h-4zm0,-29h4v-5h-4zm0,-103h4v-6h-4zm0,-149h4v-6h-4zm4,281h3v-11h-3zm0,-143h3v-6h-3zm0,-52h3v-6h-3zm0,-17h3v-6h-3zm0,-18h3v-5h-3zm3,397h4v-6h-4zm0,-299h4v-6h-4zm0,-86h4v-6h-4zM152,69h4v-6h-4zm4,419h3v-6h-3zm0,-98h3v-5h-3zm0,-23h3v-5h-3zm0,-11h3v-6h-3zm0,-12h3v-5h-3zm0,-40h3v-6h-3zm0,-51h3v-6h-3zM156,98h3v-6h-3zm3,419h4v-6h-4zm0,-81h4v-5h-4zm0,-63h4v-11h-4zm0,-75h4v-5h-4zm0,-17h4v-11h-4zm0,-63h4v-6h-4zm0,-69h4v-11h-4zm0,-74h4v-6h-4zm4,470h3v-5h-3zm0,-126h3v-6h-3zm0,-40h3v-6h-3zm0,-17h3v-6h-3zm0,-29h3v-6h-3zm0,-40h3v-6h-3zm0,-69h3v-6h-3zm0,-35h3v-5h-3zm0,-23h3v-17h-3zm0,-74h3v-6h-3zm0,-17h3v-6h-3zm3,465h4v-6h-4zm0,-92h4v-6h-4zm0,-81h4v-5h-4zm0,-46h4v-5h-4zm0,-11h4v-6h-4zm0,-12h4v-5h-4zm0,-57h4v-6h-4zm0,-34h4v-6h-4zm0,-18h4v-5h-4zm0,-28h4v-6h-4zm0,-17h4v-6h-4zm0,-92h4v-6h-4zm4,344h3v-6h-3zm0,-40h3v-17h-3zm0,-40h3v-6h-3zm0,-29h3v-6h-3zm0,-11h3v-12h-3zm0,-58h3v-6h-3zm0,-69h3v-5h-3zm0,-28h3v-6h-3zm0,-35h3v-11h-3zm0,-17h3v-6h-3zm0,-23h3v-6h-3zm0,-29h3v-6h-3zm3,299h4v-12h-4zm0,-75h4v-6h-4zm0,-11h4v-6h-4zm0,-12h4v-6h-4zm0,-63h4v-11h-4zm0,-17h4v-6h-4zm0,-52h4v-6h-4zm0,-29h4v-5h-4zm0,-23h4v-5h-4zm0,-17h4v-6h-4zM173,6h4v-6h-4zm4,430h3v-5h-3zm0,-40h3v-6h-3zm0,-57h3v-6h-3zm0,-46h3v-6h-3zm0,-12h3v-5h-3zm0,-57h3v-6h-3zm0,-58h3v-11h-3zm0,-28h3v-6h-3zm0,-17h3v-6h-3zm0,-29h3v-6h-3zm0,-17h3v-6h-3zm0,-18h3v-5h-3zm0,-23h3v-11h-3zm0,-17h3v-6h-3zm3,425h4v-6h-4zm0,-92h4v-6h-4zm0,-11h4v-6h-4zm0,-23h4v-6h-4zm0,-18h4v-5h-4zm0,-28h4v-6h-4zm0,-23h4v-6h-4zm0,-23h4v-6h-4zm0,-29h4v-6h-4zm0,-11h4v-6h-4zm0,-18h4v-5h-4zm0,-97h4v-6h-4zm0,-29h4v-6h-4zm0,-23h4v-6h-4zm4,540h3v-6h-3zm0,-98h3v-6h-3zm0,-23h3v-5h-3zm0,-109h3v-6h-3zm0,-86h3v-11h-3zm0,-34h3v-6h-3zm0,-29h3v-6h-3zm0,-23h3v-6h-3zm0,-29h3v-5h-3zm0,-11h3v-12h-3zm0,-23h3v-12h-3zm0,-69h3v-6h-3zm3,390h4v-5h-4zm0,-63h4v-17h-4zm0,-23h4v-6h-4zm0,-86h4v-11h-4zm0,-29h4v-5h-4zm0,-11h4v-6h-4zm0,-35h4v-5h-4zm0,-11h4v-6h-4zm0,-75h4v-5h-4zm0,-23h4v-5h-4zm4,506h4v-12h-4zm0,-64h4v-5h-4zm0,-57h4v-6h-4zm0,-80h4v-6h-4zm0,-12h4v-6h-4zm0,-29h4v-5h-4zm0,-17h4v-28h-4zm0,-34h4v-6h-4zm0,-132h4v-6h-4zm0,-23h4v-6h-4zm0,-35h4v-5h-4zm4,483h3v-6h-3zm0,-41h3v-5h-3zm0,-57h3v-6h-3zm0,-40h3v-6h-3zm0,-92h3v-12h-3zm0,-29h3v-6h-3zm0,-28h3v-12h-3zm0,-41h3v-5h-3zm0,-28h3v-6h-3zm0,-75h3v-6h-3zm0,-11h3v-6h-3zm0,-23h3v-6h-3zm0,-64h3v-5h-3zm0,-11h3v-6h-3zm3,408h4v-6h-4zm0,-12h4v-6h-4zm0,-29h4v-5h-4zm0,-28h4v-6h-4zm0,-23h4v-6h-4zm0,-18h4v-5h-4zm0,-34h4v-6h-4zm0,-17h4v-12h-4zm0,-29h4v-17h-4zm0,-126h4v-6h-4zm0,-17h4v-6h-4zm4,321h3v-6h-3zm0,-46h3v-6h-3zm0,-17h3v-6h-3zm0,-17h3v-6h-3zm0,-52h3v-6h-3zm0,-34h3v-12h-3zm0,-35h3v-6h-3zm0,-29h3v-5h-3zm0,-51h3v-6h-3zm0,-29h3v-11h-3zm0,-69h3v-6h-3zm3,517h4v-6h-4zm0,-23h4v-6h-4zm0,-161h4v-6h-4zm0,-29h4v-5h-4zm0,-40h4v-6h-4zm0,-17h4v-11h-4zm0,-29h4v-17h-4zm0,-46h4v-5h-4zm0,-17h4v-6h-4zm0,-46h4v-5h-4zm0,-23h4v-5h-4zm0,-23h4v-5h-4zm0,-23h4v-5h-4zm0,-28h4v-6h-4zm0,-12h4v-11h-4zm0,-17h4v-12h-4zm4,408h3v-12h-3zm0,-29h3v-6h-3zm0,-58h3v-5h-3zm0,-17h3v-6h-3zm0,-126h3v-6h-3zm0,-17h3v-6h-3zm0,-12h3v-6h-3zM209,57h3v-5h-3zm3,517h4v-6h-4zm0,-103h4v-6h-4zm0,-46h4v-6h-4zm0,-17h4v-12h-4zm0,-75h4v-6h-4zm0,-46h4v-6h-4zm0,-52h4v-11h-4zm0,-28h4v-6h-4zm0,-12h4v-6h-4zm0,-11h4v-6h-4zm0,-12h4v-6h-4zm0,-17h4v-6h-4zm0,-23h4v-6h-4zm0,-29h4v-5h-4zm0,-11h4v-6h-4zm0,-35h4v-5h-4zm4,419h3v-5h-3zm0,-57h3v-6h-3zm0,-75h3v-5h-3zm0,-23h3v-11h-3zm0,-17h3v-6h-3zm0,-11h3v-6h-3zm0,-29h3v-6h-3zm0,-11h3v-6h-3zm0,-12h3v-11h-3zm0,-17h3v-6h-3zm0,-46h3v-12h-3zm0,-17h3v-6h-3zm0,-17h3v-6h-3zm0,-29h3v-12h-3zm0,-29h3v-6h-3zm3,459h4v-5h-4zm0,-40h4v-6h-4zm0,-23h4v-11h-4zm0,-63h4v-6h-4zm0,-57h4v-6h-4zm0,-29h4v-6h-4zm0,-40h4v-6h-4zm0,-52h4v-6h-4zm0,-23h4v-6h-4zm0,-29h4v-5h-4zm0,-11h4v-6h-4zm0,-12h4v-5h-4zm0,-11h4v-6h-4zm0,-11h4v-6h-4zm0,-12h4v-6h-4zm0,-46h4v-11h-4zm0,-17h4v-6h-4zm0,-17h4v-6h-4zm4,505h3v-6h-3zm0,-17h3v-6h-3zm0,-81h3v-6h-3zm0,-17h3v-6h-3zm0,-46h3v-6h-3zm0,-11h3v-6h-3zm0,-23h3v-6h-3zm0,-58h3v-6h-3zm0,-63h3v-6h-3zm0,-17h3v-6h-3zm0,-23h3v-12h-3zm0,-23h3v-12h-3zm0,-17h3v-12h-3zm0,-40h3v-12h-3zm0,-18h3v-5h-3zm0,-11h3v-6h-3zm0,-29h3v-6h-3zm0,-11h3v-6h-3zm0,-12h3v-6h-3zm0,-29h3v-5h-3zm3,557h4v-34h-4zm0,-80h4v-6h-4zm0,-63h4v-6h-4zm0,-23h4v-12h-4zm0,-17h4v-12h-4zm0,-87h4v-5h-4zm0,-28h4v-17h-4zm0,-35h4v-5h-4zm0,-23h4v-5h-4zm0,-11h4v-6h-4zm0,-63h4v-12h-4zm0,-17h4v-6h-4zm0,-98h4v-6h-4zm4,528h3v-6h-3zm0,-11h3v-6h-3zm0,-115h3v-6h-3zm0,-12h3v-5h-3zm0,-40h3v-6h-3zm0,-109h3v-6h-3zm0,-11h3v-12h-3zm0,-23h3v-6h-3zm0,-29h3v-6h-3zm0,-35h3v-5h-3zm0,-22h3v-18h-3zm0,-41h3v-11h-3zm0,-51h3v-6h-3zm0,-35h3v-6h-3zM230,6h3v-6h-3zm3,557h4v-6h-4zm0,-12h4v-6h-4zm0,-40h4v-6h-4zm0,-46h4v-6h-4zm0,-52h4v-5h-4zm0,-74h4v-6h-4zm0,-12h4v-6h-4zm0,-11h4v-6h-4zm0,-12h4v-23h-4zm0,-28h4v-6h-4zm0,-12h4v-11h-4zm0,-75h4v-11h-4zm0,-40h4v-5h-4zm0,-11h4v-12h-4zm0,-23h4v-6h-4zm0,-12h4v-5h-4zm0,-23h4v-5h-4zm0,-11h4v-6h-4zm0,-12h4v-5h-4zm4,506h3v-6h-3zm0,-23h3v-12h-3zm0,-35h3v-6h-3zm0,-11h3v-6h-3zm0,-46h3v-6h-3zm0,-23h3v-6h-3zm0,-35h3v-5h-3zm0,-34h3v-12h-3zm0,-23h3v-6h-3zm0,-35h3v-11h-3zm0,-28h3v-6h-3zm0,-12h3v-5h-3zm0,-11h3v-6h-3zm0,-17h3v-6h-3zm0,-12h3v-6h-3zm0,-11h3v-12h-3zm0,-23h3v-6h-3zm0,-12h3v-6h-3zm0,-17h3v-6h-3zm0,-23h3v-6h-3zm0,-17h3v-6h-3zm0,-40h3v-12h-3zm0,-35h3v-6h-3zm0,-29h3v-11h-3zm3,540h4v-6h-4zm0,-23h4v-23h-4zm0,-57h4v-12h-4zm0,-23h4v-17h-4zm0,-23h4v-6h-4zm0,-12h4v-5h-4zm0,-17h4v-6h-4zm0,-17h4v-6h-4zm0,-17h4v-18h-4zm0,-29h4v-6h-4zm0,-12h4v-5h-4zm0,-11h4v-17h-4zm0,-29h4v-5h-4zm0,-23h4v-11h-4zm0,-17h4v-34h-4zm0,-40h4v-17h-4zm0,-23h4v-12h-4zm0,-23h4v-6h-4zm0,-17h4v-6h-4zm0,-17h4v-6h-4zm0,-35h4v-6h-4zm0,-11h4v-18h-4zm0,-23h4v-12h-4zm0,-18h4v-5h-4zm0,-11h4v-6h-4zm0,-12h4v-5h-4zm4,563h4v-11h-4zm0,-17h4v-6h-4zm0,-40h4v-6h-4zm0,-29h4v-6h-4zm0,-12h4v-11h-4zm0,-23h4v-11h-4zm0,-17h4v-5h-4zm0,-46h4v-5h-4zm0,-11h4v-23h-4zm0,-29h4v-6h-4zm0,-29h4v-11h-4zm0,-17h4v-6h-4zm0,-23h4v-5h-4zm0,-17h4v-11h-4zm0,-17h4v-12h-4zm0,-23h4v-6h-4zm0,-17h4v-6h-4zm0,-35h4v-6h-4zm0,-17h4v-6h-4zm0,-17h4v-6h-4zm0,-12h4v-28h-4zm0,-46h4v-28h-4zm0,-40h4v-6h-4zm4,534h3v-6h-3zm0,-11h3v-12h-3zm0,-18h3v-5h-3zm0,-11h3v-6h-3zm0,-121h3v-5h-3zm0,-23h3v-5h-3zm0,-34h3v-6h-3zm0,-23h3v-6h-3zm0,-29h3v-17h-3zm0,-34h3v-35h-3zm0,-40h3v-6h-3zm0,-23h3v-6h-3zm0,-12h3v-11h-3zm0,-17h3v-17h-3zm0,-23h3v-6h-3zm0,-17h3v-12h-3zm0,-17h3v-12h-3zm0,-41h3v-17h-3zm0,-34h3v-17h-3zm0,-29h3v-11h-3zm3,546h4v-6h-4zm0,-23h4v-23h-4zm0,-87h4v-11h-4zm0,-40h4v-5h-4zm0,-11h4v-6h-4zm0,-17h4v-18h-4zm0,-29h4v-6h-4zm0,-12h4v-23h-4zm0,-28h4v-6h-4zm0,-18h4v-5h-4zm0,-11h4v-52h-4zm0,-75h4v-5h-4zm0,-11h4v-6h-4zm0,-29h4v-6h-4zm0,-23h4v-11h-4zm0,-17h4v-6h-4zm0,-17h4v-12h-4zm0,-17h4v-6h-4zm0,-46h4v-12h-4zm0,-41h4v-5h-4zm4,552h3v-6h-3zm0,-52h3v-6h-3zm0,-40h3v-6h-3zm0,-12h3v-6h-3zm0,-23h3v-5h-3zm0,-57h3v-6h-3zm0,-35h3v-5h-3zm0,-11h3v-17h-3zm0,-23h3v-6h-3zm0,-17h3v-52h-3zm0,-63h3v-6h-3zm0,-12h3v-6h-3zm0,-52h3v-17h-3zm0,-22h3v-12h-3zm0,-18h3v-5h-3zm0,-51h3v-12h-3zm0,-23h3v-12h-3zm0,-18h3v-5h-3zm3,517h4v-23h-4zm0,-29h4v-5h-4zm0,-17h4v-6h-4zm0,-29h4v-5h-4zm0,-28h4v-17h-4zm0,-29h4v-6h-4zm0,-11h4v-12h-4zm0,-23h4v-6h-4zm0,-18h4v-11h-4zm0,-46h4v-28h-4zm0,-34h4v-17h-4zm0,-23h4v-11h-4zm0,-23h4v-11h-4zm0,-23h4v-6h-4zm0,-34h4v-6h-4zm0,-18h4v-5h-4zm0,-17h4v-5h-4zm0,-28h4v-6h-4zm0,-23h4v-6h-4zm0,-12h4v-6h-4zm0,-17h4v-6h-4zm0,-29h4v-11h-4zm4,534h3v-6h-3zm0,-11h3v-6h-3zm0,-12h3v-6h-3zm0,-11h3v-12h-3zm0,-64h3v-5h-3zm0,-40h3v-17h-3zm0,-23h3v-5h-3zm0,-11h3v-17h-3zm0,-29h3v-17h-3zm0,-29h3v-5h-3zm0,-11h3v-35h-3zm0,-40h3v-12h-3zm0,-23h3v-17h-3zm0,-35h3v-28h-3zm0,-51h3v-18h-3zm0,-23h3v-35h-3zm0,-52h3v-17h-3zm0,-29h3v-5h-3zm0,-34h3v-12h-3zm0,-17h3v-12h-3zM262,6h3v-6h-3zm3,568h4v-23h-4zm0,-29h4v-5h-4zm0,-11h4v-6h-4zm0,-12h4v-5h-4zm0,-17h4v-6h-4zm0,-46h4v-11h-4zm0,-34h4v-12h-4zm0,-29h4v-6h-4zm0,-23h4v-6h-4zm0,-11h4v-12h-4zm0,-18h4v-5h-4zm0,-23h4v-5h-4zm0,-11h4v-23h-4zm0,-29h4v-40h-4zm0,-63h4v-34h-4zm0,-40h4v-12h-4zm0,-17h4v-35h-4zm0,-46h4v-29h-4zm0,-35h4v-5h-4zm0,-11h4v-12h-4zm0,-17h4v-29h-4zm4,511h3v-12h-3zm0,-23h3v-6h-3zm0,-41h3v-5h-3zm0,-46h3v-5h-3zm0,-22h3v-6h-3zm0,-18h3v-11h-3zm0,-17h3v-6h-3zm0,-17h3v-35h-3zm0,-46h3v-23h-3zm0,-35h3v-5h-3zm0,-11h3v-11h-3zm0,-17h3v-6h-3zm0,-12h3v-5h-3zm0,-11h3v-12h-3zm0,-17h3v-6h-3zm0,-12h3v-11h-3zm0,-23h3v-6h-3zm0,-11h3v-23h-3zm0,-40h3v-52h-3zm0,-69h3v-12h-3zm0,-18h3v-28h-3zm0,-34h3v-12h-3zm3,551h4v-6h-4zm0,-17h4v-12h-4zm0,-29h4v-6h-4zm0,-11h4v-12h-4zm0,-75h4v-6h-4zm0,-11h4v-6h-4zm0,-12h4v-6h-4zm0,-11h4v-6h-4zm0,-18h4v-5h-4zm0,-11h4v-35h-4zm0,-52h4v-69h-4zm0,-74h4v-58h-4zm0,-64h4v-11h-4zm0,-28h4v-23h-4zm0,-29h4v-29h-4zm0,-40h4v-29h-4zm0,-35h4v-17h-4zm0,-40h4v-6h-4zM272,6h4v-6h-4zm4,551h3v-6h-3zm0,-12h3v-17h-3zm0,-28h3v-6h-3zm0,-35h3v-6h-3zm0,-23h3v-6h-3zm0,-11h3v-6h-3zm0,-12h3v-5h-3zm0,-23h3v-28h-3zm0,-40h3v-23h-3zm0,-29h3v-11h-3zm0,-23h3v-17h-3zm0,-23h3v-34h-3zm0,-45h3v-12h-3zm0,-18h3v-11h-3zm0,-23h3v-17h-3zm0,-34h3v-29h-3zm0,-40h3v-23h-3zm0,-29h3v-6h-3zm0,-11h3v-12h-3zm0,-18h3v-17h-3zm0,-23h3v-28h-3zm0,-34h3v-6h-3zm3,545h4v-11h-4zm0,-17h4v-11h-4zm0,-17h4v-12h-4zm0,-35h4v-11h-4zm0,-28h4v-6h-4zm0,-18h4v-5h-4zm0,-11h4v-6h-4zm0,-11h4v-41h-4zm0,-52h4v-6h-4zm0,-12h4v-5h-4zm0,-11h4v-29h-4zm0,-46h4v-23h-4zm0,-34h4v-12h-4zm0,-18h4v-74h-4zm0,-80h4v-17h-4zm0,-29h4v-11h-4zm0,-17h4v-23h-4zm0,-40h4v-6h-4zm0,-17h4v-12h-4zm0,-18h4v-17h-4zm0,-23h4v-5h-4zm0,-17h4v-17h-4zm4,557h3v-34h-3zm0,-40h3v-12h-3zm0,-17h3v-6h-3zm0,-18h3v-5h-3zm0,-11h3v-6h-3zm0,-40h3v-12h-3zm0,-17h3v-6h-3zm0,-12h3v-6h-3zm0,-23h3v-23h-3zm0,-29h3v-5h-3zm0,-11h3v-23h-3zm0,-35h3v-40h-3zm0,-51h3v-29h-3zm0,-35h3v-17h-3zm0,-23h3v-11h-3zm0,-17h3v-11h-3zm0,-17h3v-23h-3zm0,-29h3v-69h-3zm0,-74h3v-12h-3zm0,-18h3v-34h-3zm0,-40h3v-17h-3zm3,557h4v-17h-4zm0,-23h4v-6h-4zm0,-34h4v-6h-4zm0,-46h4v-6h-4zm0,-12h4v-6h-4zm0,-28h4v-6h-4zm0,-18h4v-34h-4zm0,-40h4v-132h-4zm0,-143h4v-6h-4zm0,-12h4v-23h-4zm0,-34h4v-109h-4zM286,63h4v-11h-4zm0,-17h4v-17h-4zM286,6h4v-6h-4zm4,528h4v-6h-4zm0,-40h4v-6h-4zm0,-18h4v-5h-4zm0,-17h4v-6h-4zm0,-28h4v-12h-4zm0,-18h4v-11h-4zm0,-17h4v-6h-4zm0,-11h4v-29h-4zm0,-35h4v-103h-4zm0,-109h4v-11h-4zm0,-17h4v-40h-4zm0,-46h4v-109h-4zM290,57h4v-5h-4zm0,-17h4v-6h-4zm0,-17h4v-12h-4zM290,6h4v-6h-4zm4,568h3v-17h-3zm0,-23h3v-17h-3zm0,-23h3v-11h-3zm0,-34h3v-12h-3zm0,-29h3v-6h-3zm0,-40h3v-6h-3zm0,-17h3v-6h-3zm0,-12h3v-6h-3zm0,-11h3v-29h-3zm0,-41h3v-11h-3zm0,-23h3v-97h-3zm0,-103h3v-6h-3zm0,-11h3v-18h-3zm0,-23h3v-29h-3zm0,-35h3v-63h-3zm0,-69h3v-28h-3zm0,-34h3v-29h-3zm0,-35h3v-11h-3zm3,563h4v-6h-4zm0,-11h4v-12h-4zm0,-18h4v-11h-4zm0,-34h4v-6h-4zm0,-17h4v-6h-4zm0,-58h4v-40h-4zm0,-46h4v-23h-4zm0,-40h4v-97h-4zm0,-109h4v-11h-4zm0,-29h4v-5h-4zm0,-11h4v-29h-4zm0,-35h4v-114h-4zM297,34h4v-28h-4zm4,540h3v-6h-3zm0,-11h3v-18h-3zm0,-23h3v-6h-3zm0,-12h3v-11h-3zm0,-34h3v-6h-3zm0,-23h3v-12h-3zm0,-23h3v-6h-3zm0,-12h3v-17h-3zm0,-28h3v-69h-3zm0,-75h3v-109h-3zm0,-115h3v-86h-3zm0,-92h3v-86h-3zm0,-92h3v-17h-3zM301,6h3v-6h-3zm3,568h4v-17h-4zm0,-34h4v-6h-4zm0,-29h4v-6h-4zm0,-23h4v-12h-4zm0,-17h4v-6h-4zm0,-46h4v-6h-4zm0,-12h4v-28h-4zm0,-34h4v-155h-4zm0,-161h4v-40h-4zm0,-46h4v-46h-4zm0,-51h4v-12h-4zm0,-18h4v-23h-4zm0,-28h4v-12h-4zm0,-18h4v-17h-4zm0,-23h4v-23h-4zm4,540h3v-17h-3zm0,-23h3v-6h-3zm0,-23h3v-6h-3zm0,-11h3v-6h-3zm0,-18h3v-5h-3zm0,-34h3v-6h-3zm0,-23h3v-6h-3zm0,-11h3v-12h-3zm0,-23h3v-23h-3zm0,-29h3v-81h-3zm0,-86h3v-29h-3zm0,-35h3v-40h-3zm0,-46h3v-166h-3zM308,40h3v-11h-3zm0,-17h3v-17h-3zm3,551h4v-17h-4zm0,-23h4v-6h-4zm0,-34h4v-12h-4zm0,-18h4v-5h-4zm0,-11h4v-6h-4zm0,-17h4v-6h-4zm0,-23h4v-12h-4zm0,-17h4v-6h-4zm0,-12h4v-6h-4zm0,-17h4v-23h-4zm0,-29h4v-57h-4zm0,-69h4v-11h-4zm0,-17h4v-11h-4zm0,-17h4v-6h-4zm0,-12h4v-97h-4zm0,-103h4v-11h-4zm0,-17h4v-81h-4zm0,-86h4v-41h-4zM311,6h4v-6h-4zm4,568h3v-11h-3zm0,-17h3v-17h-3zm0,-29h3v-6h-3zm0,-52h3v-11h-3zm0,-28h3v-6h-3zm0,-12h3v-5h-3zm0,-11h3v-17h-3zm0,-23h3v-17h-3zm0,-29h3v-40h-3zm0,-46h3v-23h-3zm0,-29h3v-86h-3zm0,-91h3v-12h-3zm0,-18h3v-132h-3zM315,52h3v-35h-3zm0,-41h3v-11h-3zm3,557h4v-11h-4zm0,-17h4v-6h-4zm0,-11h4v-18h-4zm0,-35h4v-11h-4zm0,-40h4v-6h-4zm0,-12h4v-17h-4zm0,-28h4v-6h-4zm0,-12h4v-5h-4zm0,-11h4v-23h-4zm0,-35h4v-126h-4zm0,-132h4v-11h-4zm0,-17h4v-166h-4zM318,46h4v-6h-4zm0,-17h4v-29h-4zm4,539h3v-23h-3zm0,-28h3v-6h-3zm0,-12h3v-6h-3zm0,-17h3v-6h-3zm0,-23h3v-6h-3zm0,-12h3v-11h-3zm0,-17h3v-6h-3zm0,-28h3v-6h-3zm0,-12h3v-143h-3zm0,-149h3v-40h-3zm0,-52h3v-212h-3zm3,356h4v-11h-4zm0,-23h4v-11h-4zm0,-23h4v-11h-4zm0,-29h4v-11h-4zm0,-23h4v-5h-4zm0,-17h4v-6h-4zm0,-11h4v-12h-4zm0,-23h4v-6h-4zm0,-12h4v-74h-4zm0,-80h4v-52h-4zm0,-57h4v-6h-4zm0,-12h4v-235h-4zM325,23h4v-17h-4zm4,551h3v-17h-3zm0,-23h3v-11h-3zm0,-17h3v-6h-3zm0,-12h3v-23h-3zm0,-34h3v-17h-3zm0,-23h3v-12h-3zm0,-17h3v-6h-3zm0,-12h3v-5h-3zm0,-17h3v-29h-3zm0,-40h3v-86h-3zm0,-92h3v-172h-3zm0,-178h3v-29h-3zm0,-34h3v-75h-3zm3,499h4v-6h-4zm0,-11h4v-23h-4zm0,-29h4v-12h-4zm0,-17h4v-6h-4zm0,-12h4v-11h-4zm0,-29h4v-28h-4zm0,-40h4v-46h-4zm0,-51h4v-322h-4zM332,57h4v-5h-4zm0,-11h4v-46h-4zm4,528h3v-29h-3zm0,-34h3v-6h-3zm0,-12h3v-17h-3zm0,-34h3v-41h-3zm0,-46h3v-17h-3zm0,-23h3v-63h-3zm0,-69h3v-333h-3zM336,17h3v-17h-3zm3,557h4v-29h-4zm0,-40h4v-6h-4zm0,-17h4v-23h-4zm0,-35h4v-69h-4zm0,-74h4v-356h-4zM339,46h4v-40h-4zm4,528h4v-52h-4zm0,-63h4v-12h-4zm0,-17h4v-465h-4zM343,17h4v-17h-4zm4,557h3v-6h-3zm0,-17h3v-557h-3zm3,17h4v-109h-4zm0,-115h4v-459h-4zm4,115h3v-574h-3zm3,0h4v-574h-4zm4,0h3v-574h-3zm3,0h4v-574h-4zm4,0h3v-574h-3zm3,0h4v-574h-4zm4,0h3v-574h-3zm3,0h4v-574h-4zm4,0h3v-574h-3zm3,0h4v-574h-4zm4,0h4v-574h-4zm4,0h3v-574h-3zm3,0h4v-574h-4zm4,0h3v-574h-3zm3,0h4v-574h-4zm4,0h3v-574h-3zm3,0h4v-574h-4zm4,0h3v-574h-3zm3,0h4v-574h-4zm4,0h3v-574h-3zm3,0h4v-574h-4zm4,0h3v-574h-3zm3,0h4v-574h-4zm4,0h4v-574h-4zm4,0h3v-574h-3zm3,0h4v-574h-4zm4,0h3v-574h-3zm3,0h4v-574h-4zm4,0h3v-574h-3zm3,0h4v-574h-4zm4,0h3v-574h-3zm3,0h4v-574h-4zm4,0h3v-574h-3zm3,0h4v-574h-4zm4,0h3v-574h-3zm3,0h4v-574h-4zm4,0h3v-574h-3zm3,0h4v-574h-4zm4,0h4v-574h-4zm4,0h3v-574h-3zm3,0h4v-574h-4zm4,0h3v-574h-3zm3,0h4v-574h-4zm4,0h3v-574h-3zm3,0h4v-574h-4zm4,0h3v-574h-3zm3,0h4v-574h-4zm4,0h3v-574h-3zm3,0h4v-574h-4zm4,0h3v-574h-3zm3,0h4v-17h-4zm0,-69h4v-11h-4zm0,-40h4v-40h-4zm0,-109h4v-92h-4zm0,-138h4v-218h-4zm4,356h4v-63h-4zm0,-69h4v-6h-4zm0,-80h4v-86h-4zm0,-178h4v-12h-4zm0,-103h4v-144h-4zm4,430h3v-574h-3zm3,0h4v-574h-4zm4,0h3v-574h-3zm3,0h4v-574h-4zm4,0h3v-574h-3zm3,0h4v-574h-4zm4,0h3v-574h-3zm3,0h4v-574h-4zm4,0h3v-574h-3zm3,0h4v-574h-4zm4,0h3v-574h-3zm3,0h4v-574h-4zm4,0h4v-574h-4zm4,0h3v-574h-3zm3,0h4v-574h-4zm4,0h3v-574h-3zm3,0h4v-574h-4zm4,0h3v-574h-3zm3,0h4v-574h-4zm4,0h3v-574h-3zm3,0h4v-574h-4zm4,0h3v-574h-3zm3,0h4v-574h-4zm4,0h3v-574h-3zm3,0h4v-574h-4zm4,0h3v-574h-3zm3,0h4v-574h-4zm4,0h4v-574h-4zm4,0h3v-574h-3zm3,0h4v-574h-4zm4,0h3v-574h-3zm3,0h4v-574h-4zm4,0h3v-574h-3zm3,0h4v-574h-4zm4,0h3v-574h-3zm3,0h4v-574h-4zm4,0h3v-574h-3zm3,0h4v-574h-4zm4,0h3v-574h-3zm3,0h4v-574h-4zm4,0h4v-574h-4zm4,0h3v-574h-3zm3,0h4v-574h-4zm4,0h3v-574h-3zm3,0h4v-574h-4zm4,0h3v-574h-3zm3,0h4v-574h-4zm4,0h3v-574h-3zm3,0h4v-574h-4zm4,0h3v-574h-3zm3,0h4v-442h-4zm0,-448h4v-126h-4zm4,448h3v-46h-3zm0,-52h3v-424h-3zM718,92h3v-40h-3zm0,-46h3v-46h-3zm3,528h4v-29h-4zm0,-34h4v-6h-4zm0,-12h4v-6h-4zm0,-11h4v-41h-4zm0,-46h4v-35h-4zm0,-40h4v-196h-4zm0,-201h4v-64h-4zm0,-69h4v-115h-4zM721,40h4v-40h-4zm4,534h4v-34h-4zm0,-40h4v-23h-4zm0,-29h4v-17h-4zm0,-23h4v-29h-4zm0,-34h4v-17h-4zm0,-23h4v-12h-4zm0,-17h4v-385h-4zM725,17h4v-17h-4zm4,557h3v-17h-3zm0,-23h3v-11h-3zm0,-17h3v-98h-3zm0,-103h3v-431h-3zm3,137h4v-28h-4zm0,-34h4v-12h-4zm0,-17h4v-12h-4zm0,-18h4v-5h-4zm0,-11h4v-52h-4zm0,-57h4v-219h-4zm0,-224h4v-23h-4zm0,-29h4v-178h-4zm4,390h3v-5h-3zm0,-11h3v-17h-3zm0,-23h3v-17h-3zm0,-29h3v-6h-3zm0,-11h3v-35h-3zm0,-52h3v-6h-3zm0,-11h3v-431h-3zm3,143h4v-23h-4zm0,-29h4v-5h-4zm0,-17h4v-6h-4zm0,-11h4v-12h-4zm0,-35h4v-23h-4zm0,-29h4v-5h-4zm0,-11h4v-6h-4zm0,-11h4v-6h-4zm0,-12h4v-230h-4zm0,-235h4v-132h-4zM739,46h4v-23h-4zm0,-29h4v-17h-4zm4,557h3v-57h-3zm0,-92h3v-6h-3zm0,-46h3v-11h-3zm0,-23h3v-57h-3zm0,-63h3v-86h-3zm0,-92h3v-74h-3zm0,-92h3v-120h-3zM743,40h3v-17h-3zm0,-29h3v-5h-3zm3,563h4v-6h-4zm0,-11h4v-6h-4zm0,-23h4v-6h-4zm0,-29h4v-6h-4zm0,-12h4v-5h-4zm0,-17h4v-17h-4zm0,-23h4v-11h-4zm0,-28h4v-12h-4zm0,-18h4v-46h-4zm0,-51h4v-127h-4zm0,-132h4v-41h-4zm0,-52h4v-178h-4zm4,396h3v-6h-3zm0,-11h3v-18h-3zm0,-41h3v-5h-3zm0,-17h3v-11h-3zm0,-29h3v-11h-3zm0,-17h3v-11h-3zm0,-17h3v-6h-3zm0,-11h3v-12h-3zm0,-18h3v-34h-3zm0,-40h3v-40h-3zm0,-46h3v-132h-3zm0,-138h3v-155h-3zM750,29h3v-29h-3zm3,545h4v-11h-4zm0,-17h4v-6h-4zm0,-12h4v-5h-4zm0,-11h4v-6h-4zm0,-23h4v-12h-4zm0,-35h4v-5h-4zm0,-23h4v-5h-4zm0,-51h4v-132h-4zm0,-138h4v-11h-4zm0,-23h4v-75h-4zm0,-80h4v-35h-4zm0,-46h4v-29h-4zm0,-35h4v-34h-4zm0,-40h4v-34h-4zm4,528h3v-11h-3zm0,-23h3v-5h-3zm0,-17h3v-17h-3zm0,-52h3v-11h-3zm0,-34h3v-6h-3zm0,-23h3v-6h-3zm0,-11h3v-52h-3zm0,-58h3v-138h-3zm0,-143h3v-12h-3zm0,-18h3v-28h-3zm0,-34h3v-11h-3zm0,-17h3v-52h-3zm0,-58h3v-63h-3zm3,494h4v-11h-4zm0,-17h4v-12h-4zm0,-17h4v-6h-4zm0,-35h4v-11h-4zm0,-40h4v-6h-4zm0,-29h4v-23h-4zm0,-28h4v-29h-4zm0,-35h4v-52h-4zm0,-57h4v-104h-4zm0,-115h4v-29h-4zm0,-35h4v-126h-4zM760,34h4v-34h-4zm4,540h3v-23h-3zm0,-34h3v-6h-3zm0,-12h3v-11h-3zm0,-69h3v-6h-3zm0,-11h3v-6h-3zm0,-23h3v-23h-3zm0,-29h3v-6h-3zm0,-17h3v-98h-3zm0,-103h3v-35h-3zm0,-41h3v-91h-3zm0,-97h3v-35h-3zm0,-40h3v-64h-3zm0,-69h3v-18h-3zM764,6h3v-6h-3zm3,568h4v-6h-4zm0,-11h4v-29h-4zm0,-69h4v-6h-4zm0,-12h4v-6h-4zm0,-40h4v-6h-4zm0,-11h4v-6h-4zm0,-18h4v-23h-4zm0,-28h4v-18h-4zm0,-23h4v-178h-4zm0,-190h4v-6h-4zm0,-11h4v-40h-4zm0,-46h4v-69h-4zm0,-75h4v-34h-4zm4,534h3v-6h-3zm0,-11h3v-12h-3zm0,-58h3v-6h-3zm0,-23h3v-6h-3zm0,-11h3v-6h-3zm0,-18h3v-5h-3zm0,-11h3v-23h-3zm0,-29h3v-17h-3zm0,-28h3v-52h-3zm0,-64h3v-5h-3zm0,-11h3v-6h-3zm0,-17h3v-29h-3zm0,-35h3v-11h-3zm0,-17h3v-46h-3zm0,-57h3v-12h-3zm0,-18h3v-5h-3zm0,-11h3v-40h-3zm0,-46h3v-11h-3zm0,-17h3v-35h-3zm0,-40h3v-12h-3zm0,-18h3v-5h-3zm0,-17h3v-6h-3zm3,528h4v-5h-4zm0,-11h4v-12h-4zm0,-17h4v-6h-4zm0,-12h4v-6h-4zm0,-52h4v-5h-4zm0,-11h4v-6h-4zm0,-11h4v-18h-4zm0,-23h4v-18h-4zm0,-41h4v-5h-4zm0,-11h4v-12h-4zm0,-17h4v-29h-4zm0,-35h4v-57h-4zm0,-63h4v-34h-4zm0,-40h4v-17h-4zm0,-23h4v-17h-4zm0,-23h4v-40h-4zm0,-46h4v-23h-4zm0,-29h4v-11h-4zm0,-23h4v-34h-4zm0,-40h4v-17h-4zm4,540h4v-12h-4zm0,-23h4v-6h-4zm0,-12h4v-5h-4zm0,-17h4v-11h-4zm0,-40h4v-17h-4zm0,-23h4v-6h-4zm0,-11h4v-6h-4zm0,-18h4v-11h-4zm0,-17h4v-57h-4zm0,-63h4v-6h-4zm0,-12h4v-11h-4zm0,-17h4v-80h-4zm0,-86h4v-46h-4zm0,-52h4v-34h-4zm0,-40h4v-5h-4zm0,-11h4v-12h-4zm0,-23h4v-12h-4zm0,-17h4v-18h-4zm0,-23h4v-6h-4zm0,-12h4v-11h-4zm0,-17h4v-12h-4zm4,551h3v-17h-3zm0,-29h3v-5h-3zm0,-11h3v-12h-3zm0,-92h3v-6h-3zm0,-17h3v-29h-3zm0,-35h3v-5h-3zm0,-17h3v-11h-3zm0,-17h3v-17h-3zm0,-23h3v-12h-3zm0,-17h3v-6h-3zm0,-18h3v-5h-3zm0,-11h3v-6h-3zm0,-11h3v-29h-3zm0,-35h3v-6h-3zm0,-23h3v-92h-3zm0,-97h3v-6h-3zm0,-12h3v-6h-3zm0,-11h3v-6h-3zm0,-18h3v-17h-3zm0,-23h3v-11h-3zm0,-23h3v-5h-3zm0,-11h3v-6h-3zm0,-12h3v-11h-3zm3,563h4v-17h-4zm0,-29h4v-5h-4zm0,-11h4v-6h-4zm0,-23h4v-12h-4zm0,-23h4v-6h-4zm0,-17h4v-6h-4zm0,-18h4v-11h-4zm0,-17h4v-17h-4zm0,-23h4v-5h-4zm0,-11h4v-6h-4zm0,-12h4v-5h-4zm0,-11h4v-23h-4zm0,-29h4v-11h-4zm0,-17h4v-12h-4zm0,-17h4v-6h-4zm0,-12h4v-63h-4zm0,-74h4v-29h-4zm0,-35h4v-69h-4zm0,-74h4v-29h-4zm0,-35h4v-11h-4zm0,-17h4v-12h-4zm0,-17h4v-29h-4zm0,-41h4v-11h-4zm4,552h3v-6h-3zm0,-12h3v-6h-3zm0,-23h3v-6h-3zm0,-11h3v-6h-3zm0,-18h3v-5h-3zm0,-34h3v-6h-3zm0,-23h3v-11h-3zm0,-17h3v-6h-3zm0,-12h3v-28h-3zm0,-40h3v-6h-3zm0,-23h3v-40h-3zm0,-46h3v-6h-3zm0,-11h3v-23h-3zm0,-29h3v-17h-3zm0,-23h3v-6h-3zm0,-17h3v-46h-3zm0,-52h3v-6h-3zm0,-17h3v-23h-3zm0,-29h3v-23h-3zm0,-28h3v-29h-3zm0,-35h3v-34h-3zm0,-40h3v-6h-3zm0,-12h3v-11h-3zm3,563h4v-11h-4zm0,-34h4v-6h-4zm0,-69h4v-6h-4zm0,-35h4v-5h-4zm0,-28h4v-12h-4zm0,-18h4v-5h-4zm0,-28h4v-41h-4zm0,-52h4v-6h-4zm0,-12h4v-11h-4zm0,-22h4v-18h-4zm0,-23h4v-12h-4zm0,-18h4v-5h-4zm0,-11h4v-12h-4zm0,-17h4v-35h-4zm0,-41h4v-22h-4zm0,-28h4v-29h-4zm0,-35h4v-17h-4zm0,-23h4v-11h-4zm0,-34h4v-17h-4zm0,-29h4v-6h-4zM792,6h4v-6h-4zm4,562h3v-5h-3zm0,-11h3v-6h-3zm0,-23h3v-6h-3zm0,-17h3v-6h-3zm0,-35h3v-6h-3zm0,-17h3v-6h-3zm0,-63h3v-17h-3zm0,-29h3v-17h-3zm0,-23h3v-6h-3zm0,-17h3v-12h-3zm0,-17h3v-6h-3zm0,-12h3v-17h-3zm0,-23h3v-17h-3zm0,-23h3v-51h-3zm0,-57h3v-6h-3zm0,-23h3v-34h-3zm0,-40h3v-6h-3zm0,-17h3v-6h-3zm0,-18h3v-5h-3zm0,-23h3v-28h-3zm0,-34h3v-6h-3zm0,-29h3v-6h-3zm3,557h4v-6h-4zm0,-23h4v-23h-4zm0,-69h4v-6h-4zm0,-17h4v-6h-4zm0,-23h4v-6h-4zm0,-17h4v-6h-4zm0,-40h4v-6h-4zm0,-18h4v-11h-4zm0,-17h4v-11h-4zm0,-17h4v-17h-4zm0,-29h4v-6h-4zm0,-11h4v-17h-4zm0,-23h4v-12h-4zm0,-17h4v-29h-4zm0,-41h4v-5h-4zm0,-11h4v-12h-4zm0,-29h4v-74h-4zm0,-80h4v-29h-4zm0,-40h4v-18h-4zm0,-29h4v-12h-4zM799,6h4v-6h-4zm4,545h3v-11h-3zm0,-23h3v-6h-3zm0,-57h3v-6h-3zm0,-18h3v-11h-3zm0,-34h3v-6h-3zm0,-23h3v-6h-3zm0,-29h3v-5h-3zm0,-23h3v-11h-3zm0,-17h3v-63h-3zm0,-80h3v-12h-3zm0,-23h3v-17h-3zm0,-23h3v-17h-3zm0,-35h3v-5h-3zm0,-11h3v-6h-3zm0,-11h3v-12h-3zm0,-18h3v-17h-3zm0,-34h3v-12h-3zm0,-40h3v-12h-3zm0,-18h3v-17h-3zm3,534h4v-11h-4zm0,-17h4v-6h-4zm0,-11h4v-6h-4zm0,-18h4v-11h-4zm0,-57h4v-6h-4zm0,-34h4v-29h-4zm0,-46h4v-6h-4zm0,-12h4v-29h-4zm0,-52h4v-11h-4zm0,-28h4v-6h-4zm0,-12h4v-5h-4zm0,-17h4v-6h-4zm0,-11h4v-18h-4zm0,-35h4v-11h-4zm0,-17h4v-6h-4zm0,-12h4v-5h-4zm0,-34h4v-6h-4zm0,-11h4v-18h-4zm0,-35h4v-11h-4zm0,-23h4v-6h-4zm0,-11h4v-6h-4zm0,-18h4v-11h-4zm0,-17h4v-6h-4zm0,-11h4v-23h-4zm4,534h3v-6h-3zm0,-64h3v-5h-3zm0,-17h3v-6h-3zm0,-74h3v-6h-3zm0,-12h3v-6h-3zm0,-11h3v-6h-3zm0,-41h3v-11h-3zm0,-17h3v-6h-3zm0,-29h3v-5h-3zm0,-11h3v-6h-3zm0,-11h3v-18h-3zm0,-46h3v-6h-3zm0,-12h3v-6h-3zm0,-11h3v-6h-3zm0,-12h3v-17h-3zm0,-23h3v-11h-3zm0,-34h3v-6h-3zm0,-12h3v-17h-3zm0,-40h3v-11h-3zm0,-23h3v-6h-3zm0,-23h3v-6h-3zm0,-11h3v-6h-3zm0,-12h3v-17h-3zm3,551h4v-5h-4zm0,-28h4v-12h-4zm0,-23h4v-12h-4zm0,-52h4v-6h-4zm0,-34h4v-12h-4zm0,-23h4v-6h-4zm0,-23h4v-6h-4zm0,-46h4v-6h-4zm0,-12h4v-6h-4zm0,-17h4v-6h-4zm0,-12h4v-11h-4zm0,-28h4v-6h-4zm0,-35h4v-11h-4zm0,-28h4v-6h-4zm0,-18h4v-28h-4zm0,-40h4v-5h-4zm0,-23h4v-5h-4zm0,-17h4v-6h-4zm0,-29h4v-11h-4zm0,-46h4v-5h-4zm0,-11h4v-6h-4zM813,6h4v-6h-4zm4,562h3v-5h-3zm0,-11h3v-6h-3zm0,-12h3v-11h-3zm0,-97h3v-12h-3zm0,-23h3v-6h-3zm0,-12h3v-23h-3zm0,-28h3v-6h-3zm0,-46h3v-18h-3zm0,-23h3v-6h-3zm0,-18h3v-5h-3zm0,-17h3v-11h-3zm0,-17h3v-29h-3zm0,-34h3v-12h-3zm0,-18h3v-5h-3zm0,-11h3v-23h-3zm0,-29h3v-11h-3zm0,-23h3v-5h-3zm0,-11h3v-12h-3zm0,-23h3v-12h-3zm0,-29h3v-11h-3zm0,-23h3v-6h-3zm0,-23h3v-6h-3zm3,528h4v-5h-4zm0,-34h4v-6h-4zm0,-23h4v-6h-4zm0,-35h4v-5h-4zm0,-28h4v-23h-4zm0,-29h4v-6h-4zm0,-29h4v-5h-4zm0,-28h4v-23h-4zm0,-29h4v-12h-4zm0,-23h4v-6h-4zm0,-12h4v-5h-4zm0,-11h4v-6h-4zm0,-17h4v-6h-4zm0,-17h4v-6h-4zm0,-23h4v-12h-4zm0,-23h4v-12h-4zm0,-18h4v-5h-4zm0,-11h4v-12h-4zm0,-17h4v-17h-4zm0,-23h4v-17h-4zm0,-29h4v-17h-4zm0,-23h4v-11h-4zm0,-46h4v-6h-4zm4,534h4v-6h-4zm0,-11h4v-6h-4zm0,-58h4v-6h-4zm0,-40h4v-6h-4zm0,-12h4v-11h-4zm0,-22h4v-6h-4zm0,-23h4v-6h-4zm0,-29h4v-6h-4zm0,-12h4v-11h-4zm0,-17h4v-6h-4zm0,-29h4v-5h-4zm0,-28h4v-6h-4zm0,-29h4v-6h-4zm0,-11h4v-12h-4zm0,-35h4v-11h-4zm0,-17h4v-17h-4zm0,-29h4v-17h-4zm0,-28h4v-18h-4zm0,-23h4v-12h-4zm0,-18h4v-5h-4zm0,-28h4v-6h-4zm0,-12h4v-6h-4zm0,-11h4v-6h-4zm0,-18h4v-11h-4zm0,-17h4v-6h-4zM824,6h4v-6h-4zm4,557h3v-6h-3zm0,-35h3v-6h-3zm0,-63h3v-6h-3zm0,-12h3v-11h-3zm0,-22h3v-6h-3zm0,-35h3v-6h-3zm0,-11h3v-6h-3zm0,-23h3v-12h-3zm0,-29h3v-6h-3zm0,-23h3v-6h-3zm0,-40h3v-17h-3zm0,-35h3v-5h-3zm0,-17h3v-6h-3zm0,-11h3v-6h-3zm0,-12h3v-6h-3zm0,-40h3v-29h-3zm0,-34h3v-6h-3zm0,-23h3v-12h-3zm0,-58h3v-6h-3zm0,-23h3v-6h-3zm3,557h4v-6h-4zm0,-46h4v-6h-4zm0,-120h4v-6h-4zm0,-18h4v-5h-4zm0,-63h4v-6h-4zm0,-63h4v-6h-4zm0,-29h4v-5h-4zm0,-46h4v-5h-4zm0,-11h4v-12h-4zm0,-17h4v-6h-4zm0,-23h4v-12h-4zm0,-58h4v-5h-4zm0,-23h4v-5h-4zm0,-17h4v-6h-4zm0,-17h4v-6h-4zm4,534h3v-6h-3zm0,-12h3v-5h-3zm0,-120h3v-6h-3zm0,-17h3v-6h-3zm0,-104h3v-6h-3zm0,-69h3v-5h-3zm0,-11h3v-17h-3zm0,-23h3v-12h-3zm0,-29h3v-6h-3zm0,-97h3v-6h-3zm3,447h4v-11h-4zm0,-57h4v-6h-4zm0,-69h4v-6h-4zm0,-115h4v-11h-4zm0,-23h4v-5h-4zm0,-57h4v-6h-4zm0,-35h4v-5h-4zm0,-57h4v-6h-4zm0,-63h4v-6h-4zm4,511h3v-6h-3zm0,-69h3v-6h-3zm0,-109h3v-23h-3zm0,-58h3v-11h-3zm0,-40h3v-5h-3zm0,-17h3v-11h-3zm0,-23h3v-29h-3zm0,-46h3v-6h-3zm0,-11h3v-6h-3zm0,-29h3v-6h-3zm0,-29h3v-5h-3zm0,-46h3v-11h-3zm0,-40h3v-6h-3zm0,-23h3v-6h-3zm3,546h4v-12h-4zm0,-110h4v-5h-4zm0,-103h4v-6h-4zm0,-29h4v-11h-4zm0,-23h4v-5h-4zm0,-17h4v-11h-4zm0,-17h4v-11h-4zm0,-23h4v-6h-4zm0,-11h4v-6h-4zm0,-29h4v-6h-4zm0,-69h4v-6h-4zm0,-23h4v-17h-4zm0,-52h4v-5h-4zm0,-23h4v-5h-4zm4,517h3v-6h-3zm0,-98h3v-5h-3zm0,-86h3v-5h-3zm0,-63h3v-6h-3zm0,-17h3v-11h-3zm0,-40h3v-6h-3zm0,-29h3v-6h-3zm0,-11h3v-6h-3zm0,-23h3v-6h-3zm0,-18h3v-5h-3zm0,-17h3v-17h-3zm0,-86h3v-11h-3zm0,-17h3v-6h-3zm3,522h4v-5h-4zm0,-155h4v-5h-4zm0,-69h4v-5h-4zm0,-63h4v-5h-4zm0,-23h4v-5h-4zm0,-97h4v-6h-4zm0,-23h4v-12h-4zm0,-23h4v-6h-4zm0,-35h4v-5h-4zm0,-34h4v-6h-4zm0,-29h4v-6h-4zm4,540h3v-6h-3zm0,-17h3v-6h-3zm0,-29h3v-6h-3zm0,-98h3v-5h-3zm0,-17h3v-6h-3zm0,-29h3v-5h-3zm0,-51h3v-18h-3zm0,-29h3v-6h-3zm0,-40h3v-6h-3zm0,-29h3v-6h-3zm0,-11h3v-6h-3zm0,-23h3v-6h-3zm0,-23h3v-12h-3zm0,-29h3v-6h-3zm0,-11h3v-6h-3zm0,-23h3v-6h-3zm0,-12h3v-11h-3zm0,-17h3v-12h-3zm0,-23h3v-6h-3zm0,-12h3v-11h-3zm0,-17h3v-6h-3zm3,551h4v-5h-4zm0,-97h4v-6h-4zm0,-86h4v-6h-4zm0,-81h4v-6h-4zm0,-17h4v-6h-4zm0,-23h4v-6h-4zm0,-17h4v-6h-4zm0,-23h4v-6h-4zm0,-17h4v-6h-4zm0,-29h4v-6h-4zm0,-69h4v-6h-4zm4,459h3v-5h-3zm0,-69h3v-5h-3zm0,-51h3v-6h-3zm0,-46h3v-6h-3zm0,-35h3v-5h-3zm0,-34h3v-6h-3zm0,-17h3v-6h-3zm0,-52h3v-11h-3zm0,-46h3v-6h-3zm0,-23h3v-6h-3zm0,-80h3v-12h-3zm0,-52h3v-11h-3zm3,327h4v-5h-4zm0,-23h4v-5h-4zm0,-63h4v-6h-4zm0,-34h4v-17h-4zm0,-98h4v-6h-4zm0,-11h4v-6h-4zm0,-17h4v-6h-4zm0,-69h4v-6h-4zM866,6h4v-6h-4zm4,539h3v-5h-3zm0,-23h3v-5h-3zm0,-69h3v-5h-3zm0,-51h3v-6h-3zm0,-40h3v-6h-3zm0,-64h3v-5h-3zm0,-40h3v-5h-3zm0,-17h3v-6h-3zm0,-57h3v-6h-3zm0,-35h3v-11h-3zm0,-57h3v-6h-3zm0,-29h3v-6h-3zm0,-23h3v-11h-3zm3,327h4v-5h-4zm0,-23h4v-5h-4zm0,-17h4v-6h-4zm0,-69h4v-17h-4zm0,-46h4v-5h-4zm0,-103h4v-6h-4zm0,-29h4v-5h-4zm0,-34h4v-6h-4zm4,304h4v-6h-4zm0,-23h4v-6h-4zm0,-34h4v-12h-4zm0,-98h4v-6h-4zm0,-40h4v-6h-4zm0,-57h4v-12h-4zm0,-23h4v-6h-4zm0,-23h4v-6h-4zm0,-35h4v-6h-4zm4,454h3v-6h-3zm0,-63h3v-6h-3zm0,-23h3v-6h-3zm0,-69h3v-6h-3zm0,-18h3v-5h-3zm0,-11h3v-6h-3zm0,-34h3v-12h-3zm0,-69h3v-6h-3zm0,-35h3v-11h-3zm0,-34h3v-6h-3zm0,-46h3v-6h-3zm0,-17h3v-6h-3zm0,-41h3v-5h-3zm3,408h4v-6h-4zm0,-57h4v-6h-4zm0,-64h4v-5h-4zm0,-34h4v-6h-4zm0,-23h4v-11h-4zm0,-40h4v-6h-4zm0,-17h4v-6h-4zm0,-86h4v-6h-4zm0,-12h4v-6h-4zm0,-23h4v-6h-4zM884,6h4v-6h-4zm4,562h3v-5h-3zm0,-69h3v-5h-3zm0,-28h3v-6h-3zm0,-52h3v-6h-3zm0,-34h3v-6h-3zm0,-35h3v-6h-3zm0,-46h3v-6h-3zm0,-17h3v-6h-3zm0,-17h3v-6h-3zm0,-29h3v-6h-3zm0,-17h3v-12h-3zm0,-29h3v-6h-3zm0,-23h3v-6h-3zm0,-97h3v-6h-3zm0,-64h3v-5h-3zm3,362h4v-11h-4zm0,-52h4v-5h-4zm0,-11h4v-6h-4zm0,-29h4v-5h-4zm0,-17h4v-6h-4zm0,-34h4v-6h-4zm0,-12h4v-6h-4zm0,-29h4v-11h-4zm0,-74h4v-6h-4zm0,-17h4v-6h-4zM891,6h4v-6h-4zm4,516h3v-5h-3zm0,-183h3v-6h-3zm0,-86h3v-6h-3zm0,-29h3v-6h-3zM895,92h3v-6h-3zm0,-23h3v-6h-3zm3,413h4v-6h-4zm0,-97h4v-6h-4zm0,-29h4v-6h-4zm0,-52h4v-6h-4zm0,-23h4v-5h-4zm0,-17h4v-6h-4zm0,-40h4v-6h-4zm0,-23h4v-6h-4zm0,-23h4v-6h-4zm0,-17h4v-6h-4zm0,-29h4v-6h-4zm0,-57h4v-6h-4zm0,-18h4v-5h-4zm0,-17h4v-6h-4zm4,523h3v-6h-3zm0,-155h3v-6h-3zm0,-29h3v-6h-3zm0,-12h3v-5h-3zm0,-160h3v-6h-3zm0,-23h3v-6h-3zm0,-35h3v-5h-3zm0,-11h3v-6h-3zm0,-29h3v-6h-3zm0,-69h3v-6h-3zm3,517h4v-6h-4zm0,-184h4v-6h-4zm0,-86h4v-6h-4zm0,-52h4v-5h-4zm0,-23h4v-5h-4zm0,-11h4v-6h-4zm0,-23h4v-12h-4zm0,-63h4v-12h-4zm0,-29h4v-6h-4zm4,316h3v-6h-3zm0,-104h3v-5h-3zm0,-103h3v-6h-3zm0,-40h3v-6h-3zm0,-57h3v-6h-3zm0,-69h3v-6h-3zm3,528h4v-6h-4zm0,-201h4v-6h-4zm0,-58h4v-5h-4zm0,-22h4v-6h-4zm0,-12h4v-6h-4zm0,-11h4v-6h-4zm0,-46h4v-6h-4zm0,-12h4v-6h-4zm0,-40h4v-6h-4zm0,-40h4v-6h-4zm0,-46h4v-6h-4zm0,-29h4v-6h-4zm0,-23h4v-11h-4zm4,322h3v-6h-3zm0,-98h3v-11h-3zm0,-103h3v-12h-3zm3,436h4v-6h-4zm0,-241h4v-6h-4zm0,-23h4v-6h-4zm0,-29h4v-5h-4zm0,-51h4v-18h-4zm4,258h4v-6h-4zm0,-126h4v-6h-4zm0,-52h4v-6h-4zm0,-17h4v-6h-4zm0,-52h4v-6h-4zm4,212h3v-5h-3zm0,-74h3v-12h-3zm0,-23h3v-6h-3zm0,-23h3v-6h-3zm0,-17h3v-6h-3zm0,-35h3v-5h-3zm0,-23h3v-5h-3zm0,-28h3v-6h-3zm0,-104h3v-5h-3zm0,-51h3v-6h-3zm0,-29h3v-6h-3zm0,-17h3v-6h-3zm3,539h4v-5h-4zm0,-74h4v-6h-4zm0,-121h4v-6h-4zm0,-126h4v-6h-4zm0,-46h4v-6h-4zm0,-52h4v-5h-4zm0,-80h4v-6h-4zm0,-58h4v-5h-4zm4,557h3v-5h-3zm0,-270h3v-5h-3zm0,-34h3v-6h-3zm0,-17h3v-6h-3zm0,-17h3v-6h-3zm0,-12h3v-6h-3zm0,-52h3v-5h-3zm3,408h4v-6h-4zm0,-178h4v-6h-4zm0,-80h4v-6h-4zm0,-81h4v-5h-4zm0,-17h4v-6h-4zm0,-29h4v-5h-4zm4,87h3v-6h-3zm0,-46h3v-6h-3zM941,92h3v-6h-3zm0,-12h3v-5h-3zm3,305h4v-6h-4zm0,-155h4v-6h-4zm0,-86h4v-6h-4zm0,-35h4v-6h-4zm0,-86h4v-6h-4zm4,275h3v-5h-3zm0,-22h3v-6h-3zm0,-18h3v-5h-3zM948,98h3v-6h-3zm0,-75h3v-6h-3zm3,321h4v-5h-4zm0,-57h4v-6h-4zm0,-75h4v-5h-4zm0,-63h4v-5h-4zm0,-46h4v-5h-4zm4,247h3v-6h-3zm0,-184h3v-5h-3zM955,17h3v-6h-3zm3,207h4v-6h-4zM958,98h4v-6h-4zm4,183h3v-5h-3zm0,-126h3v-6h-3zm0,-34h3v-6h-3zm3,384h4v-6h-4zm0,-172h4v-6h-4zm0,-40h4v-6h-4zm0,-115h4v-6h-4zm0,-46h4v-6h-4zm4,201h4v-6h-4zm4,-52h3v-5h-3zm0,-51h3v-6h-3zm3,-109h4v-12h-4zm0,-52h4v-6h-4zm4,155h3v-6h-3zm3,189h4v-5h-4zm0,-212h4v-6h-4zm4,178h3v-6h-3zm0,-132h3v-6h-3zm0,-46h3v-6h-3zm0,-12h3v-5h-3zm7,-28h3v-12h-3zm14,34h3v-6h-3zm3,-17h4v-6h-4zm18,224h4v-6h-4zm0,-316h4v-6h-4zm11,322h3v-6h-3zm14,-293h3v-6h-3z"></path><path fill="rgb(22,82,205)" d="M530,557h4v-17h-4zm0,-29h4v-11h-4zm0,-17h4v-6h-4zm0,-17h4v-29h-4zm0,-69h4v-6h-4zm0,-52h4v-17h-4zm0,-109h4v-6h-4zm0,-34h4v-12h-4zm4,281h4v-6h-4zm0,-12h4v-28h-4zm0,-160h4v-29h-4zm0,-173h4v-22h-4z"></path><path fill="rgb(16,100,220)" d="M530,540h4v-12h-4zm0,-23h4v-6h-4zm0,-138h4v-6h-4zm0,-138h4v-11h-4zm4,230h4v-6h-4zm0,-40h4v-6h-4zm0,-121h4v-12h-4zm0,-75h4v-5h-4zm0,-63h4v-6h-4z"></path><path fill="rgb(18,114,217)" d="M534,465h4v-12h-4zm0,-167h4v-5h-4zm0,-114h4v-12h-4z"></path><path fill="rgb(20,129,214)" d="M530,385h4v-6h-4zm4,68h4v-5h-4zm0,-160h4v-6h-4zm0,-40h4v-6h-4zm0,-64h4v-5h-4z"></path><path fill="rgb(14,143,209)" d="M534,436h4v-5h-4z"></path><path fill="rgb(9,157,204)" d="M530,419h4v-6h-4zm0,-23h4v-11h-4zm4,52h4v-6h-4zm0,-161h4v-6h-4zm0,-75h4v-5h-4zm0,-17h4v-6h-4z"></path><path fill="rgb(13,167,195)" d="M534,207h4v-6h-4z"></path><path fill="rgb(30,175,179)" d="M530,402h4v-6h-4zm0,-144h4v-5h-4zm4,184h4v-6h-4zm0,-212h4v-6h-4zm0,-29h4v-6h-4z"></path><path fill="rgb(46,183,164)" d="M534,281h4v-5h-4zm0,-23h4v-5h-4z"></path><path fill="rgb(82,186,146)" d="M530,408h4v-6h-4zm4,-184h4v-12h-4z"></path><path fill="rgb(116,189,129)" d="M530,413h4v-5h-4zm4,-137h4v-6h-4zm0,-12h4v-6h-4z"></path><path fill="rgb(149,190,113)" d="M534,270h4v-6h-4z"></path><path fill="rgb(179,189,101)" d="M530,247h4v-6h-4z"></path><path fill="rgb(249,249,15)" d="M530,253h4v-6h-4z"></path></g></svg><g><g transform="translate(0,574)"><path d="M0,0h1068" style="stroke: black; stroke-width: 1;"></path><path d="M1,-22v22m44,-11v11m45,-11v11m44,-11v11m45,-22v22m44,-11v11m44,-11v11m45,-11v11m44,-22v22m45,-11v11m44,-11v11m45,-11v11m44,-22v22m44,-11v11m45,-11v11m44,-11v11m45,-22v22m44,-11v11m45,-11v11m44,-11v11m44,-22v22m45,-11v11m44,-11v11m45,-11v11m44,-22v22" style="stroke: black; stroke-width: 1;"></path><g font-family="Arial" font-size="25" xml:space="preserve"><text fill="black" text-anchor="middle" dy=".8em" transform="translate(1,6)">-6</text><text fill="black" text-anchor="middle" dy=".8em" transform="translate(179,6)">-4</text><text fill="black" text-anchor="middle" dy=".8em" transform="translate(356,6)">-2</text><text fill="black" text-anchor="middle" dy=".8em" transform="translate(534,6)">0</text><text fill="black" text-anchor="middle" dy=".8em" transform="translate(712,6)">2</text><text fill="black" text-anchor="middle" dy=".8em" transform="translate(889,6)">4</text><text fill="black" text-anchor="middle" dy=".8em" transform="translate(1067,6)">6</text></g><rect x="0" y="0" width="1068" height="28" style="opacity: 0; cursor: crosshair;"></rect><g font-family="Arial" font-size="25" xml:space="preserve" style="cursor: move;" transform="translate(534,40)"><g transform="translate(-6,8)"><text fill="black" font-size="25">η</text></g></g></g><g><path d="M0,0v574" style="stroke: black; stroke-width: 1;"></path><path d="M40,574h-40m20,-18h-20m20,-19h-20m20,-18h-20m20,-18h-20m40,-18h-40m20,-19h-20m20,-18h-20m20,-18h-20m20,-18h-20m40,-19h-40m20,-18h-20m20,-18h-20m20,-19h-20m20,-18h-20m40,-18h-40m20,-18h-20m20,-19h-20m20,-18h-20m20,-18h-20m40,-18h-40m20,-19h-20m20,-18h-20m20,-18h-20m20,-19h-20m40,-18h-40m20,-18h-20m20,-18h-20m20,-19h-20m20,-18h-20m40,-18h-40m20,-18h-20" style="stroke: black; stroke-width: 1;"></path><g font-family="Arial" font-size="25" xml:space="preserve"><text fill="black" text-anchor="end" dominant-baseline="middle" transform="translate(-4,574)">0</text><text fill="black" text-anchor="end" dominant-baseline="middle" transform="translate(-4,483)">1</text><text fill="black" text-anchor="end" dominant-baseline="middle" transform="translate(-4,391)">2</text><text fill="black" text-anchor="end" dominant-baseline="middle" transform="translate(-4,300)">3</text><text fill="black" text-anchor="end" dominant-baseline="middle" transform="translate(-4,209)">4</text><text fill="black" text-anchor="end" dominant-baseline="middle" transform="translate(-4,117)">5</text><text fill="black" text-anchor="end" dominant-baseline="middle" transform="translate(-4,26)">6</text></g><rect x="-17" y="0" width="17" height="574" style="opacity: 0; cursor: crosshair;"></rect><g font-family="Arial" font-size="25" xml:space="preserve" style="cursor: move;" transform="translate(-38,287)"><g transform=" rotate(270) translate(-8,8)"><text fill="black" font-size="25">φ</text></g></g></g></g><path d="M2,2h15v-5h-20v20h5Z" style="opacity: 0; cursor: nw-resize;"></path><path d="M1066,2h-15v-5h20v20h-5 Z" style="opacity: 0; cursor: ne-resize;"></path><path d="M2,572h15v5h-20v-20h5Z" style="opacity: 0; cursor: sw-resize;"></path><path d="M1066,572h-15v5h20v-20h-5Z" style="opacity: 0; cursor: se-resize;"></path><path d="M-3,18h5v538h-5Z" style="opacity: 0; cursor: w-resize;"></path><path d="M1071,18h-5v538h5Z" style="opacity: 0; cursor: e-resize;"></path><path d="M18,-3v5h1032v-5Z" style="opacity: 0; cursor: n-resize;"></path><path d="M18,577v-5h1032v5Z" style="opacity: 0; cursor: s-resize;"></path></g><g transform="translate(133,4)" font-family="Arial" font-size="36" xml:space="preserve" x="133" y="4" width="1068" height="48" style="cursor: move;"><path d="M0,0H1068V48H0Z" style="fill: none; pointer-events: visiblefill;"></path><g transform="translate(501,38) scale(1.091)"><text fill="black" font-size="40">η-φ</text></g><path d="M2,2h15v-5h-20v20h5Z" style="opacity: 0; cursor: nw-resize;"></path><path d="M1066,2h-15v-5h20v20h-5 Z" style="opacity: 0; cursor: ne-resize;"></path><path d="M2,46h15v5h-20v-20h5Z" style="opacity: 0; cursor: sw-resize;"></path><path d="M1066,46h-15v5h20v-20h-5Z" style="opacity: 0; cursor: se-resize;"></path><path d="M-3,18h5v12h-5Z" style="opacity: 0; cursor: w-resize;"></path><path d="M1071,18h-5v12h5Z" style="opacity: 0; cursor: e-resize;"></path><path d="M18,-3v5h1032v-5Z" style="opacity: 0; cursor: n-resize;"></path><path d="M18,51v-5h1032v5Z" style="opacity: 0; cursor: s-resize;"></path></g><g transform="translate(1208,72)" x="1208" y="72" width="53" height="574" style="cursor: move;"><path d="M0,0H53V574H0Z" style="fill: none; stroke: black; stroke-width: 1; pointer-events: visiblefill;"></path><rect x="0" y="545" width="53" height="29" style="fill: rgb(38, 62, 168); stroke: rgb(38, 62, 168);"></rect><rect x="0" y="517" width="53" height="28" style="fill: rgb(22, 82, 205); stroke: rgb(22, 82, 205);"></rect><rect x="0" y="488" width="53" height="29" style="fill: rgb(16, 100, 220); stroke: rgb(16, 100, 220);"></rect><rect x="0" y="459" width="53" height="29" style="fill: rgb(18, 114, 217); stroke: rgb(18, 114, 217);"></rect><rect x="0" y="431" width="53" height="28" style="fill: rgb(20, 129, 214); stroke: rgb(20, 129, 214);"></rect><rect x="0" y="402" width="53" height="29" style="fill: rgb(14, 143, 209); stroke: rgb(14, 143, 209);"></rect><rect x="0" y="373" width="53" height="29" style="fill: rgb(9, 157, 204); stroke: rgb(9, 157, 204);"></rect><rect x="0" y="344" width="53" height="29" style="fill: rgb(13, 167, 195); stroke: rgb(13, 167, 195);"></rect><rect x="0" y="316" width="53" height="28" style="fill: rgb(30, 175, 179); stroke: rgb(30, 175, 179);"></rect><rect x="0" y="287" width="53" height="29" style="fill: rgb(46, 183, 164); stroke: rgb(46, 183, 164);"></rect><rect x="0" y="258" width="53" height="29" style="fill: rgb(82, 186, 146); stroke: rgb(82, 186, 146);"></rect><rect x="0" y="230" width="53" height="28" style="fill: rgb(116, 189, 129); stroke: rgb(116, 189, 129);"></rect><rect x="0" y="201" width="53" height="29" style="fill: rgb(149, 190, 113); stroke: rgb(149, 190, 113);"></rect><rect x="0" y="172" width="53" height="29" style="fill: rgb(179, 189, 101); stroke: rgb(179, 189, 101);"></rect><rect x="0" y="144" width="53" height="28" style="fill: rgb(209, 187, 89); stroke: rgb(209, 187, 89);"></rect><rect x="0" y="115" width="53" height="29" style="fill: rgb(226, 192, 75); stroke: rgb(226, 192, 75);"></rect><rect x="0" y="86" width="53" height="29" style="fill: rgb(244, 198, 59); stroke: rgb(244, 198, 59);"></rect><rect x="0" y="57" width="53" height="29" style="fill: rgb(253, 210, 43); stroke: rgb(253, 210, 43);"></rect><rect x="0" y="29" width="53" height="28" style="fill: rgb(251, 230, 29); stroke: rgb(251, 230, 29);"></rect><rect x="0" y="0" width="53" height="29" style="fill: rgb(249, 249, 15); stroke: rgb(249, 249, 15);"></rect><g transform="translate(53, 0)"><path d="M0,0v574" style="stroke: black; stroke-width: 1;"></path><path d="M0,574h-29m29,-67h-29m29,-67h-29m29,-67h-29m29,-67h-29m29,-67h-29m29,-67h-29m29,-67h-29m29,-67h-29" style="stroke: black; stroke-width: 1;"></path><g font-family="Arial" font-size="25" xml:space="preserve"><text fill="black" text-anchor="start" dominant-baseline="middle" transform="translate(4,574)">0</text><text fill="black" text-anchor="start" dominant-baseline="middle" transform="translate(4,507)">1</text><text fill="black" text-anchor="start" dominant-baseline="middle" transform="translate(4,440)">2</text><text fill="black" text-anchor="start" dominant-baseline="middle" transform="translate(4,373)">3</text><text fill="black" text-anchor="start" dominant-baseline="middle" transform="translate(4,306)">4</text><text fill="black" text-anchor="start" dominant-baseline="middle" transform="translate(4,239)">5</text><text fill="black" text-anchor="start" dominant-baseline="middle" transform="translate(4,172)">6</text><text fill="black" text-anchor="start" dominant-baseline="middle" transform="translate(4,105)">7</text><text fill="black" text-anchor="start" dominant-baseline="middle" transform="translate(4,38)">8</text><g transform="translate(-55,-9)"><text fill="black" font-size="25">×10</text><text fill="black" font-size="15" transform="translate(42,-11)">6</text></g></g><rect x="0" y="0" width="17" height="574" style="opacity: 0; cursor: crosshair;"></rect></g><path d="M2,2h15v-5h-20v20h5Z" style="opacity: 0; cursor: nw-resize;"></path><path d="M51,2h-15v-5h20v20h-5 Z" style="opacity: 0; cursor: ne-resize;"></path><path d="M2,572h15v5h-20v-20h5Z" style="opacity: 0; cursor: sw-resize;"></path><path d="M51,572h-15v5h20v-20h-5Z" style="opacity: 0; cursor: se-resize;"></path><path d="M-3,18h5v538h-5Z" style="opacity: 0; cursor: w-resize;"></path><path d="M56,18h-5v538h5Z" style="opacity: 0; cursor: e-resize;"></path><path d="M18,-3v5h17v-5Z" style="opacity: 0; cursor: n-resize;"></path><path d="M18,577v-5h17v5Z" style="opacity: 0; cursor: s-resize;"></path></g><g transform="translate(928,47)" font-family="Arial" font-size="26" xml:space="preserve" x="928" y="47" width="267" height="190" style="cursor: move;"><path d="M0,0H267V190H0Z" style="fill: white; stroke: black; stroke-width: 1; pointer-events: visiblefill;"></path><text fill="black" text-anchor="middle" dominant-baseline="middle" transform="translate(134,16)">eta_phi</text><text fill="black" text-anchor="start" dominant-baseline="middle" transform="translate(13,48)">Entries </text><text fill="black" text-anchor="end" dominant-baseline="middle" transform="translate(254,48)"> 346767269</text><text fill="black" text-anchor="start" dominant-baseline="middle" transform="translate(13,79)">Mean x </text><text fill="black" text-anchor="end" dominant-baseline="middle" transform="translate(254,79)"> 0.02582</text><text fill="black" text-anchor="start" dominant-baseline="middle" transform="translate(13,111)">Mean y </text><text fill="black" text-anchor="end" dominant-baseline="middle" transform="translate(254,111)"> 3.010</text><text fill="black" text-anchor="start" dominant-baseline="middle" transform="translate(13,143)">Std Dev x </text><text fill="black" text-anchor="end" dominant-baseline="middle" transform="translate(254,143)"> 0.5906</text><text fill="black" text-anchor="start" dominant-baseline="middle" transform="translate(13,174)">Std Dev y </text><text fill="black" text-anchor="end" dominant-baseline="middle" transform="translate(254,174)"> 1.564</text><path d="M0,32h267" style="stroke: black; stroke-width: 1;"></path><path d="M2,2h15v-5h-20v20h5Z" style="opacity: 0; cursor: nw-resize;"></path><path d="M265,2h-15v-5h20v20h-5 Z" style="opacity: 0; cursor: ne-resize;"></path><path d="M2,188h15v5h-20v-20h5Z" style="opacity: 0; cursor: sw-resize;"></path><path d="M265,188h-15v5h20v-20h-5Z" style="opacity: 0; cursor: se-resize;"></path><path d="M-3,18h5v154h-5Z" style="opacity: 0; cursor: w-resize;"></path><path d="M270,18h-5v154h5Z" style="opacity: 0; cursor: e-resize;"></path><path d="M18,-3v5h231v-5Z" style="opacity: 0; cursor: n-resize;"></path><path d="M18,193v-5h231v5Z" style="opacity: 0; cursor: s-resize;"></path></g></g></svg>