<svg width="1333" height="697" xmlns="http://www.w3.org/2000/svg"><title>ROOT canvas</title><path d="M0,0H1333V697H0Z" style="pointer-events: visiblefill; fill: rgb(243, 243, 243);"></path><g><g transform="translate(133,70)" x="133" y="70" width="1066" height="558"><title></title><path d="M0,0H1066V558H0Z" pointer-events="visibleFill" style="fill: rgb(243, 243, 243); stroke: black; stroke-width: 1;"></path><svg x="0" y="0" overflow="hidden" width="1066" height="558" viewBox="0 0 1066 558" style="pointer-events: visiblefill;"><g><path fill="rgb(38,62,168)" d="M88,262h4v-4h-4zm43,231h3v-37h-3zm3,65h4v-65h-4zm7,0h4v-65h-4zm4,0h3v-65h-3zm7,0h3v-65h-3zm14,0h3v-65h-3zm0,-246h3v-6h-3zm7,52h3v-11h-3zm7,-218h4v-1h-4zm4,262h3v-17h-3zm3,150h4v-65h-4zm0,-102h4v-27h-4zm4,37h3v-37h-3zm3,65h4v-65h-4zm0,-150h4v-17h-4zm0,-44h4v-11h-4zm4,194h3v-65h-3zm0,-214h3v-9h-3zm3,0h4v-9h-4zm4,214h3v-65h-3zm0,-102h3v-27h-3zm3,37h4v-37h-4zm4,65h3v-129h-3zm3,-129h4v-21h-4zm7,129h4v-65h-4zm0,-129h4v-21h-4zm4,64h3v-37h-3zm3,0h4v-37h-4zm4,65h3v-65h-3zm3,0h4v-65h-4zm0,-129h4v-38h-4zm4,129h4v-129h-4zm0,-252h4v-6h-4zm4,252h3v-65h-3zm0,-102h3v-27h-3zm0,-48h3v-17h-3zm0,-31h3v-13h-3zm0,-42h3v-8h-3zm0,-136h3v-2h-3zm3,359h4v-150h-4zm0,-410h4v-2h-4zm4,410h3v-65h-3zm0,-102h3v-27h-3zm0,-65h3v-27h-3zM251,31h3v-1h-3zm3,527h4v-102h-4zm0,-129h4v-21h-4zm0,-94h4v-8h-4zm4,223h3v-150h-3zm0,-167h3v-14h-3zm3,167h4v-65h-4zm0,-102h4v-48h-4zm0,-103h4v-9h-4zm0,-34h4v-7h-4zm0,-97h4v-3h-4zm4,336h3v-150h-3zm0,-167h3v-14h-3zm0,-27h3v-29h-3zM265,22h3v-1h-3zm3,536h4v-102h-4zm0,-129h4v-21h-4zm0,-38h4v-27h-4zm0,-38h4v-9h-4zm0,-59h4v-5h-4zm4,264h3v-150h-3zm0,-181h3v-13h-3zm0,-33h3v-9h-3zm0,-17h3v-8h-3zm0,-27h3v-6h-3zm0,-11h3v-5h-3zM272,7h3v-1h-3zm3,551h4v-150h-4zm0,-167h4v-14h-4zm0,-27h4v-11h-4zm4,194h3v-129h-3zm0,-181h3v-13h-3zm0,-24h3v-9h-3zm0,-47h3v-6h-3zm0,-17h3v-5h-3zm0,-115h3v-2h-3zm3,384h4v-129h-4zm0,-150h4v-17h-4zm0,-31h4v-13h-4zm0,-24h4v-9h-4zm0,-34h4v-7h-4zm4,239h3v-205h-3zm0,-274h3v-5h-3zm3,274h4v-150h-4zm0,-167h4v-27h-4zm0,-64h4v-8h-4zm0,-57h4v-4h-4zm4,288h4v-194h-4zm0,-231h4v-8h-4zm0,-48h4v-5h-4zm0,-31h4v-4h-4zM293,44h4v-1h-4zm4,514h3v-129h-3zm0,-150h3v-55h-3zm0,-64h3v-38h-3zm0,-55h3v-5h-3zm3,269h4v-181h-4zm0,-205h4v-18h-4zm0,-41h4v-12h-4zm0,-23h4v-15h-4zm0,-51h4v-3h-4zm4,320h3v-214h-3zm0,-252h3v-6h-3zm0,-22h3v-5h-3zm0,-46h3v-3h-3zm0,-69h3v-1h-3zm3,389h4v-205h-4zm0,-214h4v-9h-4zm0,-32h4v-12h-4zm0,-64h4v-4h-4zm0,-62h4v-1h-4zm0,-93h4v-1h-4zm4,465h3v-205h-3zm0,-231h3v-8h-3zm0,-33h3v-10h-3zm0,-20h3v-4h-3zm0,-16h3v-3h-3zm0,-17h3v-3h-3zm0,-29h3v-2h-3zm3,346h4v-194h-4zm0,-205h4v-9h-4zm0,-26h4v-8h-4zm0,-15h4v-6h-4zm0,-18h4v-5h-4zm0,-15h4v-9h-4zm0,-17h4v-4h-4zm0,-21h4v-3h-4zm0,-29h4v-2h-4zm0,-48h4v-2h-4zm0,-80h4v-1h-4zm4,474h3v-231h-3zm0,-239h3v-7h-3zm0,-13h3v-6h-3zm0,-62h3v-3h-3zm0,-14h3v-3h-3zm3,328h4v-214h-4zm0,-223h4v-35h-4zm0,-46h4v-5h-4zm0,-15h4v-4h-4zm0,-16h4v-3h-4zm0,-28h4v-3h-4zm0,-24h4v-3h-4zm0,-62h4v-1h-4zm0,-12h4v-1h-4zm4,426h3v-231h-3zm0,-246h3v-6h-3zm0,-12h3v-6h-3zm0,-11h3v-10h-3zm0,-27h3v-4h-3zm3,296h4v-181h-4zm0,-194h4v-29h-4zm0,-37h4v-15h-4zm0,-38h4v-5h-4zm0,-15h4v-4h-4zm0,-26h4v-4h-4zm0,-21h4v-3h-4zm0,-8h4v-2h-4zm0,-5h4v-2h-4zm0,-71h4v-1h-4zm0,-53h4v-1h-4zm0,-48h4v-1h-4zm4,516h3v-246h-3zm0,-252h3v-6h-3zm0,-12h3v-5h-3zm0,-43h3v-3h-3zm0,-19h3v-2h-3zm0,-5h3v-3h-3zm0,-61h3v-1h-3zm0,-64h3v-1h-3zm3,456h4v-239h-4zm0,-246h4v-18h-4zm0,-46h4v-8h-4zm0,-25h4v-3h-4zm4,317h3v-231h-3zm0,-246h3v-6h-3zm0,-12h3v-11h-3zm0,-16h3v-5h-3zm0,-10h3v-8h-3zm0,-12h3v-4h-3zm0,-21h3v-3h-3zm0,-11h3v-3h-3zm0,-40h3v-2h-3zm0,-78h3v-1h-3zm0,-20h3v-1h-3zm0,-28h3v-1h-3zm3,494h4v-252h-4zm0,-258h4v-26h-4zm0,-42h4v-3h-4zm0,-70h4v-2h-4zm0,-54h4v-1h-4zM342,10h4v-1h-4zm4,548h3v-246h-3zm0,-264h3v-5h-3zm0,-10h3v-10h-3zm0,-88h3v-2h-3zm0,-54h3v-1h-3zm3,416h4v-181h-4zm0,-194h4v-20h-4zm0,-29h4v-29h-4zm0,-35h4v-6h-4zm0,-11h4v-10h-4zm0,-31h4v-14h-4zm0,-23h4v-3h-4zm0,-11h4v-5h-4zm0,-53h4v-2h-4zm0,-41h4v-1h-4zm0,-30h4v-1h-4zm4,458h4v-252h-4zm0,-279h4v-13h-4zm0,-24h4v-4h-4zm0,-11h4v-3h-4zm0,-14h4v-3h-4zm0,-16h4v-2h-4zm0,-42h4v-1h-4zm0,-41h4v-1h-4zm0,-43h4v-1h-4zm0,-12h4v-1h-4zm4,482h3v-246h-3zm0,-258h3v-16h-3zm0,-42h3v-3h-3zm0,-7h3v-3h-3zm0,-7h3v-3h-3zm0,-12h3v-2h-3zm0,-20h3v-2h-3zm0,-15h3v-1h-3zm0,-5h3v-2h-3zm0,-81h3v-1h-3zm0,-65h3v-1h-3zm3,512h4v-239h-4zm0,-246h4v-12h-4zm0,-18h4v-5h-4zm0,-10h4v-14h-4zm0,-22h4v-4h-4zm0,-14h4v-13h-4zm0,-16h4v-2h-4zm0,-10h4v-3h-4zm0,-32h4v-2h-4zM360,46h4v-1h-4zm4,512h3v-239h-3zm0,-246h3v-18h-3zm0,-23h3v-10h-3zm0,-23h3v-4h-3zm0,-8h3v-3h-3zm0,-10h3v-7h-3zm0,-10h3v-3h-3zm0,-6h3v-2h-3zm0,-5h3v-3h-3zm0,-8h3v-2h-3zm0,-9h3v-2h-3zm0,-7h3v-2h-3zm0,-9h3v-2h-3zm0,-6h3v-2h-3zm0,-16h3v-1h-3zm0,-27h3v-1h-3zm0,-3h3v-1h-3zm0,-16h3v-1h-3zm3,432h4v-231h-4zm0,-239h4v-7h-4zm0,-13h4v-6h-4zm0,-12h4v-10h-4zm0,-15h4v-17h-4zm0,-21h4v-7h-4zm0,-10h4v-4h-4zm0,-7h4v-9h-4zm0,-14h4v-3h-4zm0,-35h4v-2h-4zm0,-68h4v-1h-4zm0,-37h4v-1h-4zm4,471h3v-284h-3zm0,-292h3v-4h-3zm0,-25h3v-3h-3zm0,-24h3v-3h-3zm0,-16h3v-2h-3zm0,-4h3v-1h-3zm0,-11h3v-1h-3zm0,-24h3v-1h-3zm0,-4h3v-1h-3zm0,-10h3v-2h-3zm0,-7h3v-1h-3zm0,-13h3v-1h-3zm0,-47h3v-1h-3zm0,-16h3v-1h-3zm3,493h4v-314h-4zm0,-323h4v-11h-4zm0,-13h4v-8h-4zm0,-14h4v-2h-4zm0,-5h4v-11h-4zm0,-13h4v-4h-4zm0,-5h4v-4h-4zm0,-13h4v-6h-4zm0,-14h4v-2h-4zm0,-3h4v-3h-4zm0,-10h4v-1h-4zm0,-3h4v-1h-4zm0,-11h4v-1h-4zm0,-5h4v-1h-4zm0,-12h4v-1h-4zm0,-8h4v-1h-4zm0,-15h4v-1h-4zm0,-11h4v-1h-4zm0,-7h4v-1h-4zm4,485h3v-336h-3zm0,-339h3v-7h-3zm0,-9h3v-14h-3zm0,-18h3v-15h-3zm0,-20h3v-4h-3zm0,-6h3v-1h-3zm0,-4h3v-4h-3zm0,-6h3v-3h-3zm0,-4h3v-1h-3zm0,-6h3v-3h-3zm0,-4h3v-3h-3zm0,-5h3v-1h-3zm0,-2h3v-1h-3zm0,-4h3v-1h-3zm0,-3h3v-1h-3zm0,-3h3v-1h-3zm0,-3h3v-2h-3zm0,-8h3v-1h-3zm0,-2h3v-2h-3zm0,-4h3v-1h-3zm0,-1h3v-1h-3zm0,-2h3v-1h-3zm0,-6h3v-1h-3zm0,-3h3v-1h-3zm0,-4h3v-2h-3zm0,-6h3v-1h-3zm0,-12h3v-1h-3zm0,-3h3v-1h-3zm0,-19h3v-1h-3zm0,-7h3v-1h-3zm0,-13h3v-1h-3zm0,-17h3v-1h-3zM378,3h3v-1h-3zm0,-1h3v-1h-3zm0,-1h3v-1h-3zm3,557h4v-377h-4zm0,-378h4v-12h-4zm0,-14h4v-10h-4zm0,-11h4v-6h-4zm0,-7h4v-2h-4zm0,-3h4v-4h-4zm0,-6h4v-6h-4zm0,-7h4v-1h-4zm0,-2h4v-4h-4zm0,-5h4v-1h-4zm0,-2h4v-2h-4zm0,-3h4v-3h-4zm0,-5h4v-2h-4zm0,-3h4v-1h-4zm0,-1h4v-1h-4zm0,-3h4v-1h-4zm0,-3h4v-1h-4zm0,-6h4v-1h-4zm0,-1h4v-1h-4zm0,-2h4v-2h-4zm0,-3h4v-3h-4zm0,-4h4v-3h-4zm0,-3h4v-1h-4zm0,-6h4v-1h-4zm0,-5h4v-3h-4zm0,-4h4v-1h-4zm0,-1h4v-1h-4zm0,-1h4v-1h-4zm0,-1h4v-1h-4zm0,-3h4v-1h-4zm0,-3h4v-1h-4zm0,-3h4v-2h-4zm0,-2h4v-1h-4zm0,-5h4v-1h-4zm0,-1h4v-1h-4zm0,-5h4v-1h-4zm0,-6h4v-1h-4zm0,-2h4v-2h-4zm0,-5h4v-1h-4zm0,-6h4v-1h-4zm0,-1h4v-2h-4zM381,6h4v-1h-4zm0,-1h4v-1h-4zm0,-1h4v-1h-4zm0,-3h4v-1h-4zm4,557h3v-432h-3zm0,-433h3v-13h-3zm0,-14h3v-7h-3zm0,-8h3v-1h-3zm0,-2h3v-4h-3zm0,-5h3v-1h-3zm0,-1h3v-1h-3zm0,-2h3v-2h-3zm0,-3h3v-3h-3zm0,-3h3v-1h-3zm0,-2h3v-1h-3zm0,-2h3v-3h-3zm0,-3h3v-2h-3zm0,-2h3v-1h-3zm0,-1h3v-2h-3zm0,-3h3v-1h-3zm0,-1h3v-1h-3zm0,-1h3v-1h-3zm0,-1h3v-1h-3zm0,-3h3v-2h-3zm0,-2h3v-3h-3zm0,-4h3v-2h-3zm0,-2h3v-1h-3zm0,-1h3v-1h-3zm0,-1h3v-2h-3zm0,-2h3v-1h-3zm0,-2h3v-2h-3zm0,-2h3v-1h-3zm0,-2h3v-2h-3zm0,-3h3v-1h-3zm0,-1h3v-1h-3zm0,-1h3v-1h-3zm0,-1h3v-1h-3zm0,-1h3v-1h-3zm0,-1h3v-2h-3zm0,-3h3v-1h-3zm0,-1h3v-1h-3zm0,-1h3v-2h-3zm0,-2h3v-1h-3zm0,-3h3v-1h-3zm0,-5h3v-1h-3zm0,-2h3v-2h-3zm0,-5h3v-1h-3zm0,-1h3v-1h-3zm0,-1h3v-1h-3zm0,-6h3v-1h-3zm0,-2h3v-1h-3zm0,-2h3v-1h-3zm0,-1h3v-1h-3zm0,-4h3v-1h-3zm0,-1h3v-1h-3zm3,491h4v-424h-4zM388,69h4v-6h-4zm0,-6h4v-1h-4zm0,-1h4v-3h-4zm0,-3h4v-12h-4zm0,-12h4v-4h-4zm0,-4h4v-2h-4zm0,-2h4v-1h-4zm0,-1h4v-3h-4zm0,-3h4v-2h-4zm0,-2h4v-2h-4zm0,-1h4v-1h-4zm0,-2h4v-1h-4zm0,-1h4v-3h-4zm0,-3h4v-1h-4zm0,-1h4v-2h-4zm0,-2h4v-1h-4zm0,-1h4v-1h-4zm0,-1h4v-1h-4zm0,-1h4v-2h-4zm0,-2h4v-2h-4zm0,-2h4v-2h-4zm0,-2h4v-2h-4zm0,-1h4v-2h-4zm0,-3h4v-1h-4zh4v-1h-4zm0,-1h4v-1h-4zh4v-1h-4zm0,-1h4v-1h-4zh4v-2h-4zm0,-1h4v-1h-4zm0,-1h4v-1h-4zm0,-1h4v-1h-4zm0,-1h4v-1h-4zh4v-1h-4zm0,-1h4v-1h-4zh4v-1h-4zm0,-1h4v-1h-4zm0,-1h4v-1h-4zm0,-1h4v-1h-4zm0,-1h4v-1h-4zm0,-1h4v-1h-4zm4,456h3v-428h-3zM392,28h3v-12h-3zm0,-11h3v-10h-3zm0,-9h3v-5h-3zm0,-5h3v-4h-3zm3,405h4v-409h-4zm4,0h3v-407h-3zM399,1h3v-2h-3zm3,390h4v-392h-4zm4,-14h3v-378h-3zm3,0h4v-378h-4zm4,-13h4v-365h-4zm4,0h3v-363h-3zM417,1h3v-2h-3zm3,363h4v-361h-4zM420,4h4v-5h-4zm4,360h3v-363h-3zM424,1h3v-2h-3zm3,363h4v-365h-4zm4,-11h3v-354h-3zm3,0h4v-354h-4zm4,0h3v-354h-3zm3,0h4v-354h-4zm4,0h3v-354h-3zm3,0h4v-354h-4zm4,0h3v-354h-3zm3,0h4v-345h-4zM455,9h4v-10h-4zm4,344h3v-354h-3zm3,0h4v-354h-4zm4,0h3v-354h-3zm3,0h4v-354h-4zm4,0h4v-354h-4zm4,0h3v-354h-3zm3,0h4v-354h-4zm4,0h3v-354h-3zm3,0h4v-354h-4zm4,0h3v-354h-3zm3,0h4v-354h-4zm4,0h3v-354h-3zm3,0h4v-354h-4zm4,0h3v-354h-3zm3,0h4v-354h-4zm4,0h3v-354h-3zm3,-9h4v-345h-4zm4,0h3v-345h-3zm3,0h4v-345h-4zm4,0h3v-345h-3zm3,-32h4v-313h-4zm4,23h4v-336h-4zm4,9h3v-345h-3zm3,0h4v-345h-4zm4,9h3v-354h-3zm3,-9h4v-345h-4zm4,0h3v-345h-3zm3,0h4v-345h-4zm4,0h3v-345h-3zm3,0h4v-345h-4zm4,0h3v-345h-3zm3,0h4v-345h-4zm4,0h3v-345h-3zm3,0h4v-345h-4zm4,0h3v-345h-3zm3,0h4v-345h-4zm4,0h3v-345h-3zm3,0h4v-345h-4zm4,0h4v-345h-4zm4,0h3v-345h-3zm3,0h4v-345h-4zm4,0h3v-345h-3zm3,0h4v-345h-4zm4,9h3v-354h-3zm3,0h4v-354h-4zm4,0h3v-354h-3zm3,0h4v-352h-4zM621,1h4v-2h-4zm4,352h3v-354h-3zm3,0h4v-354h-4zm4,0h3v-354h-3zm3,0h4v-354h-4zm4,0h3v-337h-3zM639,16h3v-17h-3zm3,348h4v-361h-4zM642,4h4v-5h-4zm4,360h3v-365h-3zm3,0h4v-359h-4zM649,5h4v-6h-4zm4,372h4v-376h-4zM653,2h4v-3h-4zm4,375h3v-378h-3zm3,14h4v-392h-4zm4,0h3v-392h-3zm3,17h4v-409h-4zm4,21h3v-403h-3zM671,26h3v-27h-3zm3,467h4v-447h-4zM674,46h4v-1h-4zm0,-1h4v-7h-4zm0,-7h4v-3h-4zm0,-3h4v-2h-4zm0,-1h4v-2h-4zm0,-1h4v-1h-4zm0,-1h4v-1h-4zm0,-1h4v-1h-4zm0,-1h4v-2h-4zm0,-2h4v-1h-4zm0,-1h4v-4h-4zm0,-4h4v-1h-4zh4v-2h-4zm0,-1h4v-3h-4zm0,-3h4v-2h-4zm0,-2h4v-2h-4zm0,-1h4v-2h-4zm0,-1h4v-2h-4zm0,-1h4v-1h-4zm0,-1h4v-2h-4zm0,-2h4v-2h-4zm0,-1h4v-3h-4zm0,-2h4v-2h-4zm0,-2h4v-1h-4zh4v-1h-4zm0,-1h4v-1h-4zh4v-3h-4zm0,-2h4v-2h-4zm0,-2h4v-2h-4zm4,557h3v-448h-3zm0,-449h3v-5h-3zm0,-6h3v-3h-3zm0,-3h3v-5h-3zm0,-5h3v-5h-3zm0,-5h3v-3h-3zm0,-3h3v-2h-3zm0,-2h3v-1h-3zm0,-1h3v-3h-3zm0,-3h3v-1h-3zm0,-1h3v-1h-3zm0,-1h3v-2h-3zm0,-3h3v-2h-3zm0,-2h3v-2h-3zm0,-2h3v-1h-3zm0,-1h3v-2h-3zm0,-3h3v-1h-3zm0,-2h3v-1h-3zm0,-1h3v-2h-3zm0,-2h3v-1h-3zm0,-1h3v-2h-3zm0,-2h3v-1h-3zm0,-1h3v-1h-3zm0,-2h3v-2h-3zm0,-2h3v-1h-3zm0,-2h3v-1h-3zm0,-1h3v-1h-3zm0,-2h3v-1h-3zh3v-2h-3zm0,-2h3v-1h-3zm0,-2h3v-1h-3zm0,-1h3v-1h-3zm0,-2h3v-1h-3zm0,-1h3v-1h-3zm0,-2h3v-2h-3zm0,-1h3v-1h-3zm0,-1h3v-2h-3zm0,-2h3v-1h-3zm0,-1h3v-1h-3zm0,-1h3v-1h-3zm0,-2h3v-1h-3zm0,-4h3v-2h-3zm0,-1h3v-1h-3zm0,-1h3v-1h-3zm0,-1h3v-1h-3zm0,-1h3v-1h-3zm0,-5h3v-1h-3zm0,-1h3v-1h-3zh3v-1h-3zm0,-1h3v-1h-3zm0,-2h3v-1h-3zm0,-2h3v-1h-3zh3v-2h-3zm0,-1h3v-1h-3zm0,-2h3v-1h-3zm0,-1h3v-1h-3zh3v-2h-3zm0,-2h3v-1h-3zh3v-1h-3zm0,-1h3v-2h-3zm0,-2h3v-1h-3zm0,-1h3v-1h-3zm0,-1h3v-1h-3zm3,556h4v-409h-4zm0,-410h4v-3h-4zm0,-5h4v-16h-4zm0,-17h4v-4h-4zm0,-5h4v-2h-4zm0,-2h4v-1h-4zm0,-5h4v-3h-4zm0,-3h4v-1h-4zm0,-2h4v-10h-4zm0,-13h4v-1h-4zm0,-1h4v-2h-4zm0,-2h4v-1h-4zm0,-2h4v-1h-4zm0,-1h4v-2h-4zm0,-2h4v-2h-4zm0,-2h4v-1h-4zm0,-2h4v-3h-4zm0,-3h4v-2h-4zm0,-2h4v-1h-4zm0,-3h4v-1h-4zm0,-1h4v-2h-4zm0,-2h4v-1h-4zm0,-2h4v-1h-4zm0,-1h4v-1h-4zm0,-1h4v-1h-4zm0,-2h4v-1h-4zm0,-2h4v-1h-4zm0,-5h4v-1h-4zm0,-2h4v-1h-4zm0,-2h4v-1h-4zm0,-1h4v-2h-4zm0,-1h4v-1h-4zm0,-2h4v-1h-4zh4v-1h-4zm0,-2h4v-1h-4zm0,-2h4v-1h-4zm0,-1h4v-1h-4zm0,-9h4v-1h-4zm0,-2h4v-1h-4zm0,-3h4v-1h-4zm0,-4h4v-1h-4zm0,-1h4v-1h-4zm0,-2h4v-2h-4zm0,-3h4v-1h-4zm0,-5h4v-1h-4zm0,-4h4v-1h-4zm0,-2h4v-1h-4zm0,-3h4v-1h-4zm0,-1h4v-2h-4zm0,-3h4v-1h-4zm0,-2h4v-1h-4zm4,555h3v-381h-3zm0,-383h3v-3h-3zm0,-9h3v-10h-3zm0,-13h3v-1h-3zm0,-3h3v-1h-3zm0,-2h3v-2h-3zm0,-3h3v-3h-3zm0,-5h3v-3h-3zm0,-4h3v-1h-3zm0,-2h3v-2h-3zm0,-5h3v-4h-3zm0,-4h3v-6h-3zm0,-6h3v-3h-3zm0,-5h3v-1h-3zm0,-3h3v-1h-3zm0,-3h3v-6h-3zm0,-10h3v-1h-3zm0,-4h3v-1h-3zm0,-1h3v-1h-3zm0,-2h3v-2h-3zm0,-2h3v-2h-3zm0,-3h3v-1h-3zm0,-1h3v-1h-3zm0,-3h3v-1h-3zm0,-2h3v-1h-3zm0,-1h3v-1h-3zm0,-1h3v-1h-3zm0,-2h3v-1h-3zm0,-2h3v-1h-3zm0,-1h3v-1h-3zm0,-2h3v-1h-3zm0,-4h3v-1h-3zm0,-3h3v-1h-3zm0,-1h3v-1h-3zm0,-1h3v-1h-3zm0,-4h3v-1h-3zm0,-1h3v-1h-3zm0,-1h3v-1h-3zm0,-3h3v-1h-3zm0,-3h3v-1h-3zm0,-3h3v-1h-3zm0,-9h3v-1h-3zm0,-2h3v-1h-3zm0,-3h3v-1h-3zm0,-1h3v-1h-3zm0,-13h3v-1h-3zm0,-1h3v-1h-3zm0,-6h3v-1h-3zh3v-1h-3zm0,-3h3v-1h-3zh3v-1h-3zm3,549h4v-328h-4zm0,-331h4v-19h-4zm0,-24h4v-7h-4zm0,-9h4v-8h-4zm0,-9h4v-7h-4zm0,-8h4v-5h-4zm0,-6h4v-3h-4zm0,-6h4v-7h-4zm0,-8h4v-1h-4zm0,-4h4v-4h-4zm0,-19h4v-2h-4zm0,-6h4v-1h-4zm0,-3h4v-1h-4zm0,-14h4v-1h-4zm0,-5h4v-1h-4zm0,-8h4v-1h-4zm0,-6h4v-1h-4zm0,-11h4v-1h-4zm0,-5h4v-1h-4zm0,-5h4v-1h-4zm0,-2h4v-1h-4zm0,-4h4v-1h-4zm0,-9h4v-1h-4zm0,-6h4v-1h-4zm0,-3h4v-1h-4zm0,-2h4v-1h-4zm0,-2h4v-1h-4zm0,-5h4v-1h-4zm0,-16h4v-1h-4zm0,-12h4v-1h-4zm4,548h3v-323h-3zm0,-326h3v-10h-3zm0,-20h3v-13h-3zm0,-18h3v-2h-3zm0,-4h3v-2h-3zm0,-4h3v-1h-3zm0,-5h3v-1h-3zm0,-4h3v-2h-3zm0,-9h3v-2h-3zm0,-20h3v-2h-3zm0,-35h3v-1h-3zm0,-33h3v-1h-3zm0,-29h3v-1h-3zm0,-25h3v-1h-3zm0,-5h3v-1h-3zM692,5h3v-1h-3zm3,553h4v-252h-4zm0,-258h4v-38h-4zm0,-45h4v-11h-4zm0,-14h4v-3h-4zm0,-19h4v-5h-4zm0,-21h4v-4h-4zm0,-9h4v-2h-4zm0,-9h4v-2h-4zm0,-14h4v-3h-4zm0,-7h4v-1h-4zm0,-7h4v-2h-4zm0,-7h4v-3h-4zm0,-34h4v-1h-4zm4,444h3v-252h-3zm0,-258h3v-6h-3zm0,-11h3v-15h-3zm0,-41h3v-4h-3zm0,-18h3v-3h-3zm0,-8h3v-3h-3zm0,-26h3v-2h-3zm0,-57h3v-1h-3zm0,-67h3v-1h-3zm0,-52h3v-1h-3zm3,538h4v-239h-4zm0,-258h4v-6h-4zm0,-16h4v-10h-4zm0,-18h4v-4h-4zm0,-25h4v-3h-4zm0,-11h4v-6h-4zm0,-8h4v-3h-4zm0,-5h4v-7h-4zm0,-9h4v-2h-4zm0,-55h4v-1h-4zm0,-12h4v-1h-4zm0,-11h4v-1h-4zm0,-49h4v-1h-4zm4,477h3v-223h-3zm0,-239h3v-25h-3zm0,-35h3v-10h-3zm0,-14h3v-4h-3zm0,-12h3v-3h-3zm0,-50h3v-2h-3zm0,-7h3v-2h-3zm0,-5h3v-2h-3zm0,-15h3v-1h-3zm0,-4h3v-2h-3zm0,-12h3v-1h-3zm0,-23h3v-1h-3zm0,-3h3v-1h-3zm0,-46h3v-1h-3zm0,-18h3v-1h-3zm3,483h4v-223h-4zm0,-231h4v-15h-4zm0,-27h4v-6h-4zm0,-26h4v-4h-4zm0,-12h4v-7h-4zm0,-18h4v-3h-4zm0,-12h4v-2h-4zM709,50h4v-1h-4zm4,508h4v-223h-4zm0,-231h4v-27h-4zm0,-38h4v-10h-4zm0,-19h4v-4h-4zm0,-15h4v-4h-4zm0,-17h4v-3h-4zm0,-35h4v-2h-4zm0,-31h4v-1h-4zM713,11h4v-1h-4zm4,547h3v-239h-3zm0,-246h3v-12h-3zm0,-18h3v-5h-3zm0,-20h3v-12h-3zm0,-30h3v-3h-3zm0,-54h3v-2h-3zm0,-41h3v-1h-3zM717,20h3v-1h-3zm3,538h4v-194h-4zm0,-205h4v-47h-4zm0,-53h4v-21h-4zm0,-26h4v-4h-4zm0,-19h4v-4h-4zm0,-11h4v-3h-4zm0,-38h4v-3h-4zm0,-40h4v-1h-4zm4,392h3v-231h-3zm0,-239h3v-19h-3zm0,-35h3v-5h-3zm0,-10h3v-4h-3zm0,-26h3v-4h-3zm0,-13h3v-3h-3zm0,-13h3v-3h-3zm3,336h4v-194h-4zm0,-205h4v-9h-4zm0,-18h4v-23h-4zm0,-61h4v-8h-4zm0,-26h4v-4h-4zm0,-16h4v-2h-4zm0,-38h4v-2h-4zm0,-92h4v-1h-4zm0,-62h4v-1h-4zm4,518h3v-231h-3zm0,-239h3v-7h-3zm0,-25h3v-5h-3zm0,-20h3v-8h-3zm0,-30h3v-3h-3zm0,-20h3v-2h-3zm0,-52h3v-1h-3zm0,-40h3v-2h-3zm0,-76h3v-1h-3zm3,502h4v-181h-4zm0,-194h4v-58h-4zm0,-98h4v-4h-4zm0,-8h4v-3h-4zm0,-153h4v-1h-4zm0,-3h4v-1h-4zm0,-30h4v-1h-4zm4,486h3v-214h-3zm0,-239h3v-13h-3zm0,-30h3v-5h-3zm0,-10h3v-5h-3zm0,-9h3v-4h-3zm0,-12h3v-7h-3zm0,-10h3v-4h-3zm0,-16h3v-2h-3zm0,-10h3v-3h-3zm0,-32h3v-2h-3zm0,-12h3v-1h-3zm0,-93h3v-1h-3zm3,473h4v-214h-4zm0,-223h4v-23h-4zm0,-46h4v-5h-4zm0,-34h4v-4h-4zm0,-143h4v-1h-4zm4,446h3v-167h-3zm0,-181h3v-24h-3zm0,-42h3v-8h-3zm0,-23h3v-6h-3zm0,-18h3v-5h-3zm0,-53h3v-3h-3zm0,-31h3v-2h-3zm3,348h4v-246h-4zm0,-258h4v-6h-4zm0,-34h4v-4h-4zm0,-97h4v-1h-4zm4,389h3v-231h-3zm0,-239h3v-7h-3zm0,-30h3v-5h-3zm3,269h4v-231h-4zm0,-269h4v-5h-4zm0,-10h4v-5h-4zm0,-57h4v-5h-4zm0,-66h4v-1h-4zM755,23h4v-1h-4zm4,535h3v-194h-3zm0,-214h3v-17h-3zm0,-25h3v-7h-3zm0,-13h3v-6h-3zm0,-44h3v-4h-3zm0,-32h3v-3h-3zm0,-20h3v-2h-3zm3,348h4v-150h-4zm0,-167h4v-38h-4zm0,-56h4v-8h-4zm0,-16h4v-7h-4zm0,-19h4v-6h-4zm0,-62h4v-3h-4zm0,-69h4v-1h-4zm0,-78h4v-1h-4zm0,-48h4v-1h-4zm4,515h3v-205h-3zm0,-252h3v-6h-3zm0,-12h3v-5h-3zm0,-36h3v-3h-3zm0,-149h3v-1h-3zm3,449h4v-129h-4zm0,-150h4v-17h-4zm0,-31h4v-33h-4zm0,-93h4v-10h-4zm4,274h4v-150h-4zm0,-167h4v-38h-4zm0,-79h4v-12h-4zm0,-33h4v-5h-4zm0,-9h4v-4h-4zm0,-19h4v-3h-4zm0,-7h4v-3h-4zm4,314h3v-167h-3zm0,-181h3v-13h-3zm0,-24h3v-9h-3zm0,-47h3v-12h-3zm0,-79h3v-3h-3zm3,331h4v-129h-4zm0,-167h4v-14h-4zm0,-133h4v-3h-4zm4,300h3v-167h-3zm0,-214h3v-9h-3zm0,-17h3v-8h-3zm0,-27h3v-6h-3zm0,-142h3v-1h-3zm3,400h4v-102h-4zm0,-205h4v-18h-4zm0,-47h4v-6h-4zm0,-17h4v-5h-4zm0,-65h4v-2h-4zm0,-27h4v-1h-4zm4,361h3v-150h-3zm0,-167h3v-14h-3zm0,-27h3v-11h-3zm0,-98h3v-4h-3zM791,70h3v-1h-3zm3,488h4v-102h-4zm0,-129h4v-38h-4zm0,-163h4v-4h-4zm4,292h3v-129h-3zm0,-167h3v-14h-3zm0,-79h3v-6h-3zm0,-135h3v-2h-3zm3,381h4v-181h-4zm0,-341h4v-3h-4zm4,341h3v-102h-3zm0,-214h3v-9h-3zm0,-215h3v-1h-3zm3,429h4v-102h-4zm0,-223h4v-8h-4zm4,223h3v-65h-3zm0,-314h3v-3h-3zm3,314h4v-150h-4zm0,-252h4v-6h-4zm0,-17h4v-5h-4zm0,-31h4v-3h-4zm0,-139h4v-1h-4zm4,439h3v-65h-3zm0,-129h3v-21h-3zm0,-52h3v-13h-3zm7,181h4v-65h-4zm0,-167h4v-14h-4zm4,167h3v-65h-3zm0,-150h3v-17h-3zm0,-44h3v-11h-3zm3,194h4v-65h-4zm0,-102h4v-27h-4zm4,102h3v-65h-3zm0,-150h3v-17h-3zm3,150h4v-65h-4zm4,0h3v-65h-3zm0,-150h3v-17h-3zm3,150h4v-65h-4zm0,-102h4v-48h-4zm4,102h3v-102h-3zm3,-150h4v-17h-4zm0,-119h4v-5h-4zm11,204h3v-37h-3zm3,65h4v-102h-4zm4,0h3v-65h-3zm0,-129h3v-21h-3zm10,-38h4v-14h-4zm4,167h4v-65h-4zm0,-181h4v-13h-4zm4,181h3v-65h-3zm3,0h4v-65h-4zM911,206h3v-3h-3zm14,352h3v-102h-3zm3,0h4v-65h-4zm7,-65h4v-37h-4zm15,65h3v-65h-3zm21,-65h3v-37h-3zm14,65h3v-65h-3zm7,-129h3v-21h-3z"></path><path fill="rgb(22,82,205)" d="M388,558h4v-65h-4zm4,-65h3v-37h-3zm3,-37h4v-48h-4zm4,-27h3v-21h-3zm3,0h4v-38h-4zm4,-21h3v-31h-3zm3,0h4v-31h-4zm4,0h4v-44h-4zm4,-17h3v-27h-3zm3,0h4v-27h-4zm4,0h3v-27h-3zm3,0h4v-27h-4zm4,0h3v-38h-3zm3,0h4v-38h-4zm4,0h3v-38h-3zm3,0h4v-38h-4zm4,-14h3v-24h-3zm3,0h4v-24h-4zm4,0h3v-24h-3zm3,0h4v-24h-4zm4,0h3v-24h-3zm3,0h4v-24h-4zm4,0h3v-24h-3zm3,0h4v-24h-4zm4,0h4v-24h-4zm4,0h3v-24h-3zm3,0h4v-24h-4zm4,0h3v-24h-3zm3,0h4v-24h-4zm4,0h3v-24h-3zm3,0h4v-24h-4zm4,0h3v-24h-3zm3,0h4v-24h-4zm4,0h3v-24h-3zm3,0h4v-24h-4zm4,0h3v-24h-3zm3,-13h4v-20h-4zm4,0h3v-20h-3zm3,0h4v-20h-4zm4,0h3v-20h-3zm3,-20h4v-32h-4zm4,20h4v-29h-4zm4,0h3v-20h-3zm3,0h4v-20h-4zm4,0h3v-11h-3zm3,0h4v-20h-4zm4,0h3v-20h-3zm3,0h4v-20h-4zm4,0h3v-20h-3zm3,0h4v-20h-4zm4,0h3v-20h-3zm3,0h4v-20h-4zm4,0h3v-20h-3zm3,0h4v-20h-4zm4,0h3v-20h-3zm3,0h4v-20h-4zm4,0h3v-20h-3zm3,0h4v-20h-4zm4,0h4v-20h-4zm4,0h3v-20h-3zm3,0h4v-20h-4zm4,13h3v-33h-3zm3,0h4v-33h-4zm4,0h3v-24h-3zm3,0h4v-24h-4zm4,0h3v-24h-3zm3,0h4v-24h-4zm4,0h3v-24h-3zm3,0h4v-24h-4zm4,0h3v-24h-3zm3,0h4v-24h-4zm4,14h3v-38h-3zm3,0h4v-27h-4zm4,0h3v-27h-3zm3,0h4v-27h-4zm4,17h4v-31h-4zm4,0h3v-31h-3zm3,0h4v-17h-4zm4,21h3v-38h-3zm3,0h4v-21h-4zm4,27h3v-27h-3zm3,102h4v-65h-4z"></path><path fill="rgb(16,100,220)" d="M395,493h4v-37h-4zm4,-37h3v-27h-3zm3,0h4v-27h-4zm4,-27h3v-21h-3zm3,0h4v-21h-4zm4,0h4v-21h-4zm4,0h3v-38h-3zm3,0h4v-38h-4zm4,-21h3v-17h-3zm3,0h4v-17h-4zm4,0h3v-17h-3zm3,0h4v-17h-4zm4,0h3v-17h-3zm3,0h4v-17h-4zm4,0h3v-31h-3zm3,-17h4v-14h-4zm4,0h3v-14h-3zm3,0h4v-14h-4zm4,0h3v-14h-3zm3,0h4v-14h-4zm4,0h3v-14h-3zm3,0h4v-14h-4zm4,0h4v-14h-4zm4,0h3v-14h-3zm3,0h4v-14h-4zm4,0h3v-14h-3zm3,0h4v-14h-4zm4,0h3v-14h-3zm3,0h4v-14h-4zm4,0h3v-14h-3zm3,0h4v-14h-4zm4,0h3v-14h-3zm3,0h4v-14h-4zm4,0h3v-14h-3zm3,-14h4v-13h-4zm4,0h3v-13h-3zm3,0h4v-13h-4zm4,0h3v-13h-3zm3,-13h4v-20h-4zm4,13h4v-13h-4zm4,0h3v-13h-3zm3,0h4v-13h-4zm4,0h3v-13h-3zm3,0h4v-13h-4zm4,0h3v-13h-3zm3,0h4v-13h-4zm4,0h3v-13h-3zm3,0h4v-13h-4zm4,0h3v-13h-3zm3,0h4v-13h-4zm4,0h3v-13h-3zm3,0h4v-13h-4zm4,0h3v-13h-3zm3,0h4v-13h-4zm4,0h3v-13h-3zm3,0h4v-13h-4zm4,0h4v-13h-4zm4,14h3v-27h-3zm3,0h4v-27h-4zm4,0h3v-14h-3zm3,0h4v-14h-4zm4,0h3v-14h-3zm3,0h4v-14h-4zm4,0h3v-14h-3zm3,0h4v-14h-4zm4,0h3v-14h-3zm3,0h4v-14h-4zm4,0h3v-14h-3zm3,17h4v-31h-4zm4,0h3v-17h-3zm3,0h4v-17h-4zm4,0h3v-17h-3zm3,21h4v-38h-4zm4,0h4v-21h-4zm4,0h3v-21h-3zm3,0h4v-21h-4zm4,27h3v-27h-3zm3,0h4v-27h-4zm4,37h3v-37h-3z"></path><path fill="rgb(18,114,217)" d="M392,558h3v-65h-3zm7,-65h3v-37h-3zm7,-37h3v-27h-3zm3,0h4v-27h-4zm4,0h4v-27h-4zm4,0h3v-27h-3zm7,-27h3v-21h-3zm3,0h4v-21h-4zm4,0h3v-21h-3zm3,0h4v-21h-4zm4,0h3v-21h-3zm3,0h4v-21h-4zm7,-21h4v-17h-4zm4,0h3v-17h-3zm3,0h4v-17h-4zm4,0h3v-17h-3zm3,0h4v-17h-4zm4,0h3v-17h-3zm3,0h4v-17h-4zm4,0h4v-17h-4zm4,0h3v-17h-3zm3,0h4v-17h-4zm4,0h3v-17h-3zm3,0h4v-17h-4zm28,-17h4v-14h-4zm4,0h3v-14h-3zm3,0h4v-14h-4zm4,0h3v-14h-3zm3,-14h4v-13h-4zm4,14h4v-14h-4zm4,0h3v-14h-3zm3,0h4v-14h-4zm4,0h3v-14h-3zm3,0h4v-14h-4zm4,0h3v-14h-3zm3,0h4v-14h-4zm4,0h3v-14h-3zm3,0h4v-14h-4zm4,0h3v-14h-3zm3,0h4v-14h-4zm4,0h3v-14h-3zm3,0h4v-14h-4zm4,0h3v-14h-3zm3,0h4v-14h-4zm4,0h3v-14h-3zm3,0h4v-14h-4zm4,0h4v-14h-4zm14,17h4v-17h-4zm4,0h3v-17h-3zm3,0h4v-17h-4zm4,0h3v-17h-3zm3,0h4v-17h-4zm4,0h3v-17h-3zm3,0h4v-17h-4zm4,0h3v-17h-3zm3,21h4v-21h-4zm4,0h3v-21h-3zm3,0h4v-21h-4zm4,0h3v-21h-3zm7,27h4v-27h-4zm4,0h3v-27h-3zm3,0h4v-27h-4zm7,37h4v-37h-4z"></path><path fill="rgb(20,129,214)" d="M402,493h4v-37h-4zm18,-37h4v-27h-4zm4,0h3v-27h-3zm3,0h4v-27h-4zm4,0h3v-27h-3zm3,0h4v-27h-4zm11,-27h3v-21h-3zm3,0h4v-21h-4zm4,0h3v-21h-3zm3,0h4v-21h-4zm4,0h3v-21h-3zm3,0h4v-21h-4zm4,0h3v-21h-3zm25,-21h3v-17h-3zm3,0h4v-17h-4zm4,0h3v-17h-3zm3,0h4v-17h-4zm4,0h3v-17h-3zm3,0h4v-17h-4zm4,0h3v-17h-3zm3,0h4v-17h-4zm4,0h3v-17h-3zm3,0h4v-17h-4zm4,0h3v-17h-3zm3,-17h4v-14h-4zm8,17h3v-17h-3zm3,0h4v-17h-4zm4,0h3v-17h-3zm3,0h4v-17h-4zm4,0h3v-17h-3zm3,0h4v-17h-4zm4,0h3v-17h-3zm3,0h4v-17h-4zm4,0h3v-17h-3zm3,0h4v-17h-4zm4,0h3v-17h-3zm3,0h4v-17h-4zm4,0h3v-17h-3zm3,0h4v-17h-4zm4,0h3v-17h-3zm3,0h4v-17h-4zm4,0h4v-17h-4zm4,0h3v-17h-3zm3,0h4v-17h-4zm4,0h3v-17h-3zm17,21h4v-21h-4zm4,0h3v-21h-3zm3,0h4v-21h-4zm4,0h3v-21h-3zm7,27h3v-27h-3zm3,0h4v-27h-4zm4,0h3v-27h-3zm3,0h4v-27h-4zm11,37h4v-37h-4zm4,0h3v-37h-3zm7,65h3v-65h-3z"></path><path fill="rgb(14,143,209)" d="M395,558h4v-65h-4zm11,-65h3v-37h-3zm3,0h4v-37h-4zm4,0h4v-37h-4zm25,-37h3v-27h-3zm3,0h4v-27h-4zm4,0h3v-27h-3zm24,-27h4v-21h-4zm4,0h4v-21h-4zm4,0h3v-21h-3zm3,0h4v-21h-4zm4,0h3v-21h-3zm3,0h4v-21h-4zm4,0h3v-21h-3zm42,-21h4v-17h-4zm67,21h4v-21h-4zm4,0h3v-21h-3zm3,0h4v-21h-4zm4,0h3v-21h-3zm3,0h4v-21h-4zm4,0h3v-21h-3zm10,27h4v-27h-4zm4,0h3v-27h-3zm3,0h4v-27h-4zm18,37h4v-37h-4zm4,0h3v-37h-3z"></path><path fill="rgb(9,157,204)" d="M399,558h3v-65h-3zm18,-65h3v-37h-3zm3,0h4v-37h-4zm4,0h3v-37h-3zm3,0h4v-37h-4zm4,0h3v-37h-3zm3,0h4v-37h-4zm14,-37h4v-27h-4zm4,0h3v-27h-3zm3,0h4v-27h-4zm4,0h3v-27h-3zm3,0h4v-27h-4zm32,-27h4v-21h-4zm4,0h3v-21h-3zm3,0h4v-21h-4zm4,0h3v-21h-3zm3,0h4v-21h-4zm4,0h3v-21h-3zm3,0h4v-21h-4zm4,0h3v-21h-3zm3,0h4v-21h-4zm7,-21h4v-17h-4zm43,21h3v-21h-3zm3,0h4v-21h-4zm4,0h3v-21h-3zm3,0h4v-21h-4zm4,0h3v-21h-3zm3,0h4v-21h-4zm4,0h4v-21h-4zm4,0h3v-21h-3zm21,27h3v-27h-3zm3,0h4v-27h-4zm4,0h3v-27h-3zm17,37h4v-37h-4zm4,0h3v-37h-3zm3,0h4v-37h-4zm18,65h4v-65h-4z"></path><path fill="rgb(13,167,195)" d="M402,558h4v-65h-4zm36,-65h3v-37h-3zm3,0h4v-37h-4zm4,0h3v-37h-3zm3,0h4v-37h-4zm18,-37h3v-27h-3zm3,0h4v-27h-4zm4,0h4v-27h-4zm4,0h3v-27h-3zm3,0h4v-27h-4zm4,0h3v-27h-3zm42,-27h3v-21h-3zm7,0h4v-21h-4zm4,0h3v-21h-3zm3,0h4v-21h-4zm4,0h3v-21h-3zm3,0h4v-21h-4zm4,0h3v-21h-3zm3,0h4v-21h-4zm4,0h3v-21h-3zm3,0h4v-21h-4zm4,0h3v-21h-3zm3,0h4v-21h-4zm39,27h4v-27h-4zm4,0h3v-27h-3zm3,0h4v-27h-4zm18,37h3v-37h-3zm3,0h4v-37h-4zm4,0h3v-37h-3zm21,65h4v-65h-4zm4,0h3v-65h-3z"></path><path fill="rgb(30,175,179)" d="M406,558h3v-65h-3zm46,-65h3v-37h-3zm3,0h4v-37h-4zm32,-37h4v-27h-4zm4,0h3v-27h-3zm3,0h4v-27h-4zm4,0h3v-27h-3zm3,0h4v-27h-4zm4,0h3v-27h-3zm3,0h4v-27h-4zm78,0h3v-27h-3zm3,0h4v-27h-4zm4,0h4v-27h-4zm4,0h3v-27h-3zm3,0h4v-27h-4zm4,0h3v-27h-3zm14,37h3v-37h-3zm3,0h4v-37h-4zm4,0h3v-37h-3zm3,0h4v-37h-4zm29,65h3v-65h-3z"></path><path fill="rgb(46,183,164)" d="M409,558h4v-65h-4zm50,-65h3v-37h-3zm3,0h4v-37h-4zm4,0h3v-37h-3zm3,0h4v-37h-4zm4,0h4v-37h-4zm4,0h3v-37h-3zm35,-37h3v-27h-3zm3,0h4v-27h-4zm4,0h3v-27h-3zm3,0h4v-27h-4zm4,0h3v-27h-3zm3,-27h4v-21h-4zm8,27h3v-27h-3zm3,0h4v-27h-4zm4,0h3v-27h-3zm3,0h4v-27h-4zm4,0h3v-27h-3zm3,0h4v-27h-4zm4,0h3v-27h-3zm3,0h4v-27h-4zm4,0h3v-27h-3zm3,0h4v-27h-4zm4,0h3v-27h-3zm3,0h4v-27h-4zm4,0h3v-27h-3zm3,0h4v-27h-4zm29,37h3v-37h-3zm3,0h4v-37h-4zm35,65h4v-65h-4zm4,0h4v-65h-4z"></path><path fill="rgb(82,186,146)" d="M413,558h4v-65h-4zm4,0h3v-65h-3zm3,0h4v-65h-4zm4,0h3v-65h-3zm3,0h4v-65h-4zm4,0h3v-65h-3zm49,-65h4v-37h-4zm4,0h3v-37h-3zm3,0h4v-37h-4zm4,0h3v-37h-3zm3,0h4v-37h-4zm4,0h3v-37h-3zm35,-37h4v-27h-4zm64,37h3v-37h-3zm3,0h4v-37h-4zm4,0h3v-37h-3zm3,0h4v-37h-4zm39,65h3v-65h-3z"></path><path fill="rgb(116,189,129)" d="M434,558h4v-65h-4zm4,0h3v-65h-3zm3,0h4v-65h-4zm4,0h3v-65h-3zm3,0h4v-65h-4zm4,0h3v-65h-3zm3,0h4v-65h-4zm4,0h3v-65h-3zm3,0h4v-65h-4zm39,-65h4v-37h-4zm4,0h3v-37h-3zm3,0h4v-37h-4zm4,0h3v-37h-3zm3,0h4v-37h-4zm4,0h3v-37h-3zm53,0h3v-37h-3zm3,0h4v-37h-4zm4,0h3v-37h-3zm3,0h4v-37h-4zm4,0h3v-37h-3zm3,0h4v-37h-4zm4,0h4v-37h-4zm39,65h3v-65h-3zm3,0h4v-65h-4zm4,0h3v-65h-3zm3,0h4v-65h-4z"></path><path fill="rgb(149,190,113)" d="M466,558h3v-65h-3zm3,0h4v-65h-4zm4,0h4v-65h-4zm4,0h3v-65h-3zm3,0h4v-65h-4zm42,-65h4v-37h-4zm4,0h3v-37h-3zm3,-37h4v-27h-4zm8,37h3v-37h-3zm3,0h4v-37h-4zm4,0h3v-37h-3zm3,0h4v-37h-4zm4,0h3v-37h-3zm3,0h4v-37h-4zm4,0h3v-37h-3zm3,0h4v-37h-4zm4,0h3v-37h-3zm3,0h4v-37h-4zm36,65h3v-65h-3zm3,0h4v-65h-4zm4,0h3v-65h-3zm3,0h4v-65h-4zm4,0h3v-65h-3zm3,0h4v-65h-4zm4,0h3v-65h-3zm3,0h4v-65h-4z"></path><path fill="rgb(179,189,101)" d="M484,558h3v-65h-3zm3,0h4v-65h-4zm4,0h3v-65h-3zm3,0h4v-65h-4zm4,0h3v-65h-3zm3,0h4v-65h-4zm32,-65h4v-37h-4zm60,65h4v-65h-4zm4,0h3v-65h-3zm3,0h4v-65h-4z"></path><path fill="rgb(209,187,89)" d="M505,558h3v-65h-3zm3,0h4v-65h-4zm4,0h3v-65h-3zm3,0h4v-65h-4zm4,0h3v-65h-3zm3,0h4v-65h-4zm4,0h3v-65h-3zm18,0h3v-65h-3zm3,0h4v-65h-4zm4,0h3v-65h-3zm10,0h4v-65h-4zm4,0h3v-65h-3zm3,0h4v-65h-4zm4,0h3v-65h-3zm3,0h4v-65h-4zm4,0h3v-65h-3zm3,0h4v-65h-4zm4,0h3v-65h-3zm3,0h4v-65h-4z"></path><path fill="rgb(226,192,75)" d="M537,558h3v-65h-3zm3,0h4v-65h-4zm14,0h4v-65h-4zm4,0h3v-65h-3z"></path><path fill="rgb(244,198,59)" d="M529,493h4v-37h-4zm4,65h4v-65h-4z"></path><path fill="rgb(249,249,15)" d="M529,558h4v-65h-4z"></path></g></svg><g><g transform="translate(0,558)"><path d="M0,0h1066" style="stroke: black; stroke-width: 1;"></path><path d="M1,-21v21m44,-11v11m45,-11v11m44,-11v11m44,-21v21m45,-11v11m44,-11v11m44,-11v11m45,-21v21m44,-11v11m44,-11v11m45,-11v11m44,-21v21m44,-11v11m45,-11v11m44,-11v11m44,-21v21m45,-11v11m44,-11v11m44,-11v11m45,-21v21m44,-11v11m44,-11v11m45,-11v11m44,-21v21" style="stroke: black; stroke-width: 1;"></path><g font-family="Arial" font-size="24" xml:space="preserve"><text fill="black" text-anchor="middle" dy=".8em" transform="translate(1,5)">-6</text><text fill="black" text-anchor="middle" dy=".8em" transform="translate(178,5)">-4</text><text fill="black" text-anchor="middle" dy=".8em" transform="translate(356,5)">-2</text><text fill="black" text-anchor="middle" dy=".8em" transform="translate(533,5)">0</text><text fill="black" text-anchor="middle" dy=".8em" transform="translate(710,5)">2</text><text fill="black" text-anchor="middle" dy=".8em" transform="translate(888,5)">4</text><text fill="black" text-anchor="middle" dy=".8em" transform="translate(1065,5)">6</text></g><rect x="0" y="0" width="1066" height="27" style="opacity: 0; cursor: crosshair;"></rect><g font-family="Arial" font-size="24" xml:space="preserve" style="cursor: move;" transform="translate(533,39)"><g transform="translate(-6,8)"><text fill="black" font-size="24">η</text></g></g></g><g><path d="M0,0v558" style="stroke: black; stroke-width: 1;"></path><path d="M40,558h-40m20,-65h-20m20,-37h-20m20,-27h-20m20,-21h-20m20,-17h-20m20,-14h-20m20,-13h-20m20,-11h-20m40,-9h-40m20,-65h-20m20,-38h-20m20,-27h-20m20,-20h-20m20,-17h-20m20,-15h-20m20,-12h-20m20,-11h-20m40,-10h-40m20,-64h-20m20,-38h-20m20,-27h-20" style="stroke: black; stroke-width: 1;"></path><g font-family="Arial" font-size="24" xml:space="preserve"><g transform="translate(-41,567)"><text fill="black" font-size="24">10</text><text fill="black" font-size="14" transform="translate(26,-11)">-1</text></g><g transform="translate(-37,353)"><text fill="black" font-size="24">10</text><text fill="black" font-size="14" transform="translate(26,-11)">0</text></g><g transform="translate(-36,138)"><text fill="black" font-size="24">10</text><text fill="black" font-size="14" transform="translate(26,-11)">1</text></g></g><rect x="-41" y="0" width="41" height="558" style="opacity: 0; cursor: crosshair;"></rect><g font-family="Arial" font-size="24" xml:space="preserve" transform="translate(-63,279)" style="cursor: move;"><g transform=" rotate(270) translate(-53,7)"><text font-style="italic" fill="black" font-size="24">p</text><text fill="black" font-size="14" transform="translate(15,5)">T</text><text fill="black" font-size="24" x="24"> (GeV/c)</text></g></g></g></g><path d="M2,2h15v-5h-20v20h5Z" style="opacity: 0; cursor: nw-resize;"></path><path d="M1064,2h-15v-5h20v20h-5 Z" style="opacity: 0; cursor: ne-resize;"></path><path d="M2,556h15v5h-20v-20h5Z" style="opacity: 0; cursor: sw-resize;"></path><path d="M1064,556h-15v5h20v-20h-5Z" style="opacity: 0; cursor: se-resize;"></path><path d="M-3,18h5v522h-5Z" style="opacity: 0; cursor: w-resize;"></path><path d="M1069,18h-5v522h5Z" style="opacity: 0; cursor: e-resize;"></path><path d="M18,-3v5h1030v-5Z" style="opacity: 0; cursor: n-resize;"></path><path d="M18,561v-5h1030v5Z" style="opacity: 0; cursor: s-resize;"></path></g><g transform="translate(133,3)" font-family="Arial" font-size="35" xml:space="preserve" x="133" y="3" width="1066" height="46" style="cursor: move;"><path d="M0,0H1066V46H0Z" style="fill: none; pointer-events: visiblefill;"></path><g transform="translate(499,34)"><text fill="black" font-size="38">η-</text><text font-style="italic" fill="black" font-size="38" transform="translate(33)">p</text><text fill="black" font-size="23" transform="translate(55,7)">T</text></g><path d="M2,2h15v-5h-20v20h5Z" style="opacity: 0; cursor: nw-resize;"></path><path d="M1064,2h-15v-5h20v20h-5 Z" style="opacity: 0; cursor: ne-resize;"></path><path d="M2,44h15v5h-20v-20h5Z" style="opacity: 0; cursor: sw-resize;"></path><path d="M1064,44h-15v5h20v-20h-5Z" style="opacity: 0; cursor: se-resize;"></path><path d="M-3,18h5v10h-5Z" style="opacity: 0; cursor: w-resize;"></path><path d="M1069,18h-5v10h5Z" style="opacity: 0; cursor: e-resize;"></path><path d="M18,-3v5h1030v-5Z" style="opacity: 0; cursor: n-resize;"></path><path d="M18,49v-5h1030v5Z" style="opacity: 0; cursor: s-resize;"></path></g><g transform="translate(1206,70)" x="1206" y="70" width="53" height="558" style="cursor: move;"><path d="M0,0H53V558H0Z" style="fill: none; stroke: black; stroke-width: 1; pointer-events: visiblefill;"></path><rect x="0" y="530" width="53" height="28" style="fill: rgb(38, 62, 168); stroke: rgb(38, 62, 168);"></rect><rect x="0" y="502" width="53" height="28" style="fill: rgb(22, 82, 205); stroke: rgb(22, 82, 205);"></rect><rect x="0" y="474" width="53" height="28" style="fill: rgb(16, 100, 220); stroke: rgb(16, 100, 220);"></rect><rect x="0" y="446" width="53" height="28" style="fill: rgb(18, 114, 217); stroke: rgb(18, 114, 217);"></rect><rect x="0" y="419" width="53" height="27" style="fill: rgb(20, 129, 214); stroke: rgb(20, 129, 214);"></rect><rect x="0" y="391" width="53" height="28" style="fill: rgb(14, 143, 209); stroke: rgb(14, 143, 209);"></rect><rect x="0" y="363" width="53" height="28" style="fill: rgb(9, 157, 204); stroke: rgb(9, 157, 204);"></rect><rect x="0" y="335" width="53" height="28" style="fill: rgb(13, 167, 195); stroke: rgb(13, 167, 195);"></rect><rect x="0" y="307" width="53" height="28" style="fill: rgb(30, 175, 179); stroke: rgb(30, 175, 179);"></rect><rect x="0" y="279" width="53" height="28" style="fill: rgb(46, 183, 164); stroke: rgb(46, 183, 164);"></rect><rect x="0" y="251" width="53" height="28" style="fill: rgb(82, 186, 146); stroke: rgb(82, 186, 146);"></rect><rect x="0" y="223" width="53" height="28" style="fill: rgb(116, 189, 129); stroke: rgb(116, 189, 129);"></rect><rect x="0" y="195" width="53" height="28" style="fill: rgb(149, 190, 113); stroke: rgb(149, 190, 113);"></rect><rect x="0" y="167" width="53" height="28" style="fill: rgb(179, 189, 101); stroke: rgb(179, 189, 101);"></rect><rect x="0" y="140" width="53" height="27" style="fill: rgb(209, 187, 89); stroke: rgb(209, 187, 89);"></rect><rect x="0" y="112" width="53" height="28" style="fill: rgb(226, 192, 75); stroke: rgb(226, 192, 75);"></rect><rect x="0" y="84" width="53" height="28" style="fill: rgb(244, 198, 59); stroke: rgb(244, 198, 59);"></rect><rect x="0" y="56" width="53" height="28" style="fill: rgb(253, 210, 43); stroke: rgb(253, 210, 43);"></rect><rect x="0" y="28" width="53" height="28" style="fill: rgb(251, 230, 29); stroke: rgb(251, 230, 29);"></rect><rect x="0" y="0" width="53" height="28" style="fill: rgb(249, 249, 15); stroke: rgb(249, 249, 15);"></rect><g transform="translate(53, 0)"><path d="M0,0v558" style="stroke: black; stroke-width: 1;"></path><path d="M0,558h-28m28,-83h-28m28,-82h-28m28,-83h-28m28,-83h-28m28,-82h-28m28,-83h-28" style="stroke: black; stroke-width: 1;"></path><g font-family="Arial" font-size="24" xml:space="preserve"><text fill="black" text-anchor="start" dominant-baseline="middle" transform="translate(3,558)">0</text><text fill="black" text-anchor="start" dominant-baseline="middle" transform="translate(3,475)">100</text><text fill="black" text-anchor="start" dominant-baseline="middle" transform="translate(3,393)">200</text><text fill="black" text-anchor="start" dominant-baseline="middle" transform="translate(3,310)">300</text><text fill="black" text-anchor="start" dominant-baseline="middle" transform="translate(3,227)">400</text><text fill="black" text-anchor="start" dominant-baseline="middle" transform="translate(3,145)">500</text><text fill="black" text-anchor="start" dominant-baseline="middle" transform="translate(3,62)">600</text><g transform="translate(-53,-8)"><text fill="black" font-size="24">×10</text><text fill="black" font-size="14" transform="translate(40,-11)">3</text></g></g><rect x="0" y="0" width="43" height="558" style="opacity: 0; cursor: crosshair;"></rect></g><path d="M2,2h15v-5h-20v20h5Z" style="opacity: 0; cursor: nw-resize;"></path><path d="M51,2h-15v-5h20v20h-5 Z" style="opacity: 0; cursor: ne-resize;"></path><path d="M2,556h15v5h-20v-20h5Z" style="opacity: 0; cursor: sw-resize;"></path><path d="M51,556h-15v5h20v-20h-5Z" style="opacity: 0; cursor: se-resize;"></path><path d="M-3,18h5v522h-5Z" style="opacity: 0; cursor: w-resize;"></path><path d="M56,18h-5v522h5Z" style="opacity: 0; cursor: e-resize;"></path><path d="M18,-3v5h17v-5Z" style="opacity: 0; cursor: n-resize;"></path><path d="M18,561v-5h17v5Z" style="opacity: 0; cursor: s-resize;"></path></g><g transform="translate(926,44)" font-family="Arial" font-size="26" xml:space="preserve" x="926" y="44" width="267" height="185" style="cursor: move;"><path d="M0,0H267V185H0Z" style="fill: white; stroke: black; stroke-width: 1; pointer-events: visiblefill;"></path><text fill="black" text-anchor="middle" dominant-baseline="middle" transform="translate(134,15)">eta_pT</text><text fill="black" text-anchor="start" dominant-baseline="middle" transform="translate(13,46)">Entries </text><text fill="black" text-anchor="end" dominant-baseline="middle" transform="translate(254,46)"> 346767269</text><text fill="black" text-anchor="start" dominant-baseline="middle" transform="translate(13,77)">Mean x </text><text fill="black" text-anchor="end" dominant-baseline="middle" transform="translate(254,77)"> 0.02585</text><text fill="black" text-anchor="start" dominant-baseline="middle" transform="translate(13,108)">Mean y </text><text fill="black" text-anchor="end" dominant-baseline="middle" transform="translate(254,108)"> 0.2966</text><text fill="black" text-anchor="start" dominant-baseline="middle" transform="translate(13,139)">Std Dev x </text><text fill="black" text-anchor="end" dominant-baseline="middle" transform="translate(254,139)"> 0.5905</text><text fill="black" text-anchor="start" dominant-baseline="middle" transform="translate(13,170)">Std Dev y </text><text fill="black" text-anchor="end" dominant-baseline="middle" transform="translate(254,170)"> 1.342</text><path d="M0,31h267" style="stroke: black; stroke-width: 1;"></path><path d="M2,2h15v-5h-20v20h5Z" style="opacity: 0; cursor: nw-resize;"></path><path d="M265,2h-15v-5h20v20h-5 Z" style="opacity: 0; cursor: ne-resize;"></path><path d="M2,183h15v5h-20v-20h5Z" style="opacity: 0; cursor: sw-resize;"></path><path d="M265,183h-15v5h20v-20h-5Z" style="opacity: 0; cursor: se-resize;"></path><path d="M-3,18h5v149h-5Z" style="opacity: 0; cursor: w-resize;"></path><path d="M270,18h-5v149h5Z" style="opacity: 0; cursor: e-resize;"></path><path d="M18,-3v5h231v-5Z" style="opacity: 0; cursor: n-resize;"></path><path d="M18,188v-5h231v5Z" style="opacity: 0; cursor: s-resize;"></path></g></g></svg>