<svg width="1335" height="717" xmlns="http://www.w3.org/2000/svg"><defs><pattern id="pat_3001_1" patternUnits="userSpaceOnUse" width="2" height="2"><path d="M0,0h1v1h-1zM1,1h1v1h-1z" style="fill: black;"></path></pattern><pattern id="pat_3002_1" patternUnits="userSpaceOnUse" width="4" height="2"><path d="M1,0h1v1h-1zM3,1h1v1h-1z" style="fill: black;"></path></pattern><pattern id="pat_3003_1" patternUnits="userSpaceOnUse" width="4" height="4"><path d="M2,1h1v1h-1zM0,3h1v1h-1z" style="fill: black;"></path></pattern><pattern id="pat_3004_1" patternUnits="userSpaceOnUse" width="8" height="8"><path d="M8,0L0,8" style="stroke: black; stroke-width: 1;"></path></pattern><pattern id="pat_3005_1" patternUnits="userSpaceOnUse" width="8" height="8"><path d="M0,0L8,8" style="stroke: black; stroke-width: 1;"></path></pattern><pattern id="pat_3006_1" patternUnits="userSpaceOnUse" width="4" height="4"><path d="M1,0v4" style="stroke: black; stroke-width: 1;"></path></pattern><pattern id="pat_3007_1" patternUnits="userSpaceOnUse" width="4" height="4"><path d="M0,1h4" style="stroke: black; stroke-width: 1;"></path></pattern><pattern id="pat_3010_1" patternUnits="userSpaceOnUse" width="10" height="10"><path d="M0,2h10M0,7h10M2,0v2M7,2v5M2,7v3" style="stroke: black; stroke-width: 1;"></path></pattern><pattern id="pat_3021_1" patternUnits="userSpaceOnUse" width="8" height="8"><path d="M8,2h-2v4h-4v2M2,0v2h-2" style="stroke: black; stroke-width: 1; fill: none;"></path></pattern><pattern id="pat_3022_1" patternUnits="userSpaceOnUse" width="8" height="8"><path d="M0,2h2v4h4v2M6,0v2h2" style="stroke: black; stroke-width: 1; fill: none;"></path></pattern></defs><title>ROOT canvas</title><path d="M0,0H1335V717H0Z" style="pointer-events: visiblefill; fill: rgb(243, 243, 243);"></path><g><g transform="translate(134,72)" x="134" y="72" width="1068" height="574"><title></title><path d="M0,0H1068V574H0Z" pointer-events="visibleFill" style="fill: rgb(243, 243, 243); stroke: black; stroke-width: 1;"></path><svg x="0" y="0" overflow="hidden" width="1068" height="574" viewBox="0 0 1068 574" style="pointer-events: visiblefill;"><g><path d="M0,579h4M2,579v0M4,579h4M6,579v0M7,579h4M9,579v0M11,579h4M13,579v0M14,579h4M16,579v0M18,579h4M20,579v0M21,535h4M23,513v66M25,579h4M27,579v0M28,579h4M30,579v0M32,579h4M34,579v0M35,579h4M37,579v0M39,579h4M41,579v0M42,579h4M44,579v0M46,579h4M48,579v0M50,579h4M52,579v0M53,579h4M55,579v0M57,579h4M59,579v0M60,579h4M62,579v0M64,579h4M66,579v0M67,579h4M69,579v0M71,579h4M73,579v0M74,491h4M76,478v35M78,513h4M80,496v57M81,535h4M83,513v66M85,579h4M87,579v0M88,500h4M90,485v43M92,513h4M94,496v57M95,535h4M97,513v66M99,513h4M101,496v57M103,500h4M105,485v43M106,491h4M108,478v35M110,500h4M112,485v43M113,579h4M115,579v0M117,500h4M119,485v43M120,469h4M122,459v24M124,535h4M126,513v66M127,484h4M129,472v31M131,461h4M133,453v21M134,473h4M136,463v25M138,478h4M140,467v28M141,473h4M143,463v25M145,473h4M147,463v25M149,478h4M151,467v28M152,491h4M154,478v35M156,461h4M158,453v21M159,458h4M161,450v20M163,448h4M165,441v17M166,456h4M168,447v20M170,444h4M172,437v16M173,451h4M175,443v18M177,444h4M179,437v16M180,439h4M182,433v14M184,441h4M186,434v15M187,453h4M189,445v18M191,446h4M193,439v17M195,441h4M197,434v15M198,441h4M200,434v15M202,448h4M204,441v17M205,436h4M207,430v14M209,458h4M211,450v20M212,435h4M214,429v13M216,438h4M218,431v15M219,433h4M221,427v14M223,427h4M225,422v12M226,430h4M228,424v12M230,432h4M232,426v13M233,425h4M235,420v12M237,418h4M239,413v10M240,403h4M242,400v8M244,405h4M246,401v8M248,408h4M250,404v9M251,407h4M253,403v9M255,409h4M257,405v9M258,405h4M260,401v8M262,395h4M264,391v8M265,394h4M267,391v7M269,396h4M271,393v7M272,390h4M274,387v6M276,390h4M278,387v7M279,386h4M281,383v7M283,376h4M285,373v6M286,378h4M288,375v6M290,379h4M292,376v6M294,375h4M296,372v6M297,376h4M299,374v5M301,370h4M303,367v5M304,367h4M306,364v5M308,370h4M310,368v5M311,366h4M313,364v4M315,367h4M317,364v5M318,367h4M320,364v5M322,363h4M324,361v4M325,361h4M327,359v4M329,354h4M331,352v4M332,357h4M334,355v4M336,350h4M338,349v3M339,347h4M341,346v3M343,345h4M345,344v3M347,341h4M349,340v3M350,336h4M352,335v3M354,330h4M356,329v3M357,326h4M359,324v3M361,320h4M363,319v2M364,313h4M366,312v2M368,302h4M370,302v1M371,280h4M373,280v1M375,252h4M377,252v1M378,223h4M380,223v1M382,196h4M384,196v0M385,170h4M387,170v1M389,142h4M391,141v1M393,116h4M395,116v0M396,102h4M398,102v0M400,92h4M402,92v0M403,86h4M405,86v0M407,82h4M409,82v0M410,79h4M412,79v0M414,77h4M416,77v0M417,75h4M419,75v0M421,74h4M423,74v0M424,73h4M426,73v0M428,72h4M430,72v0M431,71h4M433,71v0M435,71h4M437,71v0M439,70h4M441,70v0M442,70h4M444,70v0M446,69h4M448,69v0M449,68h4M451,68v0M453,68h4M455,68v0M456,67h4M458,67v0M460,66h4M462,66v1M463,66h4M465,66v0M467,65h4M469,65v0M470,64h4M472,64v1M474,64h4M476,64v0M477,63h4M479,63v0M481,62h4M483,62v0M484,62h4M486,62v0M488,61h4M490,61v0M492,61h4M494,61v0M495,60h4M497,60v0M499,60h4M501,60v0M502,59h4M504,59v0M506,59h4M508,59v0M509,58h4M511,58v0M513,58h4M515,58v0M516,57h4M518,57v0M520,56h4M522,56v0M523,54h4M525,54v0M527,45h4M529,44v1M530,2h4M532,2v0M534,2h4M536,2v0M538,43h4M540,43v0M541,54h4M543,54v0M545,55h4M547,55v0M548,56h4M550,56v0M552,56h4M554,56v0M555,56h4M557,56v0M559,56h4M561,56v0M562,56h4M564,56v0M566,57h4M568,56v1M569,57h4M571,57v0M573,57h4M575,57v0M576,57h4M578,57v0M580,58h4M582,58v0M584,58h4M586,58v0M587,59h4M589,59v0M591,59h4M593,59v0M594,60h4M596,60v0M598,60h4M600,60v0M601,61h4M603,61v0M605,62h4M607,62v0M608,62h4M610,62v0M612,63h4M614,63v0M615,63h4M617,63v0M619,64h4M621,64v0M622,64h4M624,64v1M626,65h4M628,65v0M629,66h4M631,66v0M633,67h4M635,67v0M637,68h4M639,68v0M640,69h4M642,69v0M644,70h4M646,70v0M647,71h4M649,71v0M651,73h4M653,73v0M654,75h4M656,75v0M658,78h4M660,78v0M661,81h4M663,81v0M665,86h4M667,86v0M668,93h4M670,92v1M672,106h4M674,106v0M675,135h4M677,135v0M679,169h4M681,169v0M683,198h4M685,198v0M686,227h4M688,226v1M690,256h4M692,256v1M693,286h4M695,285v1M697,305h4M699,305v1M700,320h4M702,319v2M704,324h4M706,323v2M707,328h4M709,326v3M711,333h4M713,332v2M714,337h4M716,336v3M718,340h4M720,338v4M721,347h4M723,345v4M725,347h4M727,345v3M729,352h4M731,350v4M732,352h4M734,351v3M736,355h4M738,353v4M739,362h4M741,360v4M743,365h4M745,362v5M746,366h4M748,363v5M750,366h4M752,364v4M753,370h4M755,368v5M757,370h4M759,368v5M760,369h4M762,367v5M764,371h4M766,369v5M767,377h4M769,375v5M771,381h4M773,378v6M774,379h4M776,377v5M778,385h4M780,382v6M782,390h4M784,386v7M785,382h4M787,379v6M789,386h4M791,383v6M792,396h4M794,393v7M796,402h4M798,398v8M799,396h4M801,393v7M803,403h4M805,399v8M806,402h4M808,399v8M810,409h4M812,405v9M813,415h4M815,411v10M817,409h4M819,404v9M820,406h4M822,402v9M824,410h4M826,406v9M828,423h4M830,418v11M831,441h4M833,434v15M835,443h4M837,436v15M838,453h4M840,445v18M842,430h4M844,424v12M845,432h4M847,426v13M849,439h4M851,433v14M852,451h4M854,443v18M856,427h4M858,422v12M859,456h4M861,447v20M863,446h4M865,439v17M866,456h4M868,447v20M870,444h4M872,437v16M873,456h4M875,447v20M877,453h4M879,445v18M881,448h4M883,441v17M884,456h4M886,447v20M888,443h4M890,436v15M891,441h4M893,434v15M895,478h4M897,467v28M898,448h4M900,441v17M902,461h4M904,453v21M905,456h4M907,447v20M909,469h4M911,459v24M912,446h4M914,439v17M916,484h4M918,472v31M919,469h4M921,459v24M923,484h4M925,472v31M927,448h4M929,441v17M930,469h4M932,459v24M934,473h4M936,463v25M937,478h4M939,467v28M941,491h4M943,478v35M944,484h4M946,472v31M948,484h4M950,472v31M951,484h4M953,472v31M955,500h4M957,485v43M958,513h4M960,496v57M962,500h4M964,485v43M965,484h4M967,472v31M969,535h4M971,513v66M973,513h4M975,496v57M976,500h4M978,485v43M980,535h4M982,513v66M983,513h4M985,496v57M987,491h4M989,478v35M990,579h4M992,579v0M994,513h4M996,496v57M997,579h4M999,579v0M1001,579h4M1003,579v0M1004,579h4M1006,579v0M1008,535h4M1010,513v66M1011,535h4M1013,513v66M1015,579h4M1017,579v0M1018,579h4M1020,579v0M1022,579h4M1024,579v0M1026,579h4M1028,579v0M1029,513h4M1031,496v57M1033,579h4M1035,579v0M1036,579h4M1038,579v0M1040,535h4M1042,513v66M1043,579h4M1045,579v0M1047,579h4M1049,579v0M1050,579h4M1052,579v0M1054,535h4M1056,513v66M1057,579h4M1059,579v0M1061,579h4M1063,579v0M1064,579h4M1066,579v0" style="stroke: rgb(0, 0, 154); stroke-width: 1;"></path><path d="M0,579h4v0h-4zM4,579h4v0h-4zM7,579h4v0h-4zM11,579h4v0h-4zM14,579h4v0h-4zM18,579h4v0h-4zM21,513h4v66h-4zM25,579h4v0h-4zM28,579h4v0h-4zM32,579h4v0h-4zM35,579h4v0h-4zM39,579h4v0h-4zM42,579h4v0h-4zM46,579h4v0h-4zM50,579h4v0h-4zM53,579h4v0h-4zM57,579h4v0h-4zM60,579h4v0h-4zM64,579h4v0h-4zM67,579h4v0h-4zM71,579h4v0h-4zM74,478h4v35h-4zM78,496h4v57h-4zM81,513h4v66h-4zM85,579h4v0h-4zM88,485h4v43h-4zM92,496h4v57h-4zM95,513h4v66h-4zM99,496h4v57h-4zM103,485h4v43h-4zM106,478h4v35h-4zM110,485h4v43h-4zM113,579h4v0h-4zM117,485h4v43h-4zM120,459h4v24h-4zM124,513h4v66h-4zM127,472h4v31h-4zM131,453h4v21h-4zM134,463h4v25h-4zM138,467h4v28h-4zM141,463h4v25h-4zM145,463h4v25h-4zM149,467h4v28h-4zM152,478h4v35h-4zM156,453h4v21h-4zM159,450h4v20h-4zM163,441h4v17h-4zM166,447h4v20h-4zM170,437h4v16h-4zM173,443h4v18h-4zM177,437h4v16h-4zM180,433h4v14h-4zM184,434h4v15h-4zM187,445h4v18h-4zM191,439h4v17h-4zM195,434h4v15h-4zM198,434h4v15h-4zM202,441h4v17h-4zM205,430h4v14h-4zM209,450h4v20h-4zM212,429h4v13h-4zM216,431h4v15h-4zM219,427h4v14h-4zM223,422h4v12h-4zM226,424h4v12h-4zM230,426h4v13h-4zM233,420h4v12h-4zM237,413h4v10h-4zM240,400h4v8h-4zM244,401h4v8h-4zM248,404h4v9h-4zM251,403h4v9h-4zM255,405h4v9h-4zM258,401h4v8h-4zM262,391h4v8h-4zM265,391h4v7h-4zM269,393h4v7h-4zM272,387h4v6h-4zM276,387h4v7h-4zM279,383h4v7h-4zM283,373h4v6h-4zM286,375h4v6h-4zM290,376h4v6h-4zM294,372h4v6h-4zM297,374h4v5h-4zM301,367h4v5h-4zM304,364h4v5h-4zM308,368h4v5h-4zM311,364h4v4h-4zM315,364h4v5h-4zM318,364h4v5h-4zM322,361h4v4h-4zM325,359h4v4h-4zM329,352h4v4h-4zM332,355h4v4h-4zM336,349h4v3h-4zM339,346h4v3h-4zM343,344h4v3h-4zM347,340h4v3h-4zM350,335h4v3h-4zM354,329h4v3h-4zM357,324h4v3h-4zM361,319h4v2h-4zM364,312h4v2h-4zM368,302h4v1h-4zM371,280h4v1h-4zM375,252h4v1h-4zM378,223h4v1h-4zM382,196h4v0h-4zM385,170h4v1h-4zM389,141h4v1h-4zM393,116h4v0h-4zM396,102h4v0h-4zM400,92h4v0h-4zM403,86h4v0h-4zM407,82h4v0h-4zM410,79h4v0h-4zM414,77h4v0h-4zM417,75h4v0h-4zM421,74h4v0h-4zM424,73h4v0h-4zM428,72h4v0h-4zM431,71h4v0h-4zM435,71h4v0h-4zM439,70h4v0h-4zM442,70h4v0h-4zM446,69h4v0h-4zM449,68h4v0h-4zM453,68h4v0h-4zM456,67h4v0h-4zM460,66h4v1h-4zM463,66h4v0h-4zM467,65h4v0h-4zM470,64h4v1h-4zM474,64h4v0h-4zM477,63h4v0h-4zM481,62h4v0h-4zM484,62h4v0h-4zM488,61h4v0h-4zM492,61h4v0h-4zM495,60h4v0h-4zM499,60h4v0h-4zM502,59h4v0h-4zM506,59h4v0h-4zM509,58h4v0h-4zM513,58h4v0h-4zM516,57h4v0h-4zM520,56h4v0h-4zM523,54h4v0h-4zM527,44h4v1h-4zM530,2h4v0h-4zM534,2h4v0h-4zM538,43h4v0h-4zM541,54h4v0h-4zM545,55h4v0h-4zM548,56h4v0h-4zM552,56h4v0h-4zM555,56h4v0h-4zM559,56h4v0h-4zM562,56h4v0h-4zM566,56h4v1h-4zM569,57h4v0h-4zM573,57h4v0h-4zM576,57h4v0h-4zM580,58h4v0h-4zM584,58h4v0h-4zM587,59h4v0h-4zM591,59h4v0h-4zM594,60h4v0h-4zM598,60h4v0h-4zM601,61h4v0h-4zM605,62h4v0h-4zM608,62h4v0h-4zM612,63h4v0h-4zM615,63h4v0h-4zM619,64h4v0h-4zM622,64h4v1h-4zM626,65h4v0h-4zM629,66h4v0h-4zM633,67h4v0h-4zM637,68h4v0h-4zM640,69h4v0h-4zM644,70h4v0h-4zM647,71h4v0h-4zM651,73h4v0h-4zM654,75h4v0h-4zM658,78h4v0h-4zM661,81h4v0h-4zM665,86h4v0h-4zM668,92h4v1h-4zM672,106h4v0h-4zM675,135h4v0h-4zM679,169h4v0h-4zM683,198h4v0h-4zM686,226h4v1h-4zM690,256h4v1h-4zM693,285h4v1h-4zM697,305h4v1h-4zM700,319h4v2h-4zM704,323h4v2h-4zM707,326h4v3h-4zM711,332h4v2h-4zM714,336h4v3h-4zM718,338h4v4h-4zM721,345h4v4h-4zM725,345h4v3h-4zM729,350h4v4h-4zM732,351h4v3h-4zM736,353h4v4h-4zM739,360h4v4h-4zM743,362h4v5h-4zM746,363h4v5h-4zM750,364h4v4h-4zM753,368h4v5h-4zM757,368h4v5h-4zM760,367h4v5h-4zM764,369h4v5h-4zM767,375h4v5h-4zM771,378h4v6h-4zM774,377h4v5h-4zM778,382h4v6h-4zM782,386h4v7h-4zM785,379h4v6h-4zM789,383h4v6h-4zM792,393h4v7h-4zM796,398h4v8h-4zM799,393h4v7h-4zM803,399h4v8h-4zM806,399h4v8h-4zM810,405h4v9h-4zM813,411h4v10h-4zM817,404h4v9h-4zM820,402h4v9h-4zM824,406h4v9h-4zM828,418h4v11h-4zM831,434h4v15h-4zM835,436h4v15h-4zM838,445h4v18h-4zM842,424h4v12h-4zM845,426h4v13h-4zM849,433h4v14h-4zM852,443h4v18h-4zM856,422h4v12h-4zM859,447h4v20h-4zM863,439h4v17h-4zM866,447h4v20h-4zM870,437h4v16h-4zM873,447h4v20h-4zM877,445h4v18h-4zM881,441h4v17h-4zM884,447h4v20h-4zM888,436h4v15h-4zM891,434h4v15h-4zM895,467h4v28h-4zM898,441h4v17h-4zM902,453h4v21h-4zM905,447h4v20h-4zM909,459h4v24h-4zM912,439h4v17h-4zM916,472h4v31h-4zM919,459h4v24h-4zM923,472h4v31h-4zM927,441h4v17h-4zM930,459h4v24h-4zM934,463h4v25h-4zM937,467h4v28h-4zM941,478h4v35h-4zM944,472h4v31h-4zM948,472h4v31h-4zM951,472h4v31h-4zM955,485h4v43h-4zM958,496h4v57h-4zM962,485h4v43h-4zM965,472h4v31h-4zM969,513h4v66h-4zM973,496h4v57h-4zM976,485h4v43h-4zM980,513h4v66h-4zM983,496h4v57h-4zM987,478h4v35h-4zM990,579h4v0h-4zM994,496h4v57h-4zM997,579h4v0h-4zM1001,579h4v0h-4zM1004,579h4v0h-4zM1008,513h4v66h-4zM1011,513h4v66h-4zM1015,579h4v0h-4zM1018,579h4v0h-4zM1022,579h4v0h-4zM1026,579h4v0h-4zM1029,496h4v57h-4zM1033,579h4v0h-4zM1036,579h4v0h-4zM1040,513h4v66h-4zM1043,579h4v0h-4zM1047,579h4v0h-4zM1050,579h4v0h-4zM1054,513h4v66h-4zM1057,579h4v0h-4zM1061,579h4v0h-4zM1064,579h4v0h-4z" stroke="none" fill="none" pointer-events="visibleFill"></path><path d="M0,579h21v-44h4v44h49v-88h4v22h3v22h4v44h3v-79h4v13h3v22h4v-22h4v-13h3v-9h4v9h3v79h4v-79h3v-31h4v66h3v-51h4v-23h3v12h4v5h3v-5h8v5h3v13h4v-30h3v-3h4v-10h3v8h4v-12h3v7h4v-7h3v-5h4v2h3v12h4v-7h4v-5h7v7h3v-12h4v22h3v-23h4v3h3v-5h4v-6h3v3h4v2h3v-7h4v-7h3v-15h4v2h4v3h3v-1h4v2h3v-4h4v-10h3v-1h4v2h3v-6h7v-4h4v-10h3v2h4v1h4v-4h3v1h4v-6h3v-3h4v3h3v-4h4v1h7v-4h3v-2h4v-7h3v3h4v-7h3v-3h4v-2h4v-4h3v-5h4v-6h3v-4h4v-6h3v-7h4v-11h3v-22h4v-28h3v-29h4v-27h3v-26h4v-28h4v-26h3v-14h4v-10h3v-6h4v-4h3v-3h4v-2h3v-2h4v-1h3v-1h4v-1h3v-1h8v-1h7v-1h3v-1h7v-1h4v-1h7v-1h3v-1h7v-1h4v-1h7v-1h7v-1h7v-1h7v-1h7v-1h4v-1h3v-2h4v-9h3v-43h8v41h3v11h4v1h3v1h18v1h14v1h7v1h7v1h7v1h4v1h7v1h7v1h7v1h3v1h4v1h4v1h3v1h4v1h3v1h4v2h3v2h4v3h3v3h4v5h3v7h4v13h3v29h4v34h4v29h3v29h4v29h3v30h4v19h3v15h4v4h3v4h4v5h3v4h4v3h3v7h8v5h7v3h3v7h4v3h3v1h7v4h7v-1h4v2h3v6h4v4h3v-2h4v6h4v5h3v-8h4v4h3v10h4v6h3v-6h4v7h3v-1h4v7h3v6h4v-6h3v-3h4v4h4v13h3v18h4v2h3v10h4v-23h3v2h4v7h3v12h4v-24h3v29h4v-10h3v10h4v-12h3v12h4v-3h4v-5h3v8h4v-13h3v-2h4v37h3v-30h4v13h3v-5h4v13h3v-23h4v38h3v-15h4v15h4v-36h3v21h4v4h3v5h4v13h3v-7h11v16h3v13h4v-13h3v-16h4v51h4v-22h3v-13h4v35h3v-22h4v-22h3v88h4v-66h3v66h11v-44h7v44h14v-66h4v66h7v-44h3v44h11v-44h3v44h11" style="stroke-linejoin: miter; stroke: rgb(0, 0, 154); stroke-width: 1; fill: none;"></path></g></svg><g><g transform="translate(0,574)"><path d="M0,0h1068" style="stroke: black; stroke-width: 1;"></path><path d="M1,-22v22m44,-11v11m45,-11v11m44,-11v11m45,-22v22m44,-11v11m44,-11v11m45,-11v11m44,-22v22m45,-11v11m44,-11v11m45,-11v11m44,-22v22m44,-11v11m45,-11v11m44,-11v11m45,-22v22m44,-11v11m45,-11v11m44,-11v11m44,-22v22m45,-11v11m44,-11v11m45,-11v11m44,-22v22" style="stroke: black; stroke-width: 1;"></path><g font-family="Arial" font-size="25" xml:space="preserve"><text fill="black" text-anchor="middle" dy=".8em" transform="translate(1,6)">-6</text><text fill="black" text-anchor="middle" dy=".8em" transform="translate(179,6)">-4</text><text fill="black" text-anchor="middle" dy=".8em" transform="translate(356,6)">-2</text><text fill="black" text-anchor="middle" dy=".8em" transform="translate(534,6)">0</text><text fill="black" text-anchor="middle" dy=".8em" transform="translate(712,6)">2</text><text fill="black" text-anchor="middle" dy=".8em" transform="translate(889,6)">4</text><text fill="black" text-anchor="middle" dy=".8em" transform="translate(1067,6)">6</text></g><rect x="0" y="0" width="1068" height="28" style="opacity: 0; cursor: crosshair;"></rect><g font-family="Arial" font-size="25" xml:space="preserve" style="cursor: move;" transform="translate(534,40)"><g transform="translate(-6,8)"><text fill="black" font-size="25">η</text></g></g></g><g><path d="M0,0v574" style="stroke: black; stroke-width: 1;"></path><path d="M20,574h-20m20,-9h-20m20,-7h-20m20,-6h-20m20,-5h-20m20,-4h-20m20,-4h-20m40,-4h-40m20,-22h-20m20,-13h-20m20,-9h-20m20,-7h-20m20,-6h-20m20,-5h-20m20,-4h-20m20,-4h-20m40,-4h-40m20,-22h-20m20,-13h-20m20,-9h-20m20,-7h-20m20,-6h-20m20,-5h-20m20,-4h-20m20,-4h-20m40,-3h-40m20,-23h-20m20,-13h-20m20,-9h-20m20,-7h-20m20,-6h-20m20,-5h-20m20,-4h-20m20,-4h-20m40,-3h-40m20,-23h-20m20,-13h-20m20,-9h-20m20,-7h-20m20,-6h-20m20,-5h-20m20,-4h-20m20,-4h-20m40,-3h-40m20,-22h-20m20,-13h-20m20,-10h-20m20,-7h-20m20,-6h-20m20,-5h-20m20,-4h-20m20,-4h-20m40,-3h-40m20,-22h-20m20,-13h-20m20,-10h-20m20,-7h-20m20,-6h-20m20,-4h-20m20,-5h-20m20,-4h-20m40,-3h-40m20,-22h-20m20,-13h-20m20,-9h-20m20,-8h-20m20,-5h-20m20,-5h-20m20,-5h-20m20,-3h-20m40,-4h-40" style="stroke: black; stroke-width: 1;"></path><g font-family="Arial" font-size="25" xml:space="preserve"><g transform="translate(-39,545)"><text fill="black" font-size="25">10</text><text fill="black" font-size="15" transform="translate(27,-11)">0</text></g><g transform="translate(-39,471)"><text fill="black" font-size="25">10</text><text fill="black" font-size="15" transform="translate(27,-11)">1</text></g><g transform="translate(-39,398)"><text fill="black" font-size="25">10</text><text fill="black" font-size="15" transform="translate(27,-11)">2</text></g><g transform="translate(-39,324)"><text fill="black" font-size="25">10</text><text fill="black" font-size="15" transform="translate(27,-11)">3</text></g><g transform="translate(-39,250)"><text fill="black" font-size="25">10</text><text fill="black" font-size="15" transform="translate(27,-11)">4</text></g><g transform="translate(-39,176)"><text fill="black" font-size="25">10</text><text fill="black" font-size="15" transform="translate(27,-11)">5</text></g><g transform="translate(-39,102)"><text fill="black" font-size="25">10</text><text fill="black" font-size="15" transform="translate(27,-11)">6</text></g><g transform="translate(-39,28)"><text fill="black" font-size="25">10</text><text fill="black" font-size="15" transform="translate(27,-11)">7</text></g></g><rect x="-38" y="0" width="38" height="574" style="opacity: 0; cursor: crosshair;"></rect></g></g><path d="M2,2h15v-5h-20v20h5Z" style="opacity: 0; cursor: nw-resize;"></path><path d="M1066,2h-15v-5h20v20h-5 Z" style="opacity: 0; cursor: ne-resize;"></path><path d="M2,572h15v5h-20v-20h5Z" style="opacity: 0; cursor: sw-resize;"></path><path d="M1066,572h-15v5h20v-20h-5Z" style="opacity: 0; cursor: se-resize;"></path><path d="M-3,18h5v538h-5Z" style="opacity: 0; cursor: w-resize;"></path><path d="M1071,18h-5v538h5Z" style="opacity: 0; cursor: e-resize;"></path><path d="M18,-3v5h1032v-5Z" style="opacity: 0; cursor: n-resize;"></path><path d="M18,577v-5h1032v5Z" style="opacity: 0; cursor: s-resize;"></path></g><g transform="translate(133,4)" font-family="Arial" font-size="36" xml:space="preserve" x="133" y="4" width="1068" height="48" style="cursor: move;"><path d="M0,0H1068V48H0Z" style="fill: none; pointer-events: visiblefill;"></path><g transform="translate(522,38) scale(1.091)"><text fill="black" font-size="40">η</text></g><path d="M2,2h15v-5h-20v20h5Z" style="opacity: 0; cursor: nw-resize;"></path><path d="M1066,2h-15v-5h20v20h-5 Z" style="opacity: 0; cursor: ne-resize;"></path><path d="M2,46h15v5h-20v-20h5Z" style="opacity: 0; cursor: sw-resize;"></path><path d="M1066,46h-15v5h20v-20h-5Z" style="opacity: 0; cursor: se-resize;"></path><path d="M-3,18h5v12h-5Z" style="opacity: 0; cursor: w-resize;"></path><path d="M1071,18h-5v12h5Z" style="opacity: 0; cursor: e-resize;"></path><path d="M18,-3v5h1032v-5Z" style="opacity: 0; cursor: n-resize;"></path><path d="M18,51v-5h1032v5Z" style="opacity: 0; cursor: s-resize;"></path></g><g transform="translate(1041,47)" font-family="Arial" font-size="24" xml:space="preserve" x="1041" y="47" width="267" height="115" style="cursor: move;"><path d="M0,0H267V115H0Z" style="fill: white; stroke: black; stroke-width: 1; pointer-events: visiblefill;"></path><text fill="black" text-anchor="middle" dominant-baseline="middle" transform="translate(134,14)">eta</text><text fill="black" text-anchor="start" dominant-baseline="middle" transform="translate(13,43)">Entries </text><text fill="black" text-anchor="end" dominant-baseline="middle" transform="translate(254,43)"> 346767269</text><text fill="black" text-anchor="start" dominant-baseline="middle" transform="translate(13,72)">Mean </text><text fill="black" text-anchor="end" dominant-baseline="middle" transform="translate(254,72)"> 0.02582</text><text fill="black" text-anchor="start" dominant-baseline="middle" transform="translate(13,101)">Std Dev </text><text fill="black" text-anchor="end" dominant-baseline="middle" transform="translate(254,101)"> 0.5906</text><path d="M0,29h267" style="stroke: black; stroke-width: 1;"></path><path d="M2,2h15v-5h-20v20h5Z" style="opacity: 0; cursor: nw-resize;"></path><path d="M265,2h-15v-5h20v20h-5 Z" style="opacity: 0; cursor: ne-resize;"></path><path d="M2,113h15v5h-20v-20h5Z" style="opacity: 0; cursor: sw-resize;"></path><path d="M265,113h-15v5h20v-20h-5Z" style="opacity: 0; cursor: se-resize;"></path><path d="M-3,18h5v79h-5Z" style="opacity: 0; cursor: w-resize;"></path><path d="M270,18h-5v79h5Z" style="opacity: 0; cursor: e-resize;"></path><path d="M18,-3v5h231v-5Z" style="opacity: 0; cursor: n-resize;"></path><path d="M18,118v-5h231v5Z" style="opacity: 0; cursor: s-resize;"></path></g></g></svg>