<svg width="1335" height="717" xmlns="http://www.w3.org/2000/svg"><defs><pattern id="pat_3001_1" patternUnits="userSpaceOnUse" width="2" height="2"><path d="M0,0h1v1h-1zM1,1h1v1h-1z" style="fill: black;"></path></pattern><pattern id="pat_3002_1" patternUnits="userSpaceOnUse" width="4" height="2"><path d="M1,0h1v1h-1zM3,1h1v1h-1z" style="fill: black;"></path></pattern><pattern id="pat_3003_1" patternUnits="userSpaceOnUse" width="4" height="4"><path d="M2,1h1v1h-1zM0,3h1v1h-1z" style="fill: black;"></path></pattern><pattern id="pat_3004_1" patternUnits="userSpaceOnUse" width="8" height="8"><path d="M8,0L0,8" style="stroke: black; stroke-width: 1;"></path></pattern><pattern id="pat_3005_1" patternUnits="userSpaceOnUse" width="8" height="8"><path d="M0,0L8,8" style="stroke: black; stroke-width: 1;"></path></pattern><pattern id="pat_3006_1" patternUnits="userSpaceOnUse" width="4" height="4"><path d="M1,0v4" style="stroke: black; stroke-width: 1;"></path></pattern><pattern id="pat_3007_1" patternUnits="userSpaceOnUse" width="4" height="4"><path d="M0,1h4" style="stroke: black; stroke-width: 1;"></path></pattern><pattern id="pat_3010_1" patternUnits="userSpaceOnUse" width="10" height="10"><path d="M0,2h10M0,7h10M2,0v2M7,2v5M2,7v3" style="stroke: black; stroke-width: 1;"></path></pattern><pattern id="pat_3021_1" patternUnits="userSpaceOnUse" width="8" height="8"><path d="M8,2h-2v4h-4v2M2,0v2h-2" style="stroke: black; stroke-width: 1; fill: none;"></path></pattern><pattern id="pat_3022_1" patternUnits="userSpaceOnUse" width="8" height="8"><path d="M0,2h2v4h4v2M6,0v2h2" style="stroke: black; stroke-width: 1; fill: none;"></path></pattern></defs><title>ROOT canvas</title><path d="M0,0H1335V717H0Z" style="pointer-events: visiblefill; fill: rgb(243, 243, 243);"></path><g><g transform="translate(134,72)" x="134" y="72" width="1068" height="574"><title></title><path d="M0,0H1068V574H0Z" pointer-events="visibleFill" style="fill: rgb(243, 243, 243); stroke: black; stroke-width: 1;"></path><svg x="0" y="0" overflow="hidden" width="1068" height="574" viewBox="0 0 1068 574" style="pointer-events: visiblefill;"><g><path d="M0,441h12M6,441v0M11,437h10M16,437v0M21,442h12M27,442v0M32,433h12M38,432v1M43,410h10M48,410v0M53,384h12M59,384v0M64,376h12M70,376v1M75,375h10M80,375v0M85,388h12M91,388v0M96,399h12M102,399v0M107,373h10M112,373v0M117,368h12M123,368v0M128,408h12M134,408v1M139,397h12M145,397v0M150,355h10M155,355v0M160,338h12M166,338v0M171,346h12M177,346v1M182,346h10M187,346v0M192,341h12M198,341v1M203,339h12M209,339v0M214,335h10M219,335v0M224,311h12M230,311v0M235,245h12M241,244v1M246,211h10M251,211v0M256,277h12M262,277v0M267,363h12M273,363v0M278,366h10M283,366v0M288,245h12M294,245v1M299,165h12M305,165v0M310,181h10M315,181v0M320,216h12M326,216v0M331,246h12M337,246v1M342,263h10M347,263v0M352,298h12M358,298v1M363,353h12M369,353v0M374,400h10M379,400v0M384,397h12M390,396v1M395,411h12M401,411v0M406,417h12M412,417v0M417,420h10M422,420v0M427,409h12M433,408v1M438,410h12M444,410v1M449,417h10M454,417v0M459,409h12M465,409v0M470,409h12M476,409v0M481,400h10M486,399v1M491,384h12M497,384v0M502,373h12M508,373v0M513,347h10M518,347v0M523,309h12M529,309v0M534,241h12M540,241v0M545,189h10M550,189v0M555,148h12M561,148v0M566,135h12M572,135v0M577,134h10M582,134v0M587,62h12M593,62v0M598,10h12M604,10v0M609,127h10M614,127v0M619,367h12M625,367v0M630,311h12M636,311v0M641,181h10M646,181v0M651,146h12M657,146v0M662,166h12M668,166v0M673,233h12M679,233v1M684,229h10M689,229v0M694,209h12M700,209v1M705,251h12M711,251v0M716,313h10M721,313v0M726,329h12M732,329v0M737,340h12M743,340v0M748,378h10M753,377v1M758,381h12M764,381v0M769,380h12M775,380v1M780,406h10M785,406v0M790,415h12M796,415v1M801,420h12M807,420v0M812,422h10M817,422v0M822,425h12M828,425v0M833,440h12M839,440v0M844,449h10M849,449v1M854,454h12M860,454v0M865,463h12M871,463v0M876,470h10M881,469v1M886,478h12M892,478v0M897,484h12M903,484v0M908,482h10M913,482v0M918,479h12M924,479v1M929,474h12M935,474v0M940,472h12M946,472v0M951,474h10M956,474v0M961,472h12M967,472v0M972,478h12M978,478v0M983,488h10M988,487v1M993,471h12M999,471v0M1004,472h12M1010,471v1M1015,475h10M1020,474v1M1025,467h12M1031,467v0M1036,471h12M1042,470v1M1047,468h10M1052,468v0M1057,444h12M1063,444v1" style="stroke: rgb(0, 0, 154); stroke-width: 1;"></path><path d="M0,441h12v0h-12zM11,437h10v0h-10zM21,442h12v0h-12zM32,432h12v1h-12zM43,410h10v0h-10zM53,384h12v0h-12zM64,376h12v1h-12zM75,375h10v0h-10zM85,388h12v0h-12zM96,399h12v0h-12zM107,373h10v0h-10zM117,368h12v0h-12zM128,408h12v1h-12zM139,397h12v0h-12zM150,355h10v0h-10zM160,338h12v0h-12zM171,346h12v1h-12zM182,346h10v0h-10zM192,341h12v1h-12zM203,339h12v0h-12zM214,335h10v0h-10zM224,311h12v0h-12zM235,244h12v1h-12zM246,211h10v0h-10zM256,277h12v0h-12zM267,363h12v0h-12zM278,366h10v0h-10zM288,245h12v1h-12zM299,165h12v0h-12zM310,181h10v0h-10zM320,216h12v0h-12zM331,246h12v1h-12zM342,263h10v0h-10zM352,298h12v1h-12zM363,353h12v0h-12zM374,400h10v0h-10zM384,396h12v1h-12zM395,411h12v0h-12zM406,417h12v0h-12zM417,420h10v0h-10zM427,408h12v1h-12zM438,410h12v1h-12zM449,417h10v0h-10zM459,409h12v0h-12zM470,409h12v0h-12zM481,399h10v1h-10zM491,384h12v0h-12zM502,373h12v0h-12zM513,347h10v0h-10zM523,309h12v0h-12zM534,241h12v0h-12zM545,189h10v0h-10zM555,148h12v0h-12zM566,135h12v0h-12zM577,134h10v0h-10zM587,62h12v0h-12zM598,10h12v0h-12zM609,127h10v0h-10zM619,367h12v0h-12zM630,311h12v0h-12zM641,181h10v0h-10zM651,146h12v0h-12zM662,166h12v0h-12zM673,233h12v1h-12zM684,229h10v0h-10zM694,209h12v1h-12zM705,251h12v0h-12zM716,313h10v0h-10zM726,329h12v0h-12zM737,340h12v0h-12zM748,377h10v1h-10zM758,381h12v0h-12zM769,380h12v1h-12zM780,406h10v0h-10zM790,415h12v1h-12zM801,420h12v0h-12zM812,422h10v0h-10zM822,425h12v0h-12zM833,440h12v0h-12zM844,449h10v1h-10zM854,454h12v0h-12zM865,463h12v0h-12zM876,469h10v1h-10zM886,478h12v0h-12zM897,484h12v0h-12zM908,482h10v0h-10zM918,479h12v1h-12zM929,474h12v0h-12zM940,472h12v0h-12zM951,474h10v0h-10zM961,472h12v0h-12zM972,478h12v0h-12zM983,487h10v1h-10zM993,471h12v0h-12zM1004,471h12v1h-12zM1015,474h10v1h-10zM1025,467h12v0h-12zM1036,470h12v1h-12zM1047,468h10v0h-10zM1057,444h12v1h-12z" stroke="none" fill="none" pointer-events="visibleFill"></path><path d="M0,441h11v-4h10v5h11v-9h11v-23h10v-26h11v-8h11v-1h10v13h11v11h11v-26h10v-5h11v40h11v-11h11v-42h10v-17h11v8h21v-5h11v-2h11v-4h10v-24h11v-66h11v-34h10v66h11v86h11v3h10v-121h11v-80h11v16h10v35h11v30h11v17h10v35h11v55h11v47h10v-3h11v14h11v6h11v3h10v-11h11v1h11v7h10v-8h22v-9h10v-16h11v-11h11v-26h10v-38h11v-68h11v-52h10v-41h11v-13h11v-1h10v-72h11v-52h11v117h10v240h11v-56h11v-130h10v-35h11v20h11v67h11v-4h10v-20h11v42h11v62h10v16h11v11h11v38h10v3h11v-1h11v26h10v9h11v5h11v2h10v3h11v15h11v9h10v5h11v9h11v7h10v8h11v6h11v-2h10v-3h11v-5h11v-2h11v2h10v-2h11v6h11v10h10v-17h11v1h11v3h10v-8h11v4h11v-3h10v-24h11" style="stroke-linejoin: miter; stroke: rgb(0, 0, 154); stroke-width: 1; fill: none;"></path></g></svg><g><g transform="translate(0,574)"><path d="M0,0h1068" style="stroke: black; stroke-width: 1;"></path><path d="M0,-22v22m34,-11v11m34,-11v11m34,-11v11m34,-11v11m34,-22v22m34,-11v11m34,-11v11m34,-11v11m34,-11v11m34,-22v22m34,-11v11m34,-11v11m34,-11v11m34,-11v11m34,-22v22m34,-11v11m34,-11v11m34,-11v11m34,-11v11m34,-22v22m34,-11v11m34,-11v11m34,-11v11m34,-11v11m34,-22v22m34,-11v11m34,-11v11m34,-11v11m34,-11v11m34,-22v22m34,-11v11" style="stroke: black; stroke-width: 1;"></path><g font-family="Arial" font-size="25" xml:space="preserve"><text fill="black" text-anchor="middle" dy=".8em" transform="translate(0,6)">0</text><text fill="black" text-anchor="middle" dy=".8em" transform="translate(170,6)">1</text><text fill="black" text-anchor="middle" dy=".8em" transform="translate(340,6)">2</text><text fill="black" text-anchor="middle" dy=".8em" transform="translate(510,6)">3</text><text fill="black" text-anchor="middle" dy=".8em" transform="translate(680,6)">4</text><text fill="black" text-anchor="middle" dy=".8em" transform="translate(850,6)">5</text><text fill="black" text-anchor="middle" dy=".8em" transform="translate(1020,6)">6</text></g><rect x="0" y="0" width="1068" height="28" style="opacity: 0; cursor: crosshair;"></rect><g font-family="Arial" font-size="25" xml:space="preserve" style="cursor: move;" transform="translate(534,40)"><g transform="translate(-8,8)"><text fill="black" font-size="25">φ</text></g></g></g><g><path d="M0,0v574" style="stroke: black; stroke-width: 1;"></path><path d="M20,463h-20m20,-101h-20m20,-71h-20m20,-55h-20m20,-45h-20m20,-38h-20m20,-33h-20m20,-29h-20m40,-26h-40" style="stroke: black; stroke-width: 1;"></path><g font-family="Arial" font-size="25" xml:space="preserve"><g transform="translate(-39,75)"><text fill="black" font-size="25">10</text><text fill="black" font-size="15" transform="translate(27,-11)">7</text></g></g><rect x="-38" y="0" width="38" height="574" style="opacity: 0; cursor: crosshair;"></rect></g></g><path d="M2,2h15v-5h-20v20h5Z" style="opacity: 0; cursor: nw-resize;"></path><path d="M1066,2h-15v-5h20v20h-5 Z" style="opacity: 0; cursor: ne-resize;"></path><path d="M2,572h15v5h-20v-20h5Z" style="opacity: 0; cursor: sw-resize;"></path><path d="M1066,572h-15v5h20v-20h-5Z" style="opacity: 0; cursor: se-resize;"></path><path d="M-3,18h5v538h-5Z" style="opacity: 0; cursor: w-resize;"></path><path d="M1071,18h-5v538h5Z" style="opacity: 0; cursor: e-resize;"></path><path d="M18,-3v5h1032v-5Z" style="opacity: 0; cursor: n-resize;"></path><path d="M18,577v-5h1032v5Z" style="opacity: 0; cursor: s-resize;"></path></g><g transform="translate(133,4)" font-family="Arial" font-size="36" xml:space="preserve" x="133" y="4" width="1068" height="48" style="cursor: move;"><path d="M0,0H1068V48H0Z" style="fill: none; pointer-events: visiblefill;"></path><g transform="translate(520,38) scale(1.091)"><text fill="black" font-size="40">φ</text></g><path d="M2,2h15v-5h-20v20h5Z" style="opacity: 0; cursor: nw-resize;"></path><path d="M1066,2h-15v-5h20v20h-5 Z" style="opacity: 0; cursor: ne-resize;"></path><path d="M2,46h15v5h-20v-20h5Z" style="opacity: 0; cursor: sw-resize;"></path><path d="M1066,46h-15v5h20v-20h-5Z" style="opacity: 0; cursor: se-resize;"></path><path d="M-3,18h5v12h-5Z" style="opacity: 0; cursor: w-resize;"></path><path d="M1071,18h-5v12h5Z" style="opacity: 0; cursor: e-resize;"></path><path d="M18,-3v5h1032v-5Z" style="opacity: 0; cursor: n-resize;"></path><path d="M18,51v-5h1032v5Z" style="opacity: 0; cursor: s-resize;"></path></g><g transform="translate(1041,47)" font-family="Arial" font-size="24" xml:space="preserve" x="1041" y="47" width="267" height="115" style="cursor: move;"><path d="M0,0H267V115H0Z" style="fill: white; stroke: black; stroke-width: 1; pointer-events: visiblefill;"></path><text fill="black" text-anchor="middle" dominant-baseline="middle" transform="translate(134,14)">phi</text><text fill="black" text-anchor="start" dominant-baseline="middle" transform="translate(13,43)">Entries </text><text fill="black" text-anchor="end" dominant-baseline="middle" transform="translate(254,43)"> 346767269</text><text fill="black" text-anchor="start" dominant-baseline="middle" transform="translate(13,72)">Mean </text><text fill="black" text-anchor="end" dominant-baseline="middle" transform="translate(254,72)"> 3.010</text><text fill="black" text-anchor="start" dominant-baseline="middle" transform="translate(13,101)">Std Dev </text><text fill="black" text-anchor="end" dominant-baseline="middle" transform="translate(254,101)"> 1.564</text><path d="M0,29h267" style="stroke: black; stroke-width: 1;"></path><path d="M2,2h15v-5h-20v20h5Z" style="opacity: 0; cursor: nw-resize;"></path><path d="M265,2h-15v-5h20v20h-5 Z" style="opacity: 0; cursor: ne-resize;"></path><path d="M2,113h15v5h-20v-20h5Z" style="opacity: 0; cursor: sw-resize;"></path><path d="M265,113h-15v5h20v-20h-5Z" style="opacity: 0; cursor: se-resize;"></path><path d="M-3,18h5v79h-5Z" style="opacity: 0; cursor: w-resize;"></path><path d="M270,18h-5v79h5Z" style="opacity: 0; cursor: e-resize;"></path><path d="M18,-3v5h231v-5Z" style="opacity: 0; cursor: n-resize;"></path><path d="M18,118v-5h231v5Z" style="opacity: 0; cursor: s-resize;"></path></g></g></svg>