<svg width="1333" height="697" xmlns="http://www.w3.org/2000/svg"><title>ROOT canvas</title><path d="M0,0H1333V697H0Z" style="pointer-events: visiblefill; fill: rgb(243, 243, 243);"></path><g><g transform="translate(133,70)" x="133" y="70" width="1066" height="558"><title></title><path d="M0,0H1066V558H0Z" pointer-events="visibleFill" style="fill: rgb(243, 243, 243); stroke: black; stroke-width: 1;"></path><svg x="0" y="0" overflow="hidden" width="1066" height="558" viewBox="0 0 1066 558" style="pointer-events: visiblefill;"><g><path d="M0,2h4M2,2v1M3,2h2M4,2v1M5,2h4M7,2v1M8,2h4M10,2v1M11,14h2M12,14v0M13,33h4M15,33v0M16,52h4M18,52v0M19,70h2M20,70v1M21,88h4M23,88v0M24,104h4M26,104v0M27,118h2M28,118v0M29,132h4M31,132v0M32,144h4M34,144v0M35,156h2M36,155v1M37,166h4M39,166v0M40,176h4M42,176v0M43,184h2M44,184v0M45,192h4M47,192v0M48,200h4M50,200v0M51,207h2M52,206v1M53,213h4M55,213v0M56,219h4M58,219v0M59,225h2M60,225v0M61,230h4M63,230v0M64,235h4M66,234v1M67,239h2M68,239v0M69,243h4M71,243v0M72,247h4M74,247v0M75,251h2M76,251v0M77,254h4M79,254v0M80,257h4M82,257v1M83,261h2M84,261v0M85,264h4M87,263v1M88,266h4M90,266v1M91,269h2M92,269v0M93,271h4M95,271v1M96,274h4M98,274v0M99,276h2M100,276v0M101,278h4M103,278v1M104,281h4M106,280v1M107,283h2M108,283v0M109,285h4M111,285v0M112,287h4M114,287v0M115,289h2M116,288v1M117,290h4M119,290v1M120,292h4M122,292v1M123,294h2M124,294v1M125,296h4M127,296v0M128,297h4M130,297v1M131,299h2M132,299v0M133,301h4M135,300v1M136,302h4M138,302v1M139,304h2M140,303v1M141,306h4M143,305v1M144,307h4M146,307v0M147,308h2M148,308v0M149,310h4M151,310v0M152,312h4M154,312v0M155,312h2M156,312v0M157,314h4M159,314v1M160,315h4M162,315v0M163,317h2M164,317v0M165,318h4M167,318v1M168,319h4M170,319v1M171,321h2M172,320v1M173,322h4M175,321v1M176,323h4M178,323v1M179,324h2M180,324v1M181,326h4M183,326v1M184,327h4M186,326v1M187,328h2M188,327v1M189,330h4M191,330v0M192,331h4M194,330v1M195,332h2M196,332v0M197,333h4M199,333v0M200,334h4M202,334v0M203,335h2M204,334v1M205,336h4M207,336v0M208,337h4M210,337v1M211,339h2M212,339v0M213,339h4M215,339v1M216,340h4M218,340v0M219,342h2M220,341v1M221,343h4M223,342v1M224,343h4M226,343v1M227,345h2M228,344v1M229,346h4M231,345v1M232,347h4M234,346v1M235,348h2M236,347v1M237,349h4M239,348v1M240,349h4M242,349v1M243,351h2M244,350v1M245,352h4M247,352v0M248,353h4M250,352v1M251,354h2M252,354v1M253,355h4M255,354v1M256,355h4M258,355v1M259,356h2M260,356v1M261,357h4M263,357v0M264,358h4M266,357v1M267,359h2M268,359v0M269,359h4M271,359v1M272,361h2M273,361v0M274,361h4M276,361v1M277,363h4M279,362v1M280,362h2M281,362v1M282,364h4M284,363v1M285,366h4M287,365v1M288,366h2M289,366v1M290,367h4M292,367v1M293,368h4M295,368v0M296,368h2M297,368v1M298,370h4M300,369v1M301,370h4M303,370v0M304,371h2M305,370v1M306,372h4M308,372v1M309,373h4M311,372v1M312,373h2M313,373v1M314,375h4M316,375v1M317,375h4M319,374v1M320,376h2M321,375v1M322,376h4M324,376v1M325,378h4M327,377v1M328,378h2M329,378v1M330,378h4M332,378v1M333,380h4M335,380v1M336,381h2M337,380v1M338,382h4M340,381v1M341,382h4M343,381v1M344,383h2M345,383v1M346,383h4M348,382v1M349,383h4M351,383v1M352,386h2M353,385v1M354,385h4M356,384v1M357,386h4M359,386v1M360,386h2M361,386v1M362,388h4M364,387v1M365,386h4M367,386v1M368,389h2M369,389v1M370,389h4M372,389v1M373,389h4M375,389v1M376,391h2M377,390v1M378,391h4M380,391v1M381,392h4M383,392v1M384,392h2M385,392v1M386,394h4M388,393v2M389,395h4M391,395v1M392,396h2M393,395v2M394,395h4M396,394v1M397,396h4M399,396v1M400,397h2M401,396v1M402,398h4M404,398v1M405,397h4M407,397v1M408,400h2M409,399v1M410,400h4M412,399v1M413,399h4M415,399v1M416,400h2M417,400v1M418,403h4M420,402v1M421,401h4M423,401v1M424,403h2M425,403v1M426,404h4M428,403v1M429,404h4M431,403v1M432,404h2M433,404v1M434,404h4M436,403v1M437,406h4M439,405v2M440,406h2M441,406v1M442,407h4M444,407v1M445,406h4M447,405v1M448,408h2M449,407v2M450,408h4M452,408v1M453,409h4M455,408v2M456,410h2M457,409v2M458,410h4M460,409v1M461,412h4M463,411v2M464,412h2M465,411v1M466,412h4M468,411v1M469,412h4M471,412v1M472,413h2M473,412v1M474,413h4M476,413v1M477,414h4M479,413v2M480,416h2M481,415v2M482,415h4M484,414v2M485,415h4M487,414v1M488,416h2M489,416v1M490,416h4M492,416v1M493,417h4M495,417v1M496,419h2M497,418v1M498,418h4M500,417v2M501,418h4M503,418v1M504,420h2M505,419v2M506,419h4M508,418v2M509,421h4M511,420v2M512,420h2M513,420v1M514,421h4M516,420v2M517,422h4M519,421v1M520,423h2M521,422v1M522,423h4M524,422v1M525,424h4M527,424v1M528,424h2M529,424v1M530,425h4M532,424v1M533,424h4M535,424v1M536,427h2M537,426v1M538,426h4M540,426v1M541,426h4M543,425v1M544,428h2M545,427v2M546,428h4M548,427v2M549,429h4M551,428v2M552,430h2M553,429v2M554,429h4M556,428v2M557,430h4M559,430v1M560,428h2M561,427v1M562,432h4M564,431v2M565,431h4M567,430v2M568,431h2M569,430v2M570,431h4M572,430v2M573,434h4M575,433v1M576,434h2M577,433v2M578,432h4M580,432v1M581,435h4M583,434v2M584,435h2M585,434v2M586,433h4M588,433v1M589,434h4M591,433v2M592,434h2M593,433v2M594,435h4M596,434v2M597,436h4M599,435v2M600,439h2M601,438v2M602,436h4M604,435v2M605,437h4M607,436v1M608,439h2M609,438v2M610,438h4M612,437v2M613,438h4M615,437v2M616,438h2M617,437v2M618,439h4M620,438v2M621,439h4M623,438v2M624,440h2M625,439v2M626,439h4M628,438v1M629,440h4M631,439v2M632,444h2M633,444v1M634,442h4M636,441v2M637,442h4M639,441v2M640,444h2M641,443v2M642,445h4M644,444v2M645,441h4M647,440v2M648,444h2M649,443v2M650,444h4M652,443v2M653,445h4M655,444v2M656,445h2M657,444v2M658,446h4M660,445v2M661,446h4M663,445v2M664,447h2M665,446v2M666,446h4M668,445v2M669,447h4M671,446v2M672,447h2M673,446v2M674,448h4M676,447v2M677,448h4M679,447v2M680,449h2M681,448v2M682,449h4M684,448v2M685,450h4M687,449v2M688,451h2M689,450v2M690,450h4M692,449v2M693,448h4M695,447v2M696,452h2M697,451v2M698,451h4M700,450v2M701,453h4M703,452v2M704,453h2M705,452v2M706,453h4M708,452v2M709,452h4M711,451v2M712,453h2M713,452v2M714,455h4M716,454v3M717,455h4M719,454v2M720,454h2M721,452v3M722,454h4M724,453v3M725,456h4M727,455v2M728,455h2M729,454v2M730,455h4M732,454v2M733,457h4M735,456v3M736,457h2M737,456v2M738,458h4M740,456v3M741,457h4M743,456v2M744,456h2M745,455v3M746,456h4M748,454v3M749,461h4M751,460v2M752,463h2M753,462v2M754,459h4M756,458v2M757,462h4M759,461v2M760,462h2M761,461v3M762,460h4M764,459v3M765,463h4M767,462v2M768,459h2M769,458v2M770,462h4M772,460v3M773,464h4M775,463v2M776,460h2M777,459v2M778,462h4M780,461v3M781,464h4M783,463v2M784,464h2M785,463v2M786,465h4M788,464v2M789,467h4M791,465v3M792,462h2M793,461v3M794,466h4M796,465v2M797,464h4M799,463v2M800,466h2M801,465v2M802,466h4M804,464v3M805,467h2M806,466v2M807,467h4M809,466v2M810,464h4M812,463v2M813,467h2M814,466v2M815,467h4M817,466v2M818,467h4M820,466v2M821,466h2M822,465v2M823,467h4M825,466v2M826,470h4M828,468v3M829,469h2M830,467v3M831,468h4M833,466v3M834,469h4M836,467v3M837,470h2M838,469v2M839,468h4M841,467v3M842,472h4M844,471v3M845,469h2M846,468v2M847,473h4M849,472v3M850,474h4M852,473v2M853,469h2M854,468v2M855,472h4M857,471v3M858,473h4M860,471v3M861,471h2M862,470v2M863,474h4M865,473v2M866,474h4M868,472v3M869,472h2M870,471v3M871,475h4M873,474v3M874,475h4M876,474v3M877,473h2M878,472v2M879,472h4M881,471v2M882,478h4M884,476v3M885,474h2M886,472v3M887,478h4M889,476v3M890,477h4M892,476v3M893,475h2M894,474v2M895,477h4M897,476v2M898,477h4M900,476v3M901,477h2M902,476v3M903,476h4M905,475v3M906,476h4M908,475v2M909,477h2M910,475v3M911,479h4M913,478v3M914,474h4M916,473v3M917,480h2M918,479v2M919,478h4M921,476v3M922,480h4M924,479v2M925,482h2M926,480v3M927,480h4M929,479v2M930,479h4M932,478v3M933,480h2M934,479v3M935,481h4M937,479v3M938,479h4M940,478v2M941,480h2M942,478v3M943,480h4M945,479v3M946,482h4M948,480v3M949,481h2M950,480v2M951,482h4M953,481v3M954,484h4M956,482v3M957,482h2M958,480v3M959,486h4M961,485v3M962,484h4M964,483v3M965,484h2M966,483v3M967,480h4M969,479v3M970,486h4M972,484v3M973,486h2M974,484v3M975,487h4M977,485v3M978,485h4M980,483v3M981,488h2M982,487v3M983,483h4M985,482v2M986,485h4M988,484v3M989,487h2M990,486v2M991,485h4M993,484v3M994,487h4M996,485v3M997,485h2M998,483v3M999,488h4M1001,487v3M1002,486h4M1004,484v3M1005,490h2M1006,489v2M1007,489h4M1009,487v3M1010,490h4M1012,488v3M1013,487h2M1014,486v3M1015,491h4M1017,489v3M1018,487h4M1020,485v3M1021,492h2M1022,490v3M1023,489h4M1025,488v3M1026,491h4M1028,490v3M1029,491h2M1030,489v3M1031,493h4M1033,492v3M1034,491h4M1036,490v3M1037,497h2M1038,495v3M1039,489h4M1041,487v3M1042,489h4M1044,487v3M1045,490h2M1046,489v3M1047,494h4M1049,493v3M1050,494h4M1052,493v3M1053,490h2M1054,488v3M1055,493h4M1057,491v3M1058,492h4M1060,491v3M1061,494h2M1062,492v3M1063,493h4M1065,491v3" style="stroke: rgb(0, 0, 154); stroke-width: 1;"></path><path d="M0,2h4v1h-4zM3,2h2v1h-2zM5,2h4v1h-4zM8,2h4v1h-4zM11,14h2v0h-2zM13,33h4v0h-4zM16,52h4v0h-4zM19,70h2v1h-2zM21,88h4v0h-4zM24,104h4v0h-4zM27,118h2v0h-2zM29,132h4v0h-4zM32,144h4v0h-4zM35,155h2v1h-2zM37,166h4v0h-4zM40,176h4v0h-4zM43,184h2v0h-2zM45,192h4v0h-4zM48,200h4v0h-4zM51,206h2v1h-2zM53,213h4v0h-4zM56,219h4v0h-4zM59,225h2v0h-2zM61,230h4v0h-4zM64,234h4v1h-4zM67,239h2v0h-2zM69,243h4v0h-4zM72,247h4v0h-4zM75,251h2v0h-2zM77,254h4v0h-4zM80,257h4v1h-4zM83,261h2v0h-2zM85,263h4v1h-4zM88,266h4v1h-4zM91,269h2v0h-2zM93,271h4v1h-4zM96,274h4v0h-4zM99,276h2v0h-2zM101,278h4v1h-4zM104,280h4v1h-4zM107,283h2v0h-2zM109,285h4v0h-4zM112,287h4v0h-4zM115,288h2v1h-2zM117,290h4v1h-4zM120,292h4v1h-4zM123,294h2v1h-2zM125,296h4v0h-4zM128,297h4v1h-4zM131,299h2v0h-2zM133,300h4v1h-4zM136,302h4v1h-4zM139,303h2v1h-2zM141,305h4v1h-4zM144,307h4v0h-4zM147,308h2v0h-2zM149,310h4v0h-4zM152,312h4v0h-4zM155,312h2v0h-2zM157,314h4v1h-4zM160,315h4v0h-4zM163,317h2v0h-2zM165,318h4v1h-4zM168,319h4v1h-4zM171,320h2v1h-2zM173,321h4v1h-4zM176,323h4v1h-4zM179,324h2v1h-2zM181,326h4v1h-4zM184,326h4v1h-4zM187,327h2v1h-2zM189,330h4v0h-4zM192,330h4v1h-4zM195,332h2v0h-2zM197,333h4v0h-4zM200,334h4v0h-4zM203,334h2v1h-2zM205,336h4v0h-4zM208,337h4v1h-4zM211,339h2v0h-2zM213,339h4v1h-4zM216,340h4v0h-4zM219,341h2v1h-2zM221,342h4v1h-4zM224,343h4v1h-4zM227,344h2v1h-2zM229,345h4v1h-4zM232,346h4v1h-4zM235,347h2v1h-2zM237,348h4v1h-4zM240,349h4v1h-4zM243,350h2v1h-2zM245,352h4v0h-4zM248,352h4v1h-4zM251,354h2v1h-2zM253,354h4v1h-4zM256,355h4v1h-4zM259,356h2v1h-2zM261,357h4v0h-4zM264,357h4v1h-4zM267,359h2v0h-2zM269,359h4v1h-4zM272,361h2v0h-2zM274,361h4v1h-4zM277,362h4v1h-4zM280,362h2v1h-2zM282,363h4v1h-4zM285,365h4v1h-4zM288,366h2v1h-2zM290,367h4v1h-4zM293,368h4v0h-4zM296,368h2v1h-2zM298,369h4v1h-4zM301,370h4v0h-4zM304,370h2v1h-2zM306,372h4v1h-4zM309,372h4v1h-4zM312,373h2v1h-2zM314,375h4v1h-4zM317,374h4v1h-4zM320,375h2v1h-2zM322,376h4v1h-4zM325,377h4v1h-4zM328,378h2v1h-2zM330,378h4v1h-4zM333,380h4v1h-4zM336,380h2v1h-2zM338,381h4v1h-4zM341,381h4v1h-4zM344,383h2v1h-2zM346,382h4v1h-4zM349,383h4v1h-4zM352,385h2v1h-2zM354,384h4v1h-4zM357,386h4v1h-4zM360,386h2v1h-2zM362,387h4v1h-4zM365,386h4v1h-4zM368,389h2v1h-2zM370,389h4v1h-4zM373,389h4v1h-4zM376,390h2v1h-2zM378,391h4v1h-4zM381,392h4v1h-4zM384,392h2v1h-2zM386,393h4v2h-4zM389,395h4v1h-4zM392,395h2v2h-2zM394,394h4v1h-4zM397,396h4v1h-4zM400,396h2v1h-2zM402,398h4v1h-4zM405,397h4v1h-4zM408,399h2v1h-2zM410,399h4v1h-4zM413,399h4v1h-4zM416,400h2v1h-2zM418,402h4v1h-4zM421,401h4v1h-4zM424,403h2v1h-2zM426,403h4v1h-4zM429,403h4v1h-4zM432,404h2v1h-2zM434,403h4v1h-4zM437,405h4v2h-4zM440,406h2v1h-2zM442,407h4v1h-4zM445,405h4v1h-4zM448,407h2v2h-2zM450,408h4v1h-4zM453,408h4v2h-4zM456,409h2v2h-2zM458,409h4v1h-4zM461,411h4v2h-4zM464,411h2v1h-2zM466,411h4v1h-4zM469,412h4v1h-4zM472,412h2v1h-2zM474,413h4v1h-4zM477,413h4v2h-4zM480,415h2v2h-2zM482,414h4v2h-4zM485,414h4v1h-4zM488,416h2v1h-2zM490,416h4v1h-4zM493,417h4v1h-4zM496,418h2v1h-2zM498,417h4v2h-4zM501,418h4v1h-4zM504,419h2v2h-2zM506,418h4v2h-4zM509,420h4v2h-4zM512,420h2v1h-2zM514,420h4v2h-4zM517,421h4v1h-4zM520,422h2v1h-2zM522,422h4v1h-4zM525,424h4v1h-4zM528,424h2v1h-2zM530,424h4v1h-4zM533,424h4v1h-4zM536,426h2v1h-2zM538,426h4v1h-4zM541,425h4v1h-4zM544,427h2v2h-2zM546,427h4v2h-4zM549,428h4v2h-4zM552,429h2v2h-2zM554,428h4v2h-4zM557,430h4v1h-4zM560,427h2v1h-2zM562,431h4v2h-4zM565,430h4v2h-4zM568,430h2v2h-2zM570,430h4v2h-4zM573,433h4v1h-4zM576,433h2v2h-2zM578,432h4v1h-4zM581,434h4v2h-4zM584,434h2v2h-2zM586,433h4v1h-4zM589,433h4v2h-4zM592,433h2v2h-2zM594,434h4v2h-4zM597,435h4v2h-4zM600,438h2v2h-2zM602,435h4v2h-4zM605,436h4v1h-4zM608,438h2v2h-2zM610,437h4v2h-4zM613,437h4v2h-4zM616,437h2v2h-2zM618,438h4v2h-4zM621,438h4v2h-4zM624,439h2v2h-2zM626,438h4v1h-4zM629,439h4v2h-4zM632,444h2v1h-2zM634,441h4v2h-4zM637,441h4v2h-4zM640,443h2v2h-2zM642,444h4v2h-4zM645,440h4v2h-4zM648,443h2v2h-2zM650,443h4v2h-4zM653,444h4v2h-4zM656,444h2v2h-2zM658,445h4v2h-4zM661,445h4v2h-4zM664,446h2v2h-2zM666,445h4v2h-4zM669,446h4v2h-4zM672,446h2v2h-2zM674,447h4v2h-4zM677,447h4v2h-4zM680,448h2v2h-2zM682,448h4v2h-4zM685,449h4v2h-4zM688,450h2v2h-2zM690,449h4v2h-4zM693,447h4v2h-4zM696,451h2v2h-2zM698,450h4v2h-4zM701,452h4v2h-4zM704,452h2v2h-2zM706,452h4v2h-4zM709,451h4v2h-4zM712,452h2v2h-2zM714,454h4v3h-4zM717,454h4v2h-4zM720,452h2v3h-2zM722,453h4v3h-4zM725,455h4v2h-4zM728,454h2v2h-2zM730,454h4v2h-4zM733,456h4v3h-4zM736,456h2v2h-2zM738,456h4v3h-4zM741,456h4v2h-4zM744,455h2v3h-2zM746,454h4v3h-4zM749,460h4v2h-4zM752,462h2v2h-2zM754,458h4v2h-4zM757,461h4v2h-4zM760,461h2v3h-2zM762,459h4v3h-4zM765,462h4v2h-4zM768,458h2v2h-2zM770,460h4v3h-4zM773,463h4v2h-4zM776,459h2v2h-2zM778,461h4v3h-4zM781,463h4v2h-4zM784,463h2v2h-2zM786,464h4v2h-4zM789,465h4v3h-4zM792,461h2v3h-2zM794,465h4v2h-4zM797,463h4v2h-4zM800,465h2v2h-2zM802,464h4v3h-4zM805,466h2v2h-2zM807,466h4v2h-4zM810,463h4v2h-4zM813,466h2v2h-2zM815,466h4v2h-4zM818,466h4v2h-4zM821,465h2v2h-2zM823,466h4v2h-4zM826,468h4v3h-4zM829,467h2v3h-2zM831,466h4v3h-4zM834,467h4v3h-4zM837,469h2v2h-2zM839,467h4v3h-4zM842,471h4v3h-4zM845,468h2v2h-2zM847,472h4v3h-4zM850,473h4v2h-4zM853,468h2v2h-2zM855,471h4v3h-4zM858,471h4v3h-4zM861,470h2v2h-2zM863,473h4v2h-4zM866,472h4v3h-4zM869,471h2v3h-2zM871,474h4v3h-4zM874,474h4v3h-4zM877,472h2v2h-2zM879,471h4v2h-4zM882,476h4v3h-4zM885,472h2v3h-2zM887,476h4v3h-4zM890,476h4v3h-4zM893,474h2v2h-2zM895,476h4v2h-4zM898,476h4v3h-4zM901,476h2v3h-2zM903,475h4v3h-4zM906,475h4v2h-4zM909,475h2v3h-2zM911,478h4v3h-4zM914,473h4v3h-4zM917,479h2v2h-2zM919,476h4v3h-4zM922,479h4v2h-4zM925,480h2v3h-2zM927,479h4v2h-4zM930,478h4v3h-4zM933,479h2v3h-2zM935,479h4v3h-4zM938,478h4v2h-4zM941,478h2v3h-2zM943,479h4v3h-4zM946,480h4v3h-4zM949,480h2v2h-2zM951,481h4v3h-4zM954,482h4v3h-4zM957,480h2v3h-2zM959,485h4v3h-4zM962,483h4v3h-4zM965,483h2v3h-2zM967,479h4v3h-4zM970,484h4v3h-4zM973,484h2v3h-2zM975,485h4v3h-4zM978,483h4v3h-4zM981,487h2v3h-2zM983,482h4v2h-4zM986,484h4v3h-4zM989,486h2v2h-2zM991,484h4v3h-4zM994,485h4v3h-4zM997,483h2v3h-2zM999,487h4v3h-4zM1002,484h4v3h-4zM1005,489h2v2h-2zM1007,487h4v3h-4zM1010,488h4v3h-4zM1013,486h2v3h-2zM1015,489h4v3h-4zM1018,485h4v3h-4zM1021,490h2v3h-2zM1023,488h4v3h-4zM1026,490h4v3h-4zM1029,489h2v3h-2zM1031,492h4v3h-4zM1034,490h4v3h-4zM1037,495h2v3h-2zM1039,487h4v3h-4zM1042,487h4v3h-4zM1045,489h2v3h-2zM1047,493h4v3h-4zM1050,493h4v3h-4zM1053,488h2v3h-2zM1055,491h4v3h-4zM1058,491h4v3h-4zM1061,492h2v3h-2zM1063,491h4v3h-4z" stroke="none" fill="none" pointer-events="visibleFill"></path><path d="M0,2h11v12h2v19h3v19h3v18h2v18h3v16h3v14h2v14h3v12h3v12h2v10h3v10h3v8h2v8h3v8h3v7h2v6h3v6h3v6h2v5h3v5h3v4h2v4h3v4h3v4h2v3h3v3h3v4h2v3h3v2h3v3h2v2h3v3h3v2h2v2h3v3h3v2h2v2h3v2h3v2h2v1h3v2h3v2h2v2h3v1h3v2h2v2h3v1h3v2h2v2h3v1h3v1h2v2h3v2h5v2h3v1h3v2h2v1h3v1h3v2h2v1h3v1h3v1h2v2h3v1h3v1h2v2h3v1h3v1h2v1h3v1h3v1h2v1h3v1h3v2h5v1h3v2h2v1h6v2h2v1h3v1h3v1h2v1h6v2h2v1h3v1h3v1h2v1h6v1h2v1h3v1h3v1h5v2h5v2h3v-1h2v2h3v2h5v1h3v1h5v2h6v1h2v1h3v1h5v2h6v1h5v2h8v2h3v1h2v1h6v1h8v3h2v-1h3v1h5v2h3v-2h3v3h8v2h5v1h5v2h3v1h3v1h2v-1h3v1h3v1h2v1h3v-1h3v3h5v-1h3v1h2v3h3v-2h3v2h2v1h11v2h5v1h3v-1h3v2h5v1h3v1h5v2h11v1h5v1h3v2h2v-1h6v1h5v1h3v2h2v-1h6v2h2v-1h3v2h3v-1h2v1h3v1h3v1h5v1h5v1h3v-1h3v3h2v-1h6v2h5v1h3v1h2v-1h3v1h3v-2h2v4h3v-1h8v3h5v-2h3v3h5v-2h3v1h5v1h3v1h3v3h2v-3h3v1h3v2h2v-1h8v1h6v1h2v-1h3v1h3v4h2v-2h6v2h2v1h3v-4h3v3h5v1h5v1h6v1h2v-1h3v1h5v1h6v1h5v1h3v1h2v-1h3v-2h3v4h2v-1h3v2h8v-1h3v1h2v2h6v-1h5v2h3v-1h5v2h5v1h3v-1h3v-1h5v5h3v2h2v-4h3v3h5v-2h3v3h3v-4h2v3h3v2h3v-4h2v2h3v2h5v1h3v2h3v-5h2v4h3v-2h3v2h5v1h5v-3h3v3h8v-1h2v1h3v3h3v-1h2v-1h3v1h3v1h2v-2h3v4h3v-3h2v4h3v1h3v-5h2v3h3v1h3v-2h2v3h6v-2h2v3h6v-2h2v-1h3v6h3v-4h2v4h3v-1h3v-2h2v2h8v-1h6v1h2v2h3v-5h3v6h2v-2h3v2h3v2h2v-2h3v-1h3v1h2v1h3v-2h3v1h5v2h3v-1h2v1h3v2h3v-2h2v4h3v-2h5v-4h3v6h5v1h3v-2h3v3h2v-5h3v2h3v2h2v-2h3v2h3v-2h2v3h3v-2h3v4h2v-1h3v1h3v-3h2v4h3v-4h3v5h2v-3h3v2h5v2h3v-2h3v6h2v-8h6v1h2v4h6v-4h2v3h3v-1h3v2h2v-1h3" style="stroke-linejoin: miter; stroke: rgb(0, 0, 154); stroke-width: 1; fill: none;"></path></g></svg><g><g transform="translate(0,558)"><path d="M0,0h1066" style="stroke: black; stroke-width: 1;"></path><path d="M0,-21v21m27,-11v11m26,-11v11m27,-11v11m27,-11v11m26,-21v21m27,-11v11m27,-11v11m26,-11v11m27,-11v11m27,-21v21m26,-11v11m27,-11v11m26,-11v11m27,-11v11m27,-21v21m26,-11v11m27,-11v11m27,-11v11m26,-11v11m27,-21v21m27,-11v11m26,-11v11m27,-11v11m27,-11v11m26,-21v21m27,-11v11m27,-11v11m26,-11v11m27,-11v11m27,-21v21m26,-11v11m27,-11v11m26,-11v11m27,-11v11m27,-21v21m26,-11v11m27,-11v11m27,-11v11m26,-11v11m27,-21v21" style="stroke: black; stroke-width: 1;"></path><g font-family="Arial" font-size="24" xml:space="preserve"><text fill="black" text-anchor="middle" dy=".8em" transform="translate(0,5)">0</text><text fill="black" text-anchor="middle" dy=".8em" transform="translate(133,5)">5</text><text fill="black" text-anchor="middle" dy=".8em" transform="translate(267,5)">10</text><text fill="black" text-anchor="middle" dy=".8em" transform="translate(400,5)">15</text><text fill="black" text-anchor="middle" dy=".8em" transform="translate(533,5)">20</text><text fill="black" text-anchor="middle" dy=".8em" transform="translate(666,5)">25</text><text fill="black" text-anchor="middle" dy=".8em" transform="translate(800,5)">30</text><text fill="black" text-anchor="middle" dy=".8em" transform="translate(933,5)">35</text><text fill="black" text-anchor="middle" dy=".8em" transform="translate(1066,5)">40</text></g><rect x="0" y="0" width="1066" height="27" style="opacity: 0; cursor: crosshair;"></rect><g font-family="Arial" font-size="24" xml:space="preserve" style="cursor: move;" transform="translate(533,39)"><g transform="translate(-53,7)"><text font-style="italic" fill="black" font-size="24">p</text><text fill="black" font-size="14" transform="translate(15,5)">T</text><text fill="black" font-size="24" x="24"> (GeV/c)</text></g></g></g><g><path d="M0,0v558" style="stroke: black; stroke-width: 1;"></path><path d="M20,546h-20m20,-12h-20m20,-9h-20m20,-8h-20m20,-7h-20m20,-6h-20m40,-5h-40m20,-36h-20m20,-20h-20m20,-15h-20m20,-11h-20m20,-10h-20m20,-7h-20m20,-7h-20m20,-6h-20m40,-6h-40m20,-35h-20m20,-21h-20m20,-14h-20m20,-12h-20m20,-9h-20m20,-8h-20m20,-7h-20m20,-6h-20m40,-5h-40m20,-36h-20m20,-20h-20m20,-15h-20m20,-11h-20m20,-10h-20m20,-7h-20m20,-7h-20m20,-6h-20m40,-6h-40m20,-35h-20m20,-21h-20m20,-14h-20m20,-12h-20m20,-9h-20m20,-8h-20m20,-7h-20m20,-6h-20m40,-5h-40" style="stroke: black; stroke-width: 1;"></path><g font-family="Arial" font-size="24" xml:space="preserve"><g transform="translate(-37,508)"><text fill="black" font-size="24">10</text><text fill="black" font-size="14" transform="translate(26,-11)">3</text></g><g transform="translate(-37,390)"><text fill="black" font-size="24">10</text><text fill="black" font-size="14" transform="translate(26,-11)">4</text></g><g transform="translate(-37,273)"><text fill="black" font-size="24">10</text><text fill="black" font-size="14" transform="translate(26,-11)">5</text></g><g transform="translate(-37,155)"><text fill="black" font-size="24">10</text><text fill="black" font-size="14" transform="translate(26,-11)">6</text></g><g transform="translate(-37,38)"><text fill="black" font-size="24">10</text><text fill="black" font-size="14" transform="translate(26,-11)">7</text></g></g><rect x="-37" y="0" width="37" height="558" style="opacity: 0; cursor: crosshair;"></rect></g></g><path d="M2,2h15v-5h-20v20h5Z" style="opacity: 0; cursor: nw-resize;"></path><path d="M1064,2h-15v-5h20v20h-5 Z" style="opacity: 0; cursor: ne-resize;"></path><path d="M2,556h15v5h-20v-20h5Z" style="opacity: 0; cursor: sw-resize;"></path><path d="M1064,556h-15v5h20v-20h-5Z" style="opacity: 0; cursor: se-resize;"></path><path d="M-3,18h5v522h-5Z" style="opacity: 0; cursor: w-resize;"></path><path d="M1069,18h-5v522h5Z" style="opacity: 0; cursor: e-resize;"></path><path d="M18,-3v5h1030v-5Z" style="opacity: 0; cursor: n-resize;"></path><path d="M18,561v-5h1030v5Z" style="opacity: 0; cursor: s-resize;"></path></g><g transform="translate(133,3)" font-family="Arial" font-size="35" xml:space="preserve" x="133" y="3" width="1066" height="46" style="cursor: move;"><path d="M0,0H1066V46H0Z" style="fill: none; pointer-events: visiblefill;"></path><g transform="translate(515,33) scale(0.979)"><text font-style="italic" fill="black" font-size="38">p</text><text fill="black" font-size="23" transform="translate(22,8)">T</text></g><path d="M2,2h15v-5h-20v20h5Z" style="opacity: 0; cursor: nw-resize;"></path><path d="M1064,2h-15v-5h20v20h-5 Z" style="opacity: 0; cursor: ne-resize;"></path><path d="M2,44h15v5h-20v-20h5Z" style="opacity: 0; cursor: sw-resize;"></path><path d="M1064,44h-15v5h20v-20h-5Z" style="opacity: 0; cursor: se-resize;"></path><path d="M-3,18h5v10h-5Z" style="opacity: 0; cursor: w-resize;"></path><path d="M1069,18h-5v10h5Z" style="opacity: 0; cursor: e-resize;"></path><path d="M18,-3v5h1030v-5Z" style="opacity: 0; cursor: n-resize;"></path><path d="M18,49v-5h1030v5Z" style="opacity: 0; cursor: s-resize;"></path></g><g transform="translate(1040,45)" font-family="Arial" font-size="23" xml:space="preserve" x="1040" y="45" width="267" height="112" style="cursor: move;"><path d="M0,0H267V112H0Z" style="fill: white; stroke: black; stroke-width: 1; pointer-events: visiblefill;"></path><text fill="black" text-anchor="middle" dominant-baseline="middle" transform="translate(134,14)">pT</text><text fill="black" text-anchor="start" dominant-baseline="middle" transform="translate(13,42)">Entries </text><text fill="black" text-anchor="end" dominant-baseline="middle" transform="translate(254,42)"> 346767269</text><text fill="black" text-anchor="start" dominant-baseline="middle" transform="translate(13,70)">Mean </text><text fill="black" text-anchor="end" dominant-baseline="middle" transform="translate(254,70)"> 0.2966</text><text fill="black" text-anchor="start" dominant-baseline="middle" transform="translate(13,98)">Std Dev </text><text fill="black" text-anchor="end" dominant-baseline="middle" transform="translate(254,98)"> 1.342</text><path d="M0,28h267" style="stroke: black; stroke-width: 1;"></path><path d="M2,2h15v-5h-20v20h5Z" style="opacity: 0; cursor: nw-resize;"></path><path d="M265,2h-15v-5h20v20h-5 Z" style="opacity: 0; cursor: ne-resize;"></path><path d="M2,110h15v5h-20v-20h5Z" style="opacity: 0; cursor: sw-resize;"></path><path d="M265,110h-15v5h20v-20h-5Z" style="opacity: 0; cursor: se-resize;"></path><path d="M-3,18h5v76h-5Z" style="opacity: 0; cursor: w-resize;"></path><path d="M270,18h-5v76h5Z" style="opacity: 0; cursor: e-resize;"></path><path d="M18,-3v5h231v-5Z" style="opacity: 0; cursor: n-resize;"></path><path d="M18,115v-5h231v5Z" style="opacity: 0; cursor: s-resize;"></path></g></g></svg>