<svg width="1333" height="697" xmlns="http://www.w3.org/2000/svg"><title>ROOT canvas</title><path d="M0,0H1333V697H0Z" style="pointer-events: visiblefill; fill: rgb(243, 243, 243);"></path><g><g transform="translate(133,70)" x="133" y="70" width="1066" height="558"><title></title><path d="M0,0H1066V558H0Z" pointer-events="visibleFill" style="fill: rgb(243, 243, 243); stroke: black; stroke-width: 1;"></path><svg x="0" y="0" overflow="hidden" width="1066" height="558" viewBox="0 0 1066 558" style="pointer-events: visiblefill;"><g><path d="M0,451h6M3,450v1M5,450h6M8,450v0M11,449h6M14,449v1M16,449h6M19,449v0M21,448h6M24,448v1M27,448h6M30,447v1M32,447h6M35,447v0M37,446h6M40,445v1M43,446h6M46,446v0M48,448h6M51,448v0M53,445h6M56,445v0M59,444h6M62,444v1M64,444h6M67,443v1M69,443h6M72,443v0M75,443h6M78,443v0M80,442h6M83,442v0M85,441h6M88,441v0M91,440h6M94,440v1M96,440h6M99,440v0M101,439h6M104,439v1M107,438h6M110,438v0M112,438h6M115,437v1M117,438h6M120,437v1M123,436h6M126,436v0M128,437h6M131,437v1M133,436h6M136,435v1M139,434h6M142,434v1M144,434h6M147,434v0M149,433h6M152,433v0M155,432h6M158,432v1M160,432h6M163,432v0M165,431h6M168,431v0M171,420h6M174,420v1M176,417h6M179,417v0M181,415h6M184,415v1M187,413h6M190,413v0M192,410h6M195,410v0M197,407h6M200,406v1M203,403h6M206,403v0M208,399h6M211,399v1M213,394h6M216,394v0M219,389h6M222,389v1M224,385h6M227,385v0M229,380h6M232,380v0M235,376h6M238,376v0M240,371h6M243,371v0M245,368h6M248,368v0M251,369h6M254,369v0M256,362h6M259,362v0M261,359h6M264,359v0M267,357h6M270,357v0M272,354h6M275,354v0M277,351h6M280,351v0M282,348h6M285,348v0M288,346h6M291,345v1M293,342h6M296,342v1M298,339h6M301,339v0M304,336h6M307,336v0M309,333h6M312,333v1M314,331h6M317,331v0M320,328h6M323,328v0M325,325h6M328,325v0M330,328h6M333,328v0M336,321h6M339,321v0M341,318h6M344,318v0M346,315h6M349,315v1M352,313h6M355,313v0M357,311h6M360,311v0M362,308h6M365,308v0M368,306h6M371,306v0M373,303h6M376,303v0M378,300h6M381,300v1M384,298h6M387,298v0M389,295h6M392,295v0M394,293h6M397,293v0M400,290h6M403,290v0M405,288h6M408,288v0M410,291h6M413,291v0M416,283h6M419,283v0M421,281h6M424,281v0M426,278h6M429,278v0M432,275h6M435,275v0M437,273h6M440,273v0M442,270h6M445,270v0M448,267h6M451,267v0M453,264h6M456,264v0M458,260h6M461,260v0M464,256h6M467,256v0M469,252h6M472,252v0M474,247h6M477,247v0M480,241h6M483,241v0M485,238h6M488,238v0M490,236h6M493,236v0M496,224h6M499,224v0M501,217h6M504,217v0M506,207h6M509,207v0M512,194h6M515,194v0M517,175h6M520,175v0M522,144h6M525,144v0M528,4h6M531,4v0M533,4h6M536,4v0M538,135h6M541,135v0M544,164h6M547,164v0M549,181h6M552,181v0M554,193h6M557,193v0M560,197h6M563,197v0M565,174h6M568,174v0M570,212h6M573,212v0M576,228h6M579,227v1M581,232h6M584,232v0M586,235h6M589,235v0M592,238h6M595,238v0M597,241h6M600,241v1M602,245h6M605,245v0M608,248h6M611,248v0M613,251h6M616,251v0M618,255h6M621,254v1M624,258h6M627,258v0M629,262h6M632,262v0M634,266h6M637,266v0M640,270h6M643,269v1M645,272h6M648,272v0M650,281h6M653,281v0M656,280h6M659,280v0M661,283h6M664,283v0M666,286h6M669,286v0M672,289h6M675,289v0M677,292h6M680,292v0M682,295h6M685,295v0M688,298h6M691,298v0M693,301h6M696,301v0M698,303h6M701,303v0M704,306h6M707,306v0M709,308h6M712,308v1M714,311h6M717,311v0M720,314h6M723,313v1M725,316h6M728,316v0M730,323h6M733,323v0M736,321h6M739,321v0M741,323h6M744,323v1M746,326h6M749,326v0M752,329h6M755,329v0M757,332h6M760,331v1M762,335h6M765,334v1M768,338h6M771,338v0M773,341h6M776,341v0M778,343h6M781,343v0M784,346h6M787,346v0M789,349h6M792,349v1M794,352h6M797,352v0M800,355h6M803,355v0M805,358h6M808,357v1M810,364h6M813,364v0M815,364h6M818,364v0M821,367h6M824,367v0M826,370h6M829,370v1M831,375h6M834,374v1M837,379h6M840,378v1M842,383h6M845,383v0M847,387h6M850,387v0M853,392h6M856,392v0M858,395h6M861,395v1M863,399h6M866,399v0M869,402h6M872,402v1M874,406h6M877,405v1M879,409h6M882,409v0M885,410h6M888,410v1M890,414h6M893,414v0M895,424h6M898,424v0M901,425h6M904,424v1M906,426h6M909,426v0M911,426h6M914,426v0M917,427h6M920,427v0M922,428h6M925,428v0M927,429h6M930,429v0M933,430h6M936,429v1M938,430h6M941,429v1M943,430h6M946,430v0M949,431h6M952,431v0M954,432h6M957,431v1M959,432h6M962,432v0M965,433h6M968,432v1M970,433h6M973,433v0M975,434h6M978,434v0M981,434h6M984,434v0M986,434h6M989,434v1M991,435h6M994,435v0M997,437h6M1000,436v1M1002,436h6M1005,436v0M1007,437h6M1010,437v0M1013,439h6M1016,438v1M1018,438h6M1021,438v0M1023,438h6M1026,438v1M1029,439h6M1032,438v1M1034,439h6M1037,439v0M1039,440h6M1042,439v1M1045,440h6M1048,440v0M1050,440h6M1053,440v1M1055,441h6M1058,440v1M1061,441h6M1064,441v0" style="stroke: rgb(0, 0, 154); stroke-width: 1;"></path><path d="M0,450h6v1h-6zM5,450h6v0h-6zM11,449h6v1h-6zM16,449h6v0h-6zM21,448h6v1h-6zM27,447h6v1h-6zM32,447h6v0h-6zM37,445h6v1h-6zM43,446h6v0h-6zM48,448h6v0h-6zM53,445h6v0h-6zM59,444h6v1h-6zM64,443h6v1h-6zM69,443h6v0h-6zM75,443h6v0h-6zM80,442h6v0h-6zM85,441h6v0h-6zM91,440h6v1h-6zM96,440h6v0h-6zM101,439h6v1h-6zM107,438h6v0h-6zM112,437h6v1h-6zM117,437h6v1h-6zM123,436h6v0h-6zM128,437h6v1h-6zM133,435h6v1h-6zM139,434h6v1h-6zM144,434h6v0h-6zM149,433h6v0h-6zM155,432h6v1h-6zM160,432h6v0h-6zM165,431h6v0h-6zM171,420h6v1h-6zM176,417h6v0h-6zM181,415h6v1h-6zM187,413h6v0h-6zM192,410h6v0h-6zM197,406h6v1h-6zM203,403h6v0h-6zM208,399h6v1h-6zM213,394h6v0h-6zM219,389h6v1h-6zM224,385h6v0h-6zM229,380h6v0h-6zM235,376h6v0h-6zM240,371h6v0h-6zM245,368h6v0h-6zM251,369h6v0h-6zM256,362h6v0h-6zM261,359h6v0h-6zM267,357h6v0h-6zM272,354h6v0h-6zM277,351h6v0h-6zM282,348h6v0h-6zM288,345h6v1h-6zM293,342h6v1h-6zM298,339h6v0h-6zM304,336h6v0h-6zM309,333h6v1h-6zM314,331h6v0h-6zM320,328h6v0h-6zM325,325h6v0h-6zM330,328h6v0h-6zM336,321h6v0h-6zM341,318h6v0h-6zM346,315h6v1h-6zM352,313h6v0h-6zM357,311h6v0h-6zM362,308h6v0h-6zM368,306h6v0h-6zM373,303h6v0h-6zM378,300h6v1h-6zM384,298h6v0h-6zM389,295h6v0h-6zM394,293h6v0h-6zM400,290h6v0h-6zM405,288h6v0h-6zM410,291h6v0h-6zM416,283h6v0h-6zM421,281h6v0h-6zM426,278h6v0h-6zM432,275h6v0h-6zM437,273h6v0h-6zM442,270h6v0h-6zM448,267h6v0h-6zM453,264h6v0h-6zM458,260h6v0h-6zM464,256h6v0h-6zM469,252h6v0h-6zM474,247h6v0h-6zM480,241h6v0h-6zM485,238h6v0h-6zM490,236h6v0h-6zM496,224h6v0h-6zM501,217h6v0h-6zM506,207h6v0h-6zM512,194h6v0h-6zM517,175h6v0h-6zM522,144h6v0h-6zM528,4h6v0h-6zM533,4h6v0h-6zM538,135h6v0h-6zM544,164h6v0h-6zM549,181h6v0h-6zM554,193h6v0h-6zM560,197h6v0h-6zM565,174h6v0h-6zM570,212h6v0h-6zM576,227h6v1h-6zM581,232h6v0h-6zM586,235h6v0h-6zM592,238h6v0h-6zM597,241h6v1h-6zM602,245h6v0h-6zM608,248h6v0h-6zM613,251h6v0h-6zM618,254h6v1h-6zM624,258h6v0h-6zM629,262h6v0h-6zM634,266h6v0h-6zM640,269h6v1h-6zM645,272h6v0h-6zM650,281h6v0h-6zM656,280h6v0h-6zM661,283h6v0h-6zM666,286h6v0h-6zM672,289h6v0h-6zM677,292h6v0h-6zM682,295h6v0h-6zM688,298h6v0h-6zM693,301h6v0h-6zM698,303h6v0h-6zM704,306h6v0h-6zM709,308h6v1h-6zM714,311h6v0h-6zM720,313h6v1h-6zM725,316h6v0h-6zM730,323h6v0h-6zM736,321h6v0h-6zM741,323h6v1h-6zM746,326h6v0h-6zM752,329h6v0h-6zM757,331h6v1h-6zM762,334h6v1h-6zM768,338h6v0h-6zM773,341h6v0h-6zM778,343h6v0h-6zM784,346h6v0h-6zM789,349h6v1h-6zM794,352h6v0h-6zM800,355h6v0h-6zM805,357h6v1h-6zM810,364h6v0h-6zM815,364h6v0h-6zM821,367h6v0h-6zM826,370h6v1h-6zM831,374h6v1h-6zM837,378h6v1h-6zM842,383h6v0h-6zM847,387h6v0h-6zM853,392h6v0h-6zM858,395h6v1h-6zM863,399h6v0h-6zM869,402h6v1h-6zM874,405h6v1h-6zM879,409h6v0h-6zM885,410h6v1h-6zM890,414h6v0h-6zM895,424h6v0h-6zM901,424h6v1h-6zM906,426h6v0h-6zM911,426h6v0h-6zM917,427h6v0h-6zM922,428h6v0h-6zM927,429h6v0h-6zM933,429h6v1h-6zM938,429h6v1h-6zM943,430h6v0h-6zM949,431h6v0h-6zM954,431h6v1h-6zM959,432h6v0h-6zM965,432h6v1h-6zM970,433h6v0h-6zM975,434h6v0h-6zM981,434h6v0h-6zM986,434h6v1h-6zM991,435h6v0h-6zM997,436h6v1h-6zM1002,436h6v0h-6zM1007,437h6v0h-6zM1013,438h6v1h-6zM1018,438h6v0h-6zM1023,438h6v1h-6zM1029,438h6v1h-6zM1034,439h6v0h-6zM1039,439h6v1h-6zM1045,440h6v0h-6zM1050,440h6v1h-6zM1055,440h6v1h-6zM1061,441h6v0h-6z" stroke="none" fill="none" pointer-events="visibleFill"></path><path d="M0,451h5v-1h6v-1h10v-1h11v-1h5v-1h11v2h5v-3h6v-1h10v-1h11v-1h5v-1h6v-1h10v-1h6v-1h16v-2h5v1h5v-1h6v-2h10v-1h6v-1h10v-1h6v-11h5v-3h5v-2h6v-2h5v-3h5v-3h6v-4h5v-4h5v-5h6v-5h5v-4h5v-5h6v-4h5v-5h5v-3h6v1h5v-7h5v-3h6v-2h5v-3h5v-3h5v-3h6v-2h5v-4h5v-3h6v-3h5v-3h5v-2h6v-3h5v-3h5v3h6v-7h5v-3h5v-3h6v-2h5v-2h5v-3h6v-2h5v-3h5v-3h6v-2h5v-3h5v-2h6v-3h5v-2h5v3h6v-8h5v-2h5v-3h6v-3h5v-2h5v-3h6v-3h5v-3h5v-4h6v-4h5v-4h5v-5h6v-6h5v-3h5v-2h6v-12h5v-7h5v-10h6v-13h5v-19h5v-31h6v-140h10v131h6v29h5v17h5v12h6v4h5v-23h5v38h6v16h5v4h5v3h6v3h5v3h5v4h6v3h5v3h5v4h6v3h5v4h5v4h6v4h5v2h5v9h6v-1h5v3h5v3h6v3h5v3h5v3h6v3h5v3h5v2h6v3h5v2h5v3h6v3h5v2h5v7h6v-2h5v2h5v3h6v3h5v3h5v3h6v3h5v3h5v2h6v3h5v3h5v3h6v3h5v3h5v6h11v3h5v3h5v5h6v4h5v4h5v4h6v5h5v3h5v4h6v3h5v4h5v3h6v1h5v4h5v10h6v1h5v1h11v1h5v1h5v1h6v1h16v1h5v1h11v1h10v1h16v1h6v2h5v-1h5v1h6v2h5v-1h11v1h10v1h16v1h11" style="stroke-linejoin: miter; stroke: rgb(0, 0, 154); stroke-width: 1; fill: none;"></path></g></svg><g><g transform="translate(0,558)"><path d="M0,0h1066" style="stroke: black; stroke-width: 1;"></path><path d="M0,-21v21m27,-11v11m26,-11v11m27,-11v11m27,-11v11m26,-21v21m27,-11v11m27,-11v11m26,-11v11m27,-11v11m27,-21v21m26,-11v11m27,-11v11m26,-11v11m27,-11v11m27,-21v21m26,-11v11m27,-11v11m27,-11v11m26,-11v11m27,-21v21m27,-11v11m26,-11v11m27,-11v11m27,-11v11m26,-21v21m27,-11v11m27,-11v11m26,-11v11m27,-11v11m27,-21v21m26,-11v11m27,-11v11m26,-11v11m27,-11v11m27,-21v21m26,-11v11m27,-11v11m27,-11v11m26,-11v11m27,-21v21" style="stroke: black; stroke-width: 1;"></path><g font-family="Arial" font-size="24" xml:space="preserve"><text fill="black" text-anchor="middle" dy=".8em" transform="translate(0,5)">-20</text><text fill="black" text-anchor="middle" dy=".8em" transform="translate(133,5)">-15</text><text fill="black" text-anchor="middle" dy=".8em" transform="translate(267,5)">-10</text><text fill="black" text-anchor="middle" dy=".8em" transform="translate(400,5)">-5</text><text fill="black" text-anchor="middle" dy=".8em" transform="translate(533,5)">0</text><text fill="black" text-anchor="middle" dy=".8em" transform="translate(666,5)">5</text><text fill="black" text-anchor="middle" dy=".8em" transform="translate(800,5)">10</text><text fill="black" text-anchor="middle" dy=".8em" transform="translate(933,5)">15</text><text fill="black" text-anchor="middle" dy=".8em" transform="translate(1066,5)">20</text></g><rect x="0" y="0" width="1066" height="27" style="opacity: 0; cursor: crosshair;"></rect><g font-family="Arial" font-size="24" xml:space="preserve" style="cursor: move;" transform="translate(533,39)"><g transform="translate(-31,8)"><text font-style="italic" fill="black" font-size="24">Z</text><text fill="black" font-size="24" x="16"> (cm)</text></g></g></g><g><path d="M0,0v558" style="stroke: black; stroke-width: 1;"></path><path d="M20,543h-20m20,-20h-20m20,-16h-20m20,-14h-20m20,-12h-20m20,-11h-20m40,-9h-40m20,-62h-20m20,-36h-20m20,-26h-20m20,-19h-20m20,-17h-20m20,-13h-20m20,-12h-20m20,-11h-20m40,-9h-40m20,-62h-20m20,-36h-20m20,-26h-20m20,-20h-20m20,-16h-20m20,-14h-20m20,-12h-20m20,-10h-20m40,-10h-40" style="stroke: black; stroke-width: 1;"></path><g font-family="Arial" font-size="24" xml:space="preserve"><g transform="translate(-37,470)"><text fill="black" font-size="24">10</text><text fill="black" font-size="14" transform="translate(26,-11)">5</text></g><g transform="translate(-37,265)"><text fill="black" font-size="24">10</text><text fill="black" font-size="14" transform="translate(26,-11)">6</text></g><g transform="translate(-37,59)"><text fill="black" font-size="24">10</text><text fill="black" font-size="14" transform="translate(26,-11)">7</text></g></g><rect x="-37" y="0" width="37" height="558" style="opacity: 0; cursor: crosshair;"></rect></g></g><path d="M2,2h15v-5h-20v20h5Z" style="opacity: 0; cursor: nw-resize;"></path><path d="M1064,2h-15v-5h20v20h-5 Z" style="opacity: 0; cursor: ne-resize;"></path><path d="M2,556h15v5h-20v-20h5Z" style="opacity: 0; cursor: sw-resize;"></path><path d="M1064,556h-15v5h20v-20h-5Z" style="opacity: 0; cursor: se-resize;"></path><path d="M-3,18h5v522h-5Z" style="opacity: 0; cursor: w-resize;"></path><path d="M1069,18h-5v522h5Z" style="opacity: 0; cursor: e-resize;"></path><path d="M18,-3v5h1030v-5Z" style="opacity: 0; cursor: n-resize;"></path><path d="M18,561v-5h1030v5Z" style="opacity: 0; cursor: s-resize;"></path></g><g transform="translate(133,3)" font-family="Arial" font-size="35" xml:space="preserve" x="133" y="3" width="1066" height="46" style="cursor: move;"><path d="M0,0H1066V46H0Z" style="fill: none; pointer-events: visiblefill;"></path><text fill="black" text-anchor="middle" dy=".8em" transform="translate(533)">Z - Vertex relative to interaction point</text><path d="M2,2h15v-5h-20v20h5Z" style="opacity: 0; cursor: nw-resize;"></path><path d="M1064,2h-15v-5h20v20h-5 Z" style="opacity: 0; cursor: ne-resize;"></path><path d="M2,44h15v5h-20v-20h5Z" style="opacity: 0; cursor: sw-resize;"></path><path d="M1064,44h-15v5h20v-20h-5Z" style="opacity: 0; cursor: se-resize;"></path><path d="M-3,18h5v10h-5Z" style="opacity: 0; cursor: w-resize;"></path><path d="M1069,18h-5v10h5Z" style="opacity: 0; cursor: e-resize;"></path><path d="M18,-3v5h1030v-5Z" style="opacity: 0; cursor: n-resize;"></path><path d="M18,49v-5h1030v5Z" style="opacity: 0; cursor: s-resize;"></path></g><g transform="translate(1040,45)" font-family="Arial" font-size="23" xml:space="preserve" x="1040" y="45" width="267" height="112" style="cursor: move;"><path d="M0,0H267V112H0Z" style="fill: white; stroke: black; stroke-width: 1; pointer-events: visiblefill;"></path><text fill="black" text-anchor="middle" dominant-baseline="middle" transform="translate(134,14)">Z</text><text fill="black" text-anchor="start" dominant-baseline="middle" transform="translate(13,42)">Entries </text><text fill="black" text-anchor="end" dominant-baseline="middle" transform="translate(254,42)"> 346767269</text><text fill="black" text-anchor="start" dominant-baseline="middle" transform="translate(13,70)">Mean </text><text fill="black" text-anchor="end" dominant-baseline="middle" transform="translate(254,70)"> 0.08805</text><text fill="black" text-anchor="start" dominant-baseline="middle" transform="translate(13,98)">Std Dev </text><text fill="black" text-anchor="end" dominant-baseline="middle" transform="translate(254,98)"> 4.327</text><path d="M0,28h267" style="stroke: black; stroke-width: 1;"></path><path d="M2,2h15v-5h-20v20h5Z" style="opacity: 0; cursor: nw-resize;"></path><path d="M265,2h-15v-5h20v20h-5 Z" style="opacity: 0; cursor: ne-resize;"></path><path d="M2,110h15v5h-20v-20h5Z" style="opacity: 0; cursor: sw-resize;"></path><path d="M265,110h-15v5h20v-20h-5Z" style="opacity: 0; cursor: se-resize;"></path><path d="M-3,18h5v76h-5Z" style="opacity: 0; cursor: w-resize;"></path><path d="M270,18h-5v76h5Z" style="opacity: 0; cursor: e-resize;"></path><path d="M18,-3v5h231v-5Z" style="opacity: 0; cursor: n-resize;"></path><path d="M18,115v-5h231v5Z" style="opacity: 0; cursor: s-resize;"></path></g></g></svg>